<?xml version="1.0" encoding="utf-8"?>
<!-- Generator: Adobe Illustrator 27.5.0, SVG Export Plug-In . SVG Version: 6.00 Build 0)  -->
<svg version="1.1" xmlns="http://www.w3.org/2000/svg" xmlns:xlink="http://www.w3.org/1999/xlink" x="0px" y="0px"
	 viewBox="0 0 500 500" style="enable-background:new 0 0 500 500;" xml:space="preserve">
<g id="BACKGROUND">
	<rect style="fill:#1D262D;" fill-opacity="0.00" width="1000" height="1000"/>
	<path style="fill:#C8BDFF;" d="M46.734,386.188c-3.917,37.364,28.805,68.207,65.902,62.272
		c32.377-5.181,64.425-11.949,95.404-22.569c51-17.484,99.517-46.334,131.793-89.518c25.841-34.573,40.108-81.8,22.951-121.406
		c-12.158-28.068-37.806-47.793-63.756-63.988c-30.886-19.276-67.22-35.896-102.675-27.62
		c-20.163,4.707-37.868,17.208-51.846,32.482c-13.978,15.275-24.578,33.292-34.513,51.457
		c-21.202,38.764-39.964,79.106-51.973,121.626C52.709,347.736,48.745,367.009,46.734,386.188z"/>
	<path style="fill:#C8BDFF;" d="M453.884,132.051c-15.186-8.681-30.442-17.397-46.744-23.739
		c-16.302-6.343-33.817-10.272-51.262-8.984c-7.697,0.568-15.463,2.203-22.128,6.093c-6.664,3.891-12.137,10.267-13.684,17.827
		c-1.612,7.875,1.096,15.98,4.506,23.258c14.973,31.964,43.676,55.823,75.109,71.88c13.075,6.678,27.052,12.264,41.709,13.127
		c14.657,0.865,30.171-3.563,40.131-14.35c11.295-12.235,13.665-31.117,8.198-46.845
		C484.251,154.591,471.714,142.243,453.884,132.051z"/>
	<path style="fill:#C8BDFF;" d="M436.639,361.355c-12.984,0.367-25.77,5.619-35.263,14.482c-4.353,4.063-8.247,9.677-7.156,15.529
		c0.691,3.707,3.36,6.845,6.61,8.758c3.25,1.915,7.036,2.731,10.792,3.086c11.12,1.054,22.575-1.819,31.883-7.994
		c4.499-2.985,8.586-6.828,10.919-11.698c2.333-4.87,2.696-10.874,0.06-15.587C451.849,363.219,445.959,361.091,436.639,361.355z"/>
</g>
<g id="OBJECTS">
	<g>
		<rect x="233.513" y="134.538" style="fill:#D6CEFF;" width="6.466" height="13.579"/>
		<rect x="243.886" y="128.233" style="fill:#D6CEFF;" width="6.466" height="19.884"/>
		<rect x="254.258" y="123.868" style="fill:#D6CEFF;" width="6.466" height="24.249"/>
	</g>
	<path style="fill:#D6CEFF;" d="M475.055,192.429c0-1.425-1.155-2.58-2.58-2.58c-1.425,0-2.58,1.155-2.58,2.58
		c0,1.425,1.155,2.58,2.58,2.58C473.9,195.009,475.055,193.854,475.055,192.429z"/>
	<g>
		<path style="fill:#C8BDFF;" d="M232.675,102.902c0-1.425-1.155-2.58-2.58-2.58c-1.425,0-2.58,1.155-2.58,2.58
			c0,1.425,1.155,2.58,2.58,2.58C231.52,105.482,232.675,104.327,232.675,102.902z"/>
		<path style="fill:none;stroke:#17014E;stroke-linecap:round;stroke-linejoin:round;stroke-miterlimit:10;" d="M203.115,92.323
			c0-1.054-0.854-1.909-1.909-1.909c-1.054,0-1.909,0.855-1.909,1.909s0.854,1.909,1.909,1.909
			C202.261,94.232,203.115,93.377,203.115,92.323z"/>
	</g>
	<g>
		<circle style="fill:#C8BDFF;" cx="44.016" cy="459.149" r="2.58"/>
		<path style="fill:none;stroke:#17014E;stroke-linecap:round;stroke-linejoin:round;stroke-miterlimit:10;" d="M36.467,440.762
			c0-1.054-0.854-1.909-1.909-1.909c-1.054,0-1.909,0.854-1.909,1.909c0,1.054,0.854,1.909,1.909,1.909
			C35.613,442.671,36.467,441.816,36.467,440.762z"/>
	</g>
	<path style="fill:none;stroke:#17014E;stroke-linecap:round;stroke-linejoin:round;stroke-miterlimit:10;" d="M474.383,275.784
		c0-1.054-0.854-1.909-1.909-1.909c-1.054,0-1.909,0.855-1.909,1.909c0,1.054,0.854,1.909,1.909,1.909
		C473.529,277.692,474.383,276.838,474.383,275.784z"/>
	<path style="fill:none;stroke:#17014E;stroke-linecap:round;stroke-linejoin:round;stroke-miterlimit:10;" d="M94.887,340.92
		c0-1.054-0.854-1.909-1.909-1.909c-1.054,0-1.909,0.855-1.909,1.909c0,1.054,0.854,1.909,1.909,1.909
		C94.033,342.829,94.887,341.974,94.887,340.92z"/>
	<g>
		
			<line style="fill:none;stroke:#FFFFFF;stroke-linecap:round;stroke-linejoin:round;stroke-miterlimit:10;" x1="68.513" y1="95.726" x2="68.51" y2="100.038"/>
		
			<line style="fill:none;stroke:#FFFFFF;stroke-linecap:round;stroke-linejoin:round;stroke-miterlimit:10;" x1="66.356" y1="97.881" x2="70.667" y2="97.883"/>
	</g>
	<g>
		<path style="fill:#D6CEFF;" d="M68.513,402.8c0-1.425-1.155-2.58-2.58-2.58c-1.425,0-2.58,1.155-2.58,2.58
			c0,1.425,1.155,2.58,2.58,2.58C67.358,405.38,68.513,404.225,68.513,402.8z"/>
		<g>
			
				<line style="fill:none;stroke:#FFFFFF;stroke-linecap:round;stroke-linejoin:round;stroke-miterlimit:10;" x1="73.12" y1="414.387" x2="73.117" y2="418.699"/>
			
				<line style="fill:none;stroke:#FFFFFF;stroke-linecap:round;stroke-linejoin:round;stroke-miterlimit:10;" x1="70.962" y1="416.542" x2="75.274" y2="416.545"/>
		</g>
	</g>
	<g>
		<path style="fill:#34A5D1;" d="M235.863,368.151c-9.973,8.885-20.148,18.025-26.472,29.79c-1.053,1.96-2.005,4.027-2.262,6.238
			c-0.257,2.211,0.275,4.607,1.847,6.182c1.796,1.799,4.543,2.209,7.085,2.234c6.273,0.061,12.553-1.679,18.219-5.491
			c-3.704,7.037-7.446,14.17-9.273,21.911c-1.827,7.74-1.558,16.284,2.44,23.159c6.076,10.449,19.72,14.738,31.617,12.609
			c11.898-2.129,22.212-9.519,30.423-19.503c-1.53,7.361-2.859,15.735,1.579,21.802c3.659,5.003,10.626,6.913,16.667,5.523
			c6.04-1.391,11.139-5.63,14.674-10.721c3.537-5.091,5.678-11.008,8.506-16.925c2.856,9.006,10.609,16.264,19.759,18.617
			c4.259,1.096,8.934,1.149,12.906-0.739c4.724-2.243,7.892-6.971,9.448-11.964c1.557-4.992,1.713-10.299,3.12-17.241
			c7.405,7.347,20.682,5.232,28.152-2.049c7.472-7.28,10.317-18.05,11.689-28.392c1.681-12.675,1.467-26.212-4.706-37.409
			c-4.805-8.716-12.902-15.302-21.863-19.632c-8.962-4.331-18.792-6.56-28.627-8.086
			C318.642,331.525,271.018,336.825,235.863,368.151z"/>
		<g>
			<path style="fill:#228FBA;" d="M416.759,394.962c-2.961-3.001-7.534-3.752-11.764-3.752c-12.536,0.001-24.99,5.229-33.772,14.176
				c-4.438,4.523-8.002,10.056-9.439,16.229c-1.438,6.172-0.584,13.009,3.041,18.207c2.221,3.185,5.546,5.628,9.224,6.805
				c0.713-3.811,1.08-7.973,2.098-12.996c7.405,7.347,20.682,5.232,28.152-2.049c7.472-7.28,10.317-18.05,11.689-28.392
				C416.347,400.477,416.612,397.723,416.759,394.962z"/>
			<path style="fill:#228FBA;" d="M330.616,419.718c-7.089,0.729-13.699,5.125-17.116,11.379
				c-3.561,6.519-4.103,15.141-10.111,19.51c-4.289,3.12-10.389,3.225-15.332,4.906c-0.085,2.869,0.22,5.667,1.204,8.221
				c8.884-4.221,17.534-9.08,23.79-16.562c2.158-2.58,3.997-5.44,6.409-7.786c2.411-2.345,5.581-4.183,8.942-4.04
				c5.436,0.23,9.495,5.719,9.93,11.143c0.241,2.998-0.352,5.942-1.356,8.791c3.668,3.98,8.45,6.947,13.697,8.297
				c0.923,0.237,1.867,0.415,2.817,0.545c1.368-5.945,2.565-11.967,2.468-18.056c-0.105-6.705-1.917-13.593-6.265-18.698
				C345.072,421.941,337.704,418.986,330.616,419.718z"/>
			<path style="fill:#228FBA;" d="M216.061,412.595c4.085,0.04,8.17-0.7,12.09-2.262c0.099-0.142,0.201-0.282,0.295-0.425
				c3.638-5.517,5.01-12.482,3.734-18.969c-0.963-4.896-3.428-9.473-6.926-13.027c-6.159,6.014-11.805,12.48-15.863,20.029
				c-1.053,1.96-2.005,4.027-2.262,6.237c-0.257,2.211,0.275,4.608,1.847,6.182C210.772,412.159,213.519,412.569,216.061,412.595z"
				/>
			<path style="fill:#228FBA;" d="M276.554,436.264c15.317-9.909,21.839-30.268,18.364-48.177
				c-3.138-16.171-13.279-30.259-25.994-40.857c-3.66,1.569-7.26,3.318-10.79,5.25c4.44,4.92,8.617,10.075,11.577,15.979
				c3.923,7.826,5.48,17.294,2.096,25.369c-3.601,8.593-11.993,14.126-20.32,18.306c-8.326,4.179-17.274,7.692-23.874,14.27
				c-0.993,0.99-1.906,2.085-2.742,3.244c-1.666,7.571-1.313,15.838,2.577,22.527c4.03,6.93,11.392,11.133,19.362,12.569
				c0.578-5.818,3.197-11.446,7.419-15.503C260.457,443.252,269.302,440.957,276.554,436.264z"/>
		</g>
	</g>
	<g>
		<path style="fill:#34A5D1;" d="M53.725,253.17c-6.529-10.221-10.087-22.316-10.13-34.443c-0.017-4.577,1.015-9.992,5.189-11.871
			c3.079-1.387,6.676-0.238,9.737,1.19c5.976,2.785,11.463,6.617,13.425,10.315c-5.03-13.685-1.941-30.023,7.739-40.926
			s25.537-15.906,40.557-12.503c2.395-9.549,6.078-19.177,13.191-25.982c7.114-6.806,18.365-10.051,29.177-3.311
			c2.435-4.297,4.899-8.632,8.205-12.3c3.307-3.669,7.575-6.667,12.433-7.568c4.857-0.9,10.312,0.605,13.358,4.494
			c2.394,3.057,3.066,7.196,2.587,11.049c-0.478,3.854-1.997,7.495-3.84,13.09c3.245-5.465,9.233-9.205,15.567-9.723
			c6.335-0.518,12.851,2.2,16.941,7.066c5.556,6.613,6.253,15.934,6.374,24.571c0.169,12.084-0.301,24.273-3.132,36.022
			c-2.83,11.748-8.152,23.109-16.654,31.698c-11.364,11.48-27.339,17.093-43.084,20.706
			C133.977,263.323,94.478,262.545,53.725,253.17z"/>
		<g>
			<path style="fill:#228FBA;" d="M46.1,236.2c11.525-9.235,29.502-7.891,40.906-17.568c7.316-6.21,10.686-16.306,9.989-25.877
				c-0.594-8.141-3.87-15.885-8.513-22.638c-3.272,2.005-6.252,4.451-8.797,7.318c-0.388,0.437-0.747,0.896-1.113,1.35
				c6.351,6.869,9.122,17.096,6.538,26.142c-3.211,11.249-14.414,19.691-26.111,19.68c-3.314-0.003-6.626-0.611-9.927-0.323
				c-1.743,0.153-3.526,0.633-5.055,1.474C44.421,229.288,45.123,232.783,46.1,236.2z"/>
			<path style="fill:#228FBA;" d="M234.235,166.318c-0.121-8.637-0.817-17.958-6.374-24.571c-0.282-0.335-0.578-0.658-0.882-0.973
				c-11.881,0.843-23.521,5.233-32.876,12.618c-7.469,5.896-13.772,14.404-13.676,23.92c0.116,11.467,9.388,21.766,7.954,33.145
				c-0.909,7.215-6.013,13.196-11.552,17.909c-5.539,4.713-11.79,8.7-16.402,14.325c-3.487,4.255-5.896,9.841-5.607,15.195
				c5.557-0.857,11.076-1.888,16.545-3.143c3.857-0.885,7.727-1.893,11.54-3.075c0.843-7.016,3.943-13.776,8.875-18.849
				c3.985-4.1,8.998-7.083,13.02-11.146c4.023-4.063,7.083-9.85,5.643-15.384c-1.01-3.881-4.047-6.954-5.264-10.775
				c-2.451-7.698,3.514-16.039,10.982-19.123c5.666-2.34,11.884-2.451,18.064-2.001C234.27,171.698,234.272,169.005,234.235,166.318
				z"/>
			<path style="fill:#228FBA;" d="M129.196,260.445c-6.995-13.646-9.759-29.853-4.787-44.288
				c3.548-10.304,10.849-19.498,11.599-30.369c0.747-10.834-5.173-20.877-10.88-30.115c-0.393-0.635-0.832-1.289-1.317-1.891
				c-1.476,3.611-2.625,7.386-3.57,11.15c-4.638-1.051-9.355-1.295-13.946-0.817c7.373,14.695,7.315,32.98-0.373,47.544
				c-3.674,6.96-8.922,13.057-12.015,20.294c-3.701,8.66-3.948,18.702-0.879,27.59C105.237,260.68,117.301,260.992,129.196,260.445z
				"/>
			<path style="fill:#228FBA;" d="M184.26,130.547c4.334,2.659,9.772,3.928,14.613,2.633c0.129-0.622,0.242-1.242,0.32-1.866
				c0.479-3.853-0.193-7.992-2.587-11.049c-3.046-3.89-8.502-5.394-13.358-4.494c-3.498,0.649-6.682,2.394-9.43,4.685
				C176.798,124.341,180.107,127.998,184.26,130.547z"/>
		</g>
	</g>
	<g>
		<path style="fill:#C8BDFF;" d="M47.16,138.572c0-1.425-1.155-2.58-2.58-2.58c-1.425,0-2.58,1.155-2.58,2.58
			c0,1.425,1.155,2.58,2.58,2.58C46.004,141.152,47.16,139.997,47.16,138.572z"/>
		<path style="fill:none;stroke:#17014E;stroke-linecap:round;stroke-linejoin:round;stroke-miterlimit:10;" d="M58.769,145.61
			c0-1.054-0.854-1.909-1.909-1.909c-1.054,0-1.909,0.855-1.909,1.909c0,1.054,0.854,1.909,1.909,1.909
			C57.915,147.519,58.769,146.664,58.769,145.61z"/>
	</g>
	<g>
		<path style="fill:none;stroke:#FFFFFF;stroke-linecap:round;stroke-linejoin:round;stroke-miterlimit:10;" d="M441.939,304.902
			L441.939,304.902c0.037-1.656,1.411-2.969,3.067-2.932l19.495,0.44c1.657,0.037,2.969,1.411,2.932,3.067
			c-0.037,1.657-1.41,2.969-3.067,2.932l-19.495-0.44C443.215,307.932,441.902,306.559,441.939,304.902z"/>
		<path style="fill:none;stroke:#FFFFFF;stroke-linecap:round;stroke-linejoin:round;stroke-miterlimit:10;" d="M441.669,316.899
			L441.669,316.899c0.037-1.656,1.411-2.969,3.067-2.932l19.495,0.439c1.657,0.037,2.969,1.411,2.932,3.067
			c-0.037,1.656-1.41,2.969-3.067,2.932l-19.495-0.44C442.945,319.929,441.632,318.556,441.669,316.899z"/>
		<path style="fill:none;stroke:#FFFFFF;stroke-linecap:round;stroke-linejoin:round;stroke-miterlimit:10;" d="M441.416,328.101
			L441.416,328.101c0.037-1.656,1.411-2.969,3.067-2.932l19.495,0.44c1.657,0.037,2.969,1.41,2.932,3.067
			c-0.037,1.656-1.41,2.969-3.067,2.932l-19.495-0.439C442.692,331.13,441.379,329.756,441.416,328.101z"/>
	</g>
	<g>
		<path style="fill:none;stroke:#FFFFFF;stroke-linecap:round;stroke-linejoin:round;stroke-miterlimit:10;" d="M117.795,439.406
			L117.795,439.406c-0.048-1.655,1.257-3.038,2.912-3.086l19.492-0.563c1.656-0.048,3.038,1.257,3.086,2.912
			c0.048,1.656-1.256,3.038-2.912,3.085l-19.492,0.563C119.225,442.366,117.843,441.062,117.795,439.406z"/>
		<path style="fill:none;stroke:#FFFFFF;stroke-linecap:round;stroke-linejoin:round;stroke-miterlimit:10;" d="M118.142,451.401
			L118.142,451.401c-0.048-1.655,1.257-3.038,2.912-3.085l19.492-0.563c1.656-0.048,3.038,1.257,3.085,2.912
			c0.048,1.656-1.256,3.038-2.912,3.085l-19.492,0.564C119.572,454.361,118.19,453.057,118.142,451.401z"/>
		<path style="fill:none;stroke:#FFFFFF;stroke-linecap:round;stroke-linejoin:round;stroke-miterlimit:10;" d="M118.466,462.6
			L118.466,462.6c-0.048-1.656,1.257-3.038,2.912-3.086l19.492-0.563c1.656-0.048,3.038,1.256,3.086,2.912
			c0.048,1.655-1.256,3.038-2.912,3.086l-19.492,0.563C119.896,465.56,118.514,464.255,118.466,462.6z"/>
	</g>
	<g>
		<path style="fill:none;stroke:#FFFFFF;stroke-linecap:round;stroke-linejoin:round;stroke-miterlimit:10;" d="M403.232,268.236
			l1.133-50.26c0.113-5.032,4.284-9.02,9.316-8.906l26.766,0.603c5.032,0.114,9.02,4.285,8.906,9.317l-1.133,50.26
			c-0.113,5.032-4.285,9.019-9.317,8.905l-26.766-0.603C407.105,277.439,403.118,273.268,403.232,268.236z"/>
		<path style="fill:none;stroke:#FFFFFF;stroke-linecap:round;stroke-linejoin:round;stroke-miterlimit:10;" d="M413.652,225.733
			c8.734,0.126,17.471,0.252,26.205,0.379"/>
		<path style="fill:none;stroke:#FFFFFF;stroke-linecap:round;stroke-linejoin:round;stroke-miterlimit:10;" d="M413.371,238.23
			c8.734,0.126,17.471,0.252,26.205,0.379"/>
		<path style="fill:none;stroke:#FFFFFF;stroke-linecap:round;stroke-linejoin:round;stroke-miterlimit:10;" d="M413.089,250.727
			c8.734,0.126,17.471,0.252,26.205,0.379"/>
		<path style="fill:none;stroke:#FFFFFF;stroke-linecap:round;stroke-linejoin:round;stroke-miterlimit:10;" d="M412.796,263.723
			c8.734,0.126,17.471,0.252,26.205,0.379"/>
	</g>
	<g>
		<path style="fill:none;stroke:#FFFFFF;stroke-linecap:round;stroke-linejoin:round;stroke-miterlimit:10;" d="M98.667,394.632
			l0.773-34.306c0.077-3.435,2.924-6.156,6.359-6.079l18.27,0.412c3.435,0.078,6.157,2.925,6.079,6.359l-0.773,34.306
			c-0.077,3.435-2.925,6.156-6.359,6.078l-18.27-0.412C101.311,400.913,98.59,398.066,98.667,394.632z"/>
		<path style="fill:none;stroke:#FFFFFF;stroke-linecap:round;stroke-linejoin:round;stroke-miterlimit:10;" d="M105.78,365.62
			c5.962,0.086,11.925,0.172,17.886,0.259"/>
		<path style="fill:none;stroke:#FFFFFF;stroke-linecap:round;stroke-linejoin:round;stroke-miterlimit:10;" d="M105.588,374.15
			c5.962,0.086,11.925,0.172,17.887,0.259"/>
		<path style="fill:none;stroke:#FFFFFF;stroke-linecap:round;stroke-linejoin:round;stroke-miterlimit:10;" d="M105.395,382.68
			c5.962,0.086,11.925,0.172,17.887,0.259"/>
		<path style="fill:none;stroke:#FFFFFF;stroke-linecap:round;stroke-linejoin:round;stroke-miterlimit:10;" d="M105.195,391.551
			c5.962,0.086,11.925,0.172,17.887,0.259"/>
	</g>
	<g>
		
			<ellipse transform="matrix(0.8711 -0.4911 0.4911 0.8711 -168.2504 75.1367)" style="fill:none;stroke:#FFFFFF;stroke-linecap:round;stroke-linejoin:round;stroke-miterlimit:10;" cx="59.008" cy="358.081" rx="16" ry="16"/>
		<path style="fill:none;stroke:#FFFFFF;stroke-linecap:round;stroke-linejoin:round;stroke-miterlimit:10;" d="M48.758,357.85
			c0.128-5.661,4.82-10.147,10.481-10.019c5.661,0.128,10.147,4.821,10.019,10.482c-0.128,5.662-4.82,10.148-10.482,10.02
			C53.116,368.205,48.63,363.512,48.758,357.85z"/>
		<path style="fill:#FFFFFF;" d="M54.665,357.983c0.054-2.398,2.042-4.3,4.442-4.246c2.399,0.054,4.299,2.043,4.245,4.442
			c-0.054,2.398-2.042,4.3-4.441,4.246S54.611,360.382,54.665,357.983z"/>
	</g>
	<g>
		
			<ellipse transform="matrix(0.7254 -0.6883 0.6883 0.7254 4.3495 219.915)" style="fill:none;stroke:#FFFFFF;stroke-linecap:round;stroke-linejoin:round;stroke-miterlimit:10;" cx="277.82" cy="104.506" rx="16" ry="16"/>
		<path style="fill:none;stroke:#FFFFFF;stroke-linecap:round;stroke-linejoin:round;stroke-miterlimit:10;" d="M267.57,104.275
			c0.128-5.661,4.82-10.147,10.482-10.019c5.662,0.128,10.147,4.821,10.019,10.481c-0.128,5.661-4.82,10.148-10.481,10.02
			C271.928,114.63,267.442,109.936,267.57,104.275z"/>
		<path style="fill:#FFFFFF;" d="M273.477,104.408c0.054-2.398,2.043-4.3,4.442-4.246c2.399,0.054,4.299,2.043,4.245,4.442
			s-2.041,4.3-4.441,4.246S273.423,106.806,273.477,104.408z"/>
	</g>
	<g>
		<g>
			<path style="opacity:0.09;fill:#17014E;" d="M423.569,260.39c7.773,52.467,9.941,105.765,6.452,158.689
				c-0.509,7.722-6.475,14.002-14.159,14.924c-49.82,5.981-99.817,6.672-149.268,2c-7.842-0.741-14.004-7.081-14.556-14.938
				c-3.679-52.373-3.22-103.915,0.442-153.873c0.57-7.781,6.622-14.053,14.378-14.896c46.166-5.012,92.79-7.197,141.216-5.771
				C415.917,246.757,422.418,252.628,423.569,260.39z"/>
			<path style="fill:#FFFFFF;" d="M420.92,256.847c6.348,52.658,7.07,105.995,2.147,158.806
				c-0.718,7.706-6.852,13.821-14.558,14.535c-49.964,4.628-99.962,3.963-149.268-2.048c-7.82-0.954-13.806-7.458-14.146-15.327
				c-2.257-52.453-0.402-103.965,4.614-153.804c0.781-7.762,7-13.869,14.777-14.501c46.285-3.759,92.951-4.679,141.321-1.94
				C413.641,243.011,419.98,249.057,420.92,256.847z"/>
			<path style="fill:#FFAA08;" d="M414.297,245.601c6.236,54.81,7.467,110.19,3.649,165.221c-0.402,5.789-4.901,10.457-10.67,11.075
				c-51.501,5.516-101.842,5.667-152.975,4.794c1.528,0.727,3.184,1.234,4.941,1.448c49.306,6.011,99.304,6.676,149.268,2.048
				c7.706-0.713,13.84-6.829,14.558-14.534c4.923-52.81,4.201-106.147-2.147-158.806C420.36,252.201,417.87,248.188,414.297,245.601
				z"/>
			<path style="fill:none;stroke:#17014E;stroke-linecap:round;stroke-linejoin:round;stroke-miterlimit:10;" d="M407.275,421.897
				c-45.261,4.848-89.626,5.552-134.42,5.058"/>
			<path style="fill:none;stroke:#17014E;stroke-linecap:round;stroke-linejoin:round;stroke-miterlimit:10;" d="M419.92,366.912
				c-0.303,14.65-0.961,29.293-1.975,43.911c-0.1,1.447-0.457,2.825-1.025,4.086"/>
			<path style="fill:none;stroke:#17014E;stroke-linecap:round;stroke-linejoin:round;stroke-miterlimit:10;" d="M419.852,326.418
				c0.226,9.401,0.305,18.806,0.238,28.21"/>
		</g>
		<g>
			<g>
				
					<rect x="271.083" y="396.527" style="fill:none;stroke:#17014E;stroke-linecap:round;stroke-linejoin:round;stroke-miterlimit:10;" width="14.51" height="14.51"/>
				<path style="fill:#5DC3DE;stroke:#5DC3DE;stroke-linecap:round;stroke-linejoin:round;stroke-miterlimit:10;" d="
					M292.883,393.321c-3.93,4.335-8.117,8.439-12.529,12.283c-2.494-3.755-5.622-11.759-5.622-11.759
					c2.005,1.852,4.308,3.961,6.722,6.242C285.615,397.427,288.466,395.743,292.883,393.321z"/>
			</g>
			<g>
				<path style="fill:#EF5E9C;" d="M299.229,398.475L299.229,398.475c0-1.258,1.021-2.278,2.279-2.277l27.298,0.011
					c1.259,0,2.278,1.021,2.278,2.279c0,1.258-1.02,2.278-2.279,2.278l-27.299-0.011
					C300.249,400.753,299.228,399.732,299.229,398.475z"/>
				
					<line style="fill:none;stroke:#17014E;stroke-linecap:round;stroke-linejoin:round;stroke-miterlimit:10;" x1="300.126" y1="409.865" x2="353.343" y2="409.865"/>
				
					<line style="fill:none;stroke:#17014E;stroke-linecap:round;stroke-linejoin:round;stroke-miterlimit:10;" x1="300.126" y1="404.322" x2="401.332" y2="404.322"/>
			</g>
		</g>
		<g>
			<g>
				
					<rect x="271.083" y="370.585" style="fill:none;stroke:#17014E;stroke-linecap:round;stroke-linejoin:round;stroke-miterlimit:10;" width="14.51" height="14.51"/>
				<path style="fill:#5DC3DE;stroke:#5DC3DE;stroke-linecap:round;stroke-linejoin:round;stroke-miterlimit:10;" d="
					M292.883,367.379c-3.93,4.335-8.117,8.439-12.529,12.283c-2.494-3.755-5.622-11.759-5.622-11.759
					c2.005,1.852,4.308,3.961,6.722,6.242C285.615,371.485,288.466,369.801,292.883,367.379z"/>
			</g>
			<g>
				<path style="fill:#EF5E9C;" d="M299.229,372.533L299.229,372.533c0-1.258,1.021-2.278,2.279-2.278l55.299,0.011
					c1.259,0,2.278,1.021,2.278,2.279c0,1.257-1.02,2.278-2.279,2.277l-55.299-0.011
					C300.249,374.811,299.228,373.79,299.229,372.533z"/>
				
					<line style="fill:none;stroke:#17014E;stroke-linecap:round;stroke-linejoin:round;stroke-miterlimit:10;" x1="300.126" y1="383.923" x2="328.857" y2="383.923"/>
				
					<line style="fill:none;stroke:#17014E;stroke-linecap:round;stroke-linejoin:round;stroke-miterlimit:10;" x1="337.017" y1="383.923" x2="361.748" y2="383.923"/>
				
					<line style="fill:none;stroke:#17014E;stroke-linecap:round;stroke-linejoin:round;stroke-miterlimit:10;" x1="300.126" y1="378.38" x2="401.332" y2="378.38"/>
			</g>
		</g>
		<g>
			<g>
				
					<rect x="271.083" y="344.643" style="fill:none;stroke:#17014E;stroke-linecap:round;stroke-linejoin:round;stroke-miterlimit:10;" width="14.51" height="14.51"/>
				<path style="fill:#5DC3DE;stroke:#5DC3DE;stroke-linecap:round;stroke-linejoin:round;stroke-miterlimit:10;" d="
					M292.883,341.437c-3.93,4.335-8.117,8.439-12.529,12.283c-2.494-3.755-5.622-11.759-5.622-11.759
					c2.005,1.852,4.308,3.961,6.722,6.242C285.615,345.543,288.466,343.859,292.883,341.437z"/>
			</g>
			<g>
				<path style="fill:#EF5E9C;" d="M299.229,346.591L299.229,346.591c0-1.258,1.021-2.278,2.279-2.278l27.298,0.011
					c1.259,0,2.278,1.021,2.278,2.279c0,1.258-1.02,2.278-2.279,2.277l-27.299-0.011
					C300.249,348.869,299.228,347.848,299.229,346.591z"/>
				
					<line style="fill:none;stroke:#17014E;stroke-linecap:round;stroke-linejoin:round;stroke-miterlimit:10;" x1="300.126" y1="357.981" x2="386.217" y2="357.981"/>
				
					<line style="fill:none;stroke:#17014E;stroke-linecap:round;stroke-linejoin:round;stroke-miterlimit:10;" x1="300.126" y1="352.438" x2="401.332" y2="352.438"/>
			</g>
		</g>
		<g>
			<g>
				
					<rect x="271.083" y="318.701" style="fill:none;stroke:#17014E;stroke-linecap:round;stroke-linejoin:round;stroke-miterlimit:10;" width="14.51" height="14.51"/>
				<path style="fill:#5DC3DE;stroke:#5DC3DE;stroke-linecap:round;stroke-linejoin:round;stroke-miterlimit:10;" d="
					M292.883,315.495c-3.93,4.335-8.117,8.439-12.529,12.283c-2.494-3.755-5.622-11.759-5.622-11.759
					c2.005,1.852,4.308,3.961,6.722,6.242C285.615,319.6,288.466,317.917,292.883,315.495z"/>
			</g>
			<g>
				<path style="fill:#EF5E9C;" d="M299.229,320.649L299.229,320.649c0-1.258,1.021-2.278,2.279-2.278l27.298,0.011
					c1.259,0,2.278,1.021,2.278,2.279c0,1.258-1.02,2.278-2.279,2.277l-27.299-0.011
					C300.249,322.927,299.228,321.906,299.229,320.649z"/>
				
					<line style="fill:none;stroke:#17014E;stroke-linecap:round;stroke-linejoin:round;stroke-miterlimit:10;" x1="300.126" y1="332.039" x2="370.278" y2="332.039"/>
				
					<line style="fill:none;stroke:#17014E;stroke-linecap:round;stroke-linejoin:round;stroke-miterlimit:10;" x1="300.126" y1="326.495" x2="401.332" y2="326.495"/>
			</g>
		</g>
		<g>
			<path style="fill:#D6CEFF;" d="M281.768,311.004h108.88c5.901,0,10.685-4.784,10.685-10.685v-30.468
				c0-5.901-4.784-10.685-10.685-10.685h-108.88c-5.901,0-10.685,4.784-10.685,10.685v30.468
				C271.083,306.22,275.867,311.004,281.768,311.004z"/>
			<g>
				<path style="fill:#EF5E9C;" d="M359.82,271.181L359.82,271.181c0-1.257,1.021-2.278,2.279-2.278l27.298,0.011
					c1.259,0,2.278,1.021,2.278,2.279c0,1.258-1.02,2.278-2.279,2.278l-27.298-0.011C360.84,273.46,359.82,272.439,359.82,271.181z"
					/>
				
					<line style="fill:none;stroke:#17014E;stroke-linecap:round;stroke-linejoin:round;stroke-miterlimit:10;" x1="352.359" y1="280.117" x2="391.675" y2="280.117"/>
				
					<line style="fill:none;stroke:#17014E;stroke-linecap:round;stroke-linejoin:round;stroke-miterlimit:10;" x1="352.359" y1="286.085" x2="391.675" y2="286.085"/>
				
					<line style="fill:none;stroke:#17014E;stroke-linecap:round;stroke-linejoin:round;stroke-miterlimit:10;" x1="352.359" y1="292.053" x2="391.675" y2="292.053"/>
				
					<line style="fill:none;stroke:#17014E;stroke-linecap:round;stroke-linejoin:round;stroke-miterlimit:10;" x1="352.359" y1="298.021" x2="391.675" y2="298.021"/>
			</g>
			<g>
				<path style="fill:#FFFFFF;" d="M325.548,302.925h12.987c3.773,0,6.832-3.059,6.832-6.832v-20.015
					c0-3.773-3.059-6.832-6.832-6.832h-12.987c-3.773,0-6.832,3.059-6.832,6.832v20.015
					C318.716,299.866,321.775,302.925,325.548,302.925z"/>
				
					<line style="fill:none;stroke:#17014E;stroke-linecap:round;stroke-linejoin:round;stroke-miterlimit:10;" x1="341.924" y1="272.2" x2="322.091" y2="299.742"/>
				
					<line style="fill:none;stroke:#17014E;stroke-linecap:round;stroke-linejoin:round;stroke-miterlimit:10;" x1="322.091" y1="272.2" x2="341.924" y2="299.742"/>
			</g>
			<g>
				<path style="fill:#FFFFFF;" d="M290.563,302.925h12.987c3.773,0,6.832-3.059,6.832-6.832v-20.015
					c0-3.773-3.059-6.832-6.832-6.832h-12.987c-3.773,0-6.832,3.059-6.832,6.832v20.015
					C283.73,299.866,286.789,302.925,290.563,302.925z"/>
				
					<line style="fill:none;stroke:#17014E;stroke-linecap:round;stroke-linejoin:round;stroke-miterlimit:10;" x1="306.938" y1="272.2" x2="287.105" y2="299.742"/>
				
					<line style="fill:none;stroke:#17014E;stroke-linecap:round;stroke-linejoin:round;stroke-miterlimit:10;" x1="287.105" y1="272.2" x2="306.938" y2="299.742"/>
			</g>
		</g>
	</g>
	<g>
		<g>
			<path style="opacity:0.09;fill:#17014E;" d="M324.013,389.529c-53.957,1.325-109.912-0.954-162.666-5.841
				c-6.439-0.596-11.417-5.928-11.548-12.394c-1.329-64.967-0.12-129.938,4.024-193.889c0.423-6.513,5.735-11.626,12.257-11.868
				c53.207-1.973,106.699-1.632,163.076,1.878c6.562,0.409,11.733,5.748,11.943,12.32c2.078,65.048,2.674,131.17-4.736,198.46
				C335.665,384.528,330.383,389.371,324.013,389.529z"/>
			<path style="fill:#FFFFFF;" d="M321.82,379.069c-53.869,3.355-109.87,3.182-162.771,0.284
				c-6.457-0.354-11.632-5.495-12.007-11.951c-3.773-64.871-5.01-129.842-3.274-193.903c0.177-6.525,5.293-11.834,11.802-12.321
				c53.095-3.974,106.562-5.646,163.031-4.259c6.573,0.162,11.941,5.303,12.398,11.861c4.524,64.924,7.608,130.977,2.736,198.498
				C333.276,373.634,328.18,378.672,321.82,379.069z"/>
			<path style="fill:#FFAA08;" d="M319.254,370.211c-57.804,5.787-114.539,5.248-171.072,1.759
				c1.922,4.172,6.035,7.118,10.867,7.383c52.901,2.898,108.901,3.07,162.771-0.284c6.36-0.397,11.455-5.435,11.915-11.79
				c4.872-67.521,1.788-133.574-2.736-198.498c-0.356-5.118-3.709-9.36-8.285-11.059c5.471,67.395,7.38,135.078,5.697,202.674
				C328.284,365.505,324.342,369.702,319.254,370.211z"/>
			<path style="fill:none;stroke:#17014E;stroke-linecap:round;stroke-linejoin:round;stroke-miterlimit:10;" d="M309.976,371.087
				c-47.326,4.199-93.964,4.263-140.392,2.056"/>
			<path style="fill:none;stroke:#17014E;stroke-linecap:round;stroke-linejoin:round;stroke-miterlimit:10;" d="M322.65,369.261
				c-1.043,0.5-2.187,0.829-3.396,0.95c-1.495,0.15-2.988,0.295-4.482,0.436"/>
			<path style="fill:none;stroke:#17014E;stroke-linecap:round;stroke-linejoin:round;stroke-miterlimit:10;" d="M328.833,287.334
				c0.262,19.636,0.221,39.276-0.122,58.91"/>
			<path style="fill:none;stroke:#17014E;stroke-linecap:round;stroke-linejoin:round;stroke-miterlimit:10;" d="M326.831,221.649
				c0.917,19.243,1.544,38.499,1.88,57.761"/>
		</g>
		<g>
			<g>
				<path style="fill:#17014E;" d="M214.482,265c-4.09-8.351-3.748-18.723,0.881-26.788c4.63-8.065,13.414-13.589,22.687-14.27
					c9.275-0.68,18.77,3.504,25.282,10.933c-2.282-9.457-10.548-17.043-20.069-19.036c-9.52-1.994-19.869,1.437-26.717,8.346
					c-5.7,5.75-9.025,13.718-9.41,21.805C206.751,254.076,209.249,262.223,214.482,265z"/>
				<path style="fill:#FFFFFF;" d="M264.827,191.051c-24.97-12.114-55.709-5.345-73.464,13.881
					c-17.756,19.227-21.469,50.068-8.786,72.96c12.683,22.891,40.801,36.096,66.517,31.237
					c25.715-4.859,47.077-27.413,50.532-53.354C303.083,229.833,288.372,202.473,264.827,191.051z M265.593,251.259
					c-1.559,11.705-11.198,21.881-22.8,24.073c-11.602,2.192-24.288-3.765-30.011-14.094c-5.723-10.329-4.048-24.244,3.963-32.919
					c8.012-8.675,21.88-11.728,33.147-6.262C260.515,227.21,267.153,239.554,265.593,251.259z"/>
				<path style="fill:#EF5E9C;" d="M265.409,252.299l33.861,5.771c0.134-0.763,0.254-1.528,0.357-2.297
					c3.457-25.941-11.254-53.3-34.8-64.723c-6.828-3.312-14.087-5.203-21.394-5.824l-3.2,34.218c3.299,0.279,6.577,1.116,9.66,2.611
					c10.624,5.154,17.261,17.497,15.702,29.202C265.547,251.609,265.47,251.952,265.409,252.299z"/>
				<path style="fill:#FFAA08;" d="M210.496,239.716c1.172-4.221,3.271-8.172,6.249-11.397c5.82-6.301,14.729-9.615,23.487-8.873
					l3.2-34.218c-19.416-1.648-39.169,5.736-52.069,19.704c-6.598,7.144-11.252,15.893-13.851,25.24L210.496,239.716z"/>
				<path style="fill:#7F7AFF;" d="M212.782,261.238c-3.595-6.488-4.267-14.391-2.286-21.522l-32.984-9.545
					c-4.396,15.809-2.905,33.334,5.065,47.72c4.06,7.328,9.708,13.657,16.346,18.725l21.236-26.933
					C217.165,267.396,214.614,264.544,212.782,261.238z"/>
				<path style="fill:#34A5D1;" d="M249.094,309.128c9.993-1.888,19.322-6.457,27.205-12.851l-21.244-26.745
					c-3.555,2.882-7.757,4.948-12.263,5.799c-7.888,1.49-16.272-0.794-22.633-5.65l-21.236,26.933
					C213.022,307.378,231.611,312.431,249.094,309.128z"/>
				<path style="fill:#17014E;" d="M293.182,219.581c5.358,16.244,5.068,34.373-1.973,49.92
					c-8.991,19.853-29.332,34.516-51.116,35.16c-13.356,0.395-26.643-4.26-37.464-12.098c-13.617-9.862-23.292-24.885-27.429-40.602
					c0.546,9.056,2.968,17.973,7.377,25.93c12.683,22.891,40.801,36.096,66.517,31.237c25.715-4.859,47.077-27.413,50.532-53.354
					C301.275,243.403,298.784,230.714,293.182,219.581z"/>
				<path style="fill:none;stroke:#17014E;stroke-linecap:round;stroke-linejoin:round;stroke-miterlimit:10;" d="M213.428,189.816
					c-8.376,3.404-15.983,8.529-22.065,15.115c-7.738,8.379-12.809,18.964-15.018,30.136 M272.083,195.252
					c-2.31-1.569-4.732-2.977-7.256-4.202c-13.76-6.675-29.272-7.617-43.398-3.899 M287.457,210.197
					c-2.817-3.852-6.048-7.393-9.637-10.519"/>
			</g>
			<g>
				<path style="fill:#17014E;" d="M221.431,250.923c0.133,8.495,7.195,16.339,15.63,17.361c8.435,1.02,17.164-4.91,19.321-13.129
					c2.156-8.219-2.535-17.672-10.385-20.924L221.431,250.923z"/>
				<path style="fill:#3A257A;" d="M244.854,232.516c6.265,3.039,10.178,10.318,9.259,17.22c-0.92,6.902-6.604,12.902-13.445,14.195
					c-6.842,1.292-14.323-2.221-17.697-8.311c-3.375-6.091-2.386-14.296,2.337-19.411
					C230.032,231.093,238.211,229.293,244.854,232.516z"/>
			</g>
		</g>
		<g>
			<g>
				<path style="opacity:0.09;fill:#17014E;" d="M161.328,357.249l-0.066-19.897c-0.011-3.342,2.689-6.061,6.031-6.072l88.397-0.295
					c3.342-0.011,6.06,2.69,6.071,6.032l0.066,19.897c0.011,3.342-2.689,6.06-6.031,6.071L167.4,363.28
					C164.058,363.291,161.34,360.591,161.328,357.249z"/>
				<path style="fill:#FFFFFF;" d="M159.184,355.538l-0.272-19.895c-0.046-3.342,2.626-6.089,5.967-6.134l88.39-1.21
					c3.342-0.046,6.088,2.627,6.133,5.969l0.272,19.895c0.046,3.342-2.626,6.088-5.968,6.133l-88.39,1.21
					C161.975,361.551,159.229,358.879,159.184,355.538z"/>
				<path style="fill:#FFAA08;" d="M165.317,361.505l88.39-1.21c3.342-0.046,6.013-2.792,5.968-6.133l-0.036-2.653
					c-1.128,1.616-2.851,2.854-4.706,3.589c-2.642,1.046-5.534,1.244-8.37,1.417c-24.452,1.486-48.966,1.941-73.455,1.362
					c-2.887-0.068-5.804-0.155-8.597-0.89c-1.927-0.506-3.8-1.364-5.341-2.607l0.016,1.159
					C159.23,358.879,161.975,361.551,165.317,361.505z"/>
				<path style="fill:none;stroke:#17014E;stroke-linecap:round;stroke-linejoin:round;stroke-miterlimit:10;" d="M246.561,356.513
					c-24.452,1.486-48.966,1.941-73.455,1.362c-2.887-0.068-5.804-0.155-8.597-0.89c-0.76-0.2-1.512-0.454-2.238-0.765"/>
				
					<line style="fill:none;stroke:#17014E;stroke-linecap:round;stroke-linejoin:round;stroke-miterlimit:10;" x1="182.683" y1="329.264" x2="253.269" y2="328.298"/>
				<path style="fill:none;stroke:#17014E;stroke-linecap:round;stroke-linejoin:round;stroke-miterlimit:10;" d="M159.127,351.394
					l-0.216-15.752c-0.046-3.342,2.626-6.089,5.967-6.134l11.815-0.162"/>
			</g>
			<g>
				
					<rect x="169.695" y="336.244" transform="matrix(0.9999 -0.0137 0.0137 0.9999 -4.6923 2.3857)" style="fill:#EF5E9C;" width="4.878" height="16.246"/>
				
					<rect x="184.397" y="345.791" transform="matrix(0.9999 -0.0137 0.0137 0.9999 -4.7618 2.591)" style="fill:#EF5E9C;" width="4.878" height="6.498"/>
				
					<rect x="197.892" y="348.855" transform="matrix(0.9999 -0.0137 0.0137 0.9999 -4.7803 2.776)" style="fill:#EF5E9C;" width="4.878" height="3.249"/>
				
					<rect x="211.581" y="342.169" transform="matrix(0.9999 -0.0137 0.0137 0.9999 -4.7319 2.9631)" style="fill:#EF5E9C;" width="4.878" height="9.748"/>
				
					<rect x="225.328" y="335.482" transform="matrix(0.9999 -0.0137 0.0137 0.9999 -4.6836 3.151)" style="fill:#EF5E9C;" width="4.878" height="16.246"/>
				
					<rect x="239.09" y="337.15" transform="matrix(0.9999 -0.0137 0.0137 0.9999 -4.6924 3.3395)" style="fill:#EF5E9C;" width="4.878" height="14.389"/>
				
					<rect x="174.573" y="336.177" transform="matrix(0.9999 -0.0137 0.0137 0.9999 -4.6979 2.4561)" style="fill:#34A5D1;" width="4.878" height="16.246"/>
				
					<rect x="189.275" y="345.724" transform="matrix(0.9999 -0.0137 0.0137 0.9999 -4.7606 2.6579)" style="fill:#34A5D1;" width="4.878" height="6.498"/>
				
					<rect x="202.77" y="348.788" transform="matrix(0.9999 -0.0137 0.0137 0.9999 -4.7789 2.8427)" style="fill:#34A5D1;" width="4.878" height="3.249"/>
				
					<rect x="216.459" y="342.102" transform="matrix(0.9999 -0.0137 0.0137 0.9999 -4.7307 3.0299)" style="fill:#34A5D1;" width="4.878" height="9.748"/>
				
					<rect x="230.206" y="335.415" transform="matrix(0.9999 -0.0137 0.0137 0.9999 -4.6822 3.2178)" style="fill:#34A5D1;" width="4.878" height="16.246"/>
				
					<rect x="243.968" y="337.084" transform="matrix(0.9999 -0.0137 0.0137 0.9999 -4.6911 3.4063)" style="fill:#34A5D1;" width="4.878" height="14.389"/>
				
					<line style="fill:none;stroke:#17014E;stroke-linecap:round;stroke-linejoin:round;stroke-miterlimit:10;" x1="166.517" y1="352.568" x2="252.191" y2="351.394"/>
			</g>
		</g>
		<g>
			<g>
				<path style="opacity:0.09;fill:#17014E;" d="M278.067,354.656l-0.687-19.885c-0.115-3.34,2.499-6.142,5.839-6.257l24.383-0.842
					c3.34-0.115,6.141,2.5,6.256,5.84l0.687,19.885c0.115,3.34-2.499,6.141-5.839,6.256l-24.382,0.842
					C280.984,360.61,278.182,357.996,278.067,354.656z"/>
				<path style="fill:#FFFFFF;" d="M275.478,352.116l-0.163-19.896c-0.027-3.342,2.66-6.074,6.002-6.101l24.396-0.2
					c3.342-0.027,6.073,2.66,6.1,6.002l0.163,19.896c0.027,3.342-2.659,6.073-6.001,6.1l-24.396,0.199
					C278.237,358.145,275.505,355.458,275.478,352.116z"/>
				<path style="fill:#FFAA08;" d="M311.977,351.818l-0.005-0.591c-2.842,2.123-6.878,2.673-10.555,2.85
					c-5.835,0.28-11.689,0.145-17.505-0.405c-2.932-0.278-6.074-0.801-8.442-2.41l0.007,0.855c0.027,3.342,2.759,6.029,6.101,6.001
					l24.396-0.2C309.317,357.891,312.004,355.16,311.977,351.818z"/>
				<path style="fill:none;stroke:#17014E;stroke-linecap:round;stroke-linejoin:round;stroke-miterlimit:10;" d="M301.417,354.077
					c-5.835,0.28-11.689,0.145-17.505-0.405c-2.199-0.208-4.516-0.555-6.536-1.394"/>
				<path style="fill:none;stroke:#17014E;stroke-linecap:round;stroke-linejoin:round;stroke-miterlimit:10;" d="M275.321,332.958
					l-0.006-0.738c-0.027-3.342,2.66-6.074,6.002-6.101l24.396-0.2"/>
				
					<line style="fill:none;stroke:#17014E;stroke-linecap:round;stroke-linejoin:round;stroke-miterlimit:10;" x1="275.452" y1="348.976" x2="275.352" y2="336.782"/>
			</g>
			<g>
				<path style="fill:none;stroke:#17014E;stroke-linecap:round;stroke-linejoin:round;stroke-miterlimit:10;" d="M284.928,333.84
					c0.204,4.598,0.189,9.205,0.132,14.103c5.79,0.106,11.583,0.059,17.599-0.07c-0.194-4.604-0.39-9.205-0.937-13.675
					c-2.752,2.523-5.503,5.045-8.254,7.569"/>
				<path style="fill:#17014E;stroke:#17014E;stroke-linecap:round;stroke-linejoin:round;stroke-miterlimit:10;" d="
					M286.862,331.73c-1.056-0.903-2.833-0.774-3.747,0.272c-0.915,1.046-0.806,2.823,0.229,3.751
					c1.035,0.925,2.815,0.838,3.753-0.188C288.034,334.541,288.012,332.711,286.862,331.73z"/>
				<path style="fill:#FFFFFF;stroke:#17014E;stroke-linecap:round;stroke-linejoin:round;stroke-miterlimit:10;" d="
					M286.556,345.341c-1.056-0.902-2.833-0.773-3.747,0.272c-0.915,1.046-0.806,2.825,0.228,3.751
					c1.035,0.926,2.815,0.838,3.753-0.186C287.727,348.152,287.705,346.323,286.556,345.341z"/>
				<path style="fill:#17014E;stroke:#17014E;stroke-linecap:round;stroke-linejoin:round;stroke-miterlimit:10;" d="
					M303.801,345.73c-1.056-0.902-2.833-0.773-3.747,0.272c-0.915,1.046-0.806,2.825,0.229,3.751
					c1.035,0.926,2.815,0.838,3.753-0.186C304.973,348.541,304.95,346.712,303.801,345.73z"/>
				<path style="fill:#17014E;stroke:#17014E;stroke-linecap:round;stroke-linejoin:round;stroke-miterlimit:10;" d="
					M304.108,332.118c-1.056-0.903-2.833-0.774-3.747,0.272c-0.915,1.046-0.806,2.823,0.228,3.751
					c1.035,0.926,2.815,0.838,3.753-0.188C305.28,334.93,305.257,333.1,304.108,332.118z"/>
				<path style="fill:#FFFFFF;stroke:#17014E;stroke-linecap:round;stroke-linejoin:round;stroke-miterlimit:10;" d="
					M295.174,339.419c-1.056-0.903-2.833-0.774-3.747,0.272c-0.915,1.046-0.806,2.824,0.229,3.751
					c1.035,0.925,2.815,0.838,3.752-0.188C296.346,342.23,296.322,340.4,295.174,339.419z"/>
			</g>
		</g>
		<g>
			
				<line style="fill:#17014E;stroke:#17014E;stroke-linecap:round;stroke-linejoin:round;stroke-miterlimit:10;" x1="286.37" y1="303.903" x2="302.068" y2="303.903"/>
			
				<line style="fill:#17014E;stroke:#17014E;stroke-linecap:round;stroke-linejoin:round;stroke-miterlimit:10;" x1="286.37" y1="308.497" x2="302.068" y2="308.497"/>
			
				<line style="fill:#17014E;stroke:#17014E;stroke-linecap:round;stroke-linejoin:round;stroke-miterlimit:10;" x1="286.37" y1="313.091" x2="295.962" y2="313.091"/>
		</g>
		<g>
			
				<line style="fill:none;stroke:#17014E;stroke-linecap:round;stroke-linejoin:round;stroke-miterlimit:10;" x1="165.969" y1="177.954" x2="197.62" y2="177.954"/>
			
				<line style="fill:none;stroke:#17014E;stroke-linecap:round;stroke-linejoin:round;stroke-miterlimit:10;" x1="165.969" y1="182.548" x2="197.62" y2="182.548"/>
			
				<line style="fill:none;stroke:#17014E;stroke-linecap:round;stroke-linejoin:round;stroke-miterlimit:10;" x1="165.969" y1="187.141" x2="185.31" y2="187.141"/>
		</g>
		<g>
			
				<line style="fill:none;stroke:#17014E;stroke-linecap:round;stroke-linejoin:round;stroke-miterlimit:10;" x1="280.25" y1="177.954" x2="304.704" y2="177.954"/>
			
				<line style="fill:none;stroke:#17014E;stroke-linecap:round;stroke-linejoin:round;stroke-miterlimit:10;" x1="280.25" y1="182.548" x2="304.704" y2="182.548"/>
		</g>
	</g>
	<g>
		<g>
			<g>
				<path style="opacity:0.09;fill:#17014E;" d="M180.635,447.349c-26.178,1.452-52.4,2.102-78.618,1.947
					c-4.54-0.027-8.332-3.468-8.852-7.979c-1.447-12.547-1.514-24.873-0.488-36.203c0.387-4.27,3.776-7.645,8.041-8.084
					c26.281-2.711,52.704-3.637,78.651-2.079c4.273,0.256,7.808,3.489,8.36,7.734c1.555,11.967,2.071,24.071,1.354,36.173
					C188.813,443.422,185.201,447.095,180.635,447.349z"/>
				<path style="fill:#FFFFFF;" d="M178.429,444.97c-26.207,0.772-52.437,0.742-78.642-0.092c-4.538-0.144-8.239-3.683-8.642-8.206
					c-1.121-12.581-0.869-24.904,0.451-36.204c0.497-4.259,3.973-7.544,8.248-7.873c26.342-2.029,52.781-2.269,78.679-0.04
					c4.265,0.366,7.715,3.69,8.157,7.948c1.245,12.003,1.447,24.117,0.416,36.196C186.706,441.257,183,444.835,178.429,444.97z"/>
				<path style="fill:#FFAA08;" d="M181.97,393.577c1.656,13.33,2.06,26.451,1.429,39.482c-0.163,3.356-2.824,6.07-6.177,6.278
					c-28.794,1.793-57.08,1.871-85.257,0.36c1.397,2.986,4.364,5.071,7.823,5.181c26.205,0.834,52.435,0.864,78.642,0.091
					c4.571-0.135,8.277-3.713,8.667-8.271c1.031-12.079,0.828-24.193-0.416-36.196C186.366,397.48,184.531,394.934,181.97,393.577z"
					/>
				<path style="fill:none;stroke:#17014E;stroke-linecap:round;stroke-linejoin:round;stroke-miterlimit:10;" d="M152.392,440.465
					c-18.875,0.538-37.578,0.341-56.224-0.554"/>
				<path style="fill:none;stroke:#17014E;stroke-linecap:round;stroke-linejoin:round;stroke-miterlimit:10;" d="M176.526,439.381
					c-5.848,0.359-11.676,0.647-17.486,0.865"/>
			</g>
			<g>
				<path style="fill:#E3DEFF;" d="M171.827,432.756c-22.556,1.871-45.267,1.863-67.821-0.024c-2.396-0.201-4.286-2.139-4.46-4.538
					c-0.635-8.725-0.688-16.795-0.048-24.534c0.209-2.522,2.332-4.455,4.863-4.464c22.343-0.075,44.679-0.088,66.913,0.927
					c2.452,0.111,4.441,2.036,4.655,4.481c0.67,7.655,0.749,15.419,0.367,23.485C176.18,430.542,174.273,432.554,171.827,432.756z"
					/>
				<path style="fill:#C8BDFF;" d="M176.499,420.383c-0.023,2.545-0.079,5.106-0.202,7.707c-0.116,2.452-2.023,4.464-4.469,4.667
					c-3.945,0.327-7.896,0.576-11.85,0.788c2.118-4.612,4.684-9.02,7.681-13.116C167.658,420.429,172.854,420.419,176.499,420.383z
					 M113.773,406.912c0,0-0.874-4.633-1.563-7.738c-2.616,0.005-5.232,0.013-7.849,0.022c-2.53,0.009-4.653,1.942-4.863,4.464
					c-0.186,2.251-0.307,4.535-0.378,6.85C104.005,409.311,108.889,408.111,113.773,406.912z M139.876,434.134
					c-4.538-4.893-9.075-9.785-13.612-14.678c-1.356,0.249-7.352,3.243-7.352,3.243c2.109,4.14,4.85,7.956,8.09,11.287
					C131.293,434.102,135.584,434.153,139.876,434.134z M122.235,433.836c-1.919-3.384-8.233-12.178-8.233-12.178
					c-4.269,3.281-8.539,6.564-12.808,9.846c0.764,0.681,1.73,1.138,2.811,1.229C110.073,433.24,116.152,433.6,122.235,433.836z
					 M135.194,411.4c0,0,20.029,11.17,20.648,10.795c5.773-5.852,8.975-14.13,8.748-22.34c-7.564-0.278-15.138-0.449-22.719-0.55
					C139.645,403.337,137.42,407.368,135.194,411.4z"/>
				<g>
					<defs>
						<path id="SVGID_1_" d="M171.827,432.756c-22.556,1.871-45.267,1.863-67.821-0.024c-2.396-0.201-4.286-2.139-4.46-4.538
							c-0.635-8.725-0.688-16.795-0.048-24.534c0.209-2.522,2.332-4.455,4.863-4.464c22.343-0.075,44.679-0.088,66.913,0.927
							c2.452,0.111,4.441,2.036,4.655,4.481c0.67,7.655,0.749,15.419,0.367,23.485C176.18,430.542,174.273,432.554,171.827,432.756z
							"/>
					</defs>
					<clipPath id="SVGID_00000005981884046260631240000001733258973756193443_">
						<use xlink:href="#SVGID_1_"  style="overflow:visible;"/>
					</clipPath>
					<g style="clip-path:url(#SVGID_00000005981884046260631240000001733258973756193443_);">
						<path style="fill:none;stroke:#17014E;stroke-linecap:round;stroke-linejoin:round;stroke-miterlimit:10;" d="
							M152.324,435.059c4.171-6.34,8.342-12.679,12.513-19.02l13.976,0.342"/>
						<g>
							<path style="fill:none;stroke:#17014E;stroke-linecap:round;stroke-linejoin:round;stroke-miterlimit:10;" d="
								M96.639,419.026c9.737-1.342,19.474-2.683,29.523-4.139l7.411-19.085"/>
							<path style="fill:none;stroke:#17014E;stroke-linecap:round;stroke-linejoin:round;stroke-miterlimit:10;" d="
								M126.153,414.748c8.149,6.859,16.3,13.719,24.449,20.578"/>
							<path style="fill:none;stroke:#17014E;stroke-linecap:round;stroke-linejoin:round;stroke-miterlimit:10;" d="
								M119.84,404.132c3.509,0.972,5.972,1.653,9.48,2.624"/>
						</g>
					</g>
				</g>
			</g>
		</g>
		<g>
			<path style="opacity:0.09;fill:#17014E;" d="M144.901,333.738c-0.233-0.016-0.466-0.031-0.699-0.047
				c-17.746-1.167-31.171,15.728-26.496,32.887c3.569,13.095,8.52,25.723,14.81,37.871c2.178,4.206,7.995,4.716,10.928,0.997
				c8.191-10.388,15.57-21.415,22.055-32.947C174.837,355.893,163.904,335.086,144.901,333.738z M155.184,362.146
				c-1.595,4.839-6.473,8.396-11.568,8.436c-5.094,0.038-10.027-3.445-11.694-8.259c-1.667-4.815,0.053-10.602,4.079-13.723
				c4.027-3.12,10.246-3.606,14.896-0.113C154.97,351.547,156.778,357.307,155.184,362.146z"/>
			<path style="fill:#17014E;" d="M127.17,365.802c-1.24-5.662,1.259-11.959,6.044-15.23c4.785-3.272,11.56-3.315,16.731,0.489
				c-2.353-4.777-7.635-7.953-12.957-7.794c-5.324,0.158-10.405,3.644-12.47,8.553C122.455,356.729,123.516,362.799,127.17,365.802z
				"/>
			<path style="fill:#EF5E9C;" d="M138.303,333.927c-0.233,0.005-0.467,0.01-0.701,0.015c-17.779,0.422-29.641,18.45-23.453,35.122
				c4.724,12.724,10.783,24.859,18.133,36.397c2.545,3.994,8.384,3.983,10.973,0.017c7.23-11.078,13.596-22.72,19.024-34.785
				C170.099,353.319,157.351,333.571,138.303,333.927z M151.082,361.302c-1.156,4.962-5.697,8.941-10.768,9.436
				c-5.07,0.493-10.295-2.536-12.385-7.182c-2.091-4.646-0.894-10.564,2.837-14.033c3.732-3.468,9.883-4.506,14.826-1.443
				C149.923,350.764,152.239,356.34,151.082,361.302z"/>
		</g>
	</g>
	<g>
		<g>
			<path style="opacity:0.09;fill:#17014E;" d="M179.474,321.924c-44.289,1.352-88.64,0.671-132.867-2.042
				c-5.577-0.343-10.047-4.799-10.294-10.381c-0.891-20.089-0.286-39.767,2.236-58.83c0.693-5.241,4.987-9.256,10.267-9.549
				c43.08-2.385,88.821-2.837,133.222,1.003c5.21,0.451,9.412,4.516,9.95,9.717c2.042,19.753,0.284,40.419-2.01,60.378
				C189.36,317.61,184.898,321.758,179.474,321.924z"/>
			<path style="fill:#FFFFFF;" d="M177.895,317.736c-44.256,2.192-88.611,2.352-132.882,0.478
				c-5.582-0.237-10.136-4.608-10.489-10.184c-1.272-20.069-1.04-39.755,1.12-58.862c0.594-5.253,4.811-9.349,10.084-9.742
				c43.027-3.202,88.751-4.521,133.217-1.524c5.217,0.352,9.496,4.337,10.133,9.527c2.416,19.711,1.051,40.406-0.865,60.405
				C187.697,313.236,183.314,317.467,177.895,317.736z"/>
			<path style="fill:#FFAA08;" d="M189.078,247.429c-0.443-3.611-2.652-6.636-5.712-8.262c1.379,21.387,1.711,42.843,0.967,64.263
				c-0.163,4.702-3.86,8.505-8.554,8.825c-42.873,2.927-84.404,2.804-125.753,0.004c-5.312-0.36-11.201-1.111-15.468-3.922
				c0.5,5.427,4.977,9.644,10.455,9.876c44.27,1.874,88.626,1.714,132.882-0.478c5.419-0.269,9.802-4.5,10.319-9.902
				C190.129,287.835,191.495,267.14,189.078,247.429z"/>
			<path style="fill:none;stroke:#17014E;stroke-linecap:round;stroke-linejoin:round;stroke-miterlimit:10;" d="M119.84,314.38
				c-23.464,0.176-46.667-0.553-69.814-2.12c-2.962-0.201-6.103-0.523-9.042-1.256"/>
			<path style="fill:none;stroke:#17014E;stroke-linecap:round;stroke-linejoin:round;stroke-miterlimit:10;" d="M184.438,300.204
				c-0.032,1.075-0.067,2.15-0.104,3.225c-0.163,4.702-3.86,8.505-8.554,8.825c-11.596,0.792-23.094,1.36-34.516,1.713"/>
		</g>
		<path style="fill:#EF5E9C;" d="M52.92,302.536L52.92,302.536c0-1.104,0.897-2,2.001-1.999l34.5,0.009c1.105,0,2,0.897,1.999,2
			c0,1.104-0.896,2-2.001,2l-34.5-0.009C53.815,304.536,52.92,303.64,52.92,302.536z"/>
		<path style="fill:#EF5E9C;" d="M97.92,302.548L97.92,302.548c0-1.104,0.896-2,2.001-1.999l67.965,0.018c1.104,0,2,0.897,1.999,2
			c0,1.104-0.896,2-2.001,2l-67.965-0.018C98.815,304.548,97.92,303.652,97.92,302.548z"/>
		<g>
			<path style="fill:#7F7AFF;" d="M168.665,259.818l1.223,31.529L52.65,292.311v-18.47c3.501,1.304,8.531-0.226,11.357-2.668
				c2.826-2.443,4.863-5.657,7.397-8.4c2.535-2.744,5.889-5.125,9.624-5.05c6.168,0.126,11.185,6.804,17.262,5.74
				c5.415-0.949,8.064-7.467,13.134-9.592c4.596-1.926,9.961,0.307,13.708,3.589c3.748,3.282,6.522,7.558,10.263,10.847
				c3.742,3.289,9.093,5.541,13.7,3.643c3.174-1.309,5.289-4.268,7.617-6.792C159.041,262.632,162.527,260.299,168.665,259.818z"/>
			<path style="fill:none;stroke:#17014E;stroke-linecap:round;stroke-linejoin:round;stroke-miterlimit:10;" d="M54.053,253.402
				c-1.015-0.627-2.489-0.373-3.213,0.575c-0.724,0.948-0.568,2.46,0.352,3.22c0.921,0.759,2.457,0.613,3.196-0.324
				C55.127,255.937,55.154,254.084,54.053,253.402z"/>
			<path style="fill:none;stroke:#17014E;stroke-linecap:round;stroke-linejoin:round;stroke-miterlimit:10;" d="M169.645,246.96
				c-1.015-0.627-2.489-0.373-3.213,0.575c-0.724,0.949-0.568,2.461,0.352,3.22c0.921,0.759,2.458,0.613,3.196-0.324
				C170.719,249.494,170.747,247.641,169.645,246.96z"/>
			<polyline style="fill:none;stroke:#17014E;stroke-linecap:round;stroke-linejoin:round;stroke-miterlimit:10;" points="
				52.65,257.673 52.65,292.311 169.887,291.347 168.332,251.236 			"/>
		</g>
	</g>
	<g>
		<g>
			<path style="opacity:0.09;fill:#17014E;" d="M162.137,194.184c-23.601,1.586-47.318,1.427-70.895-0.474
				c-5.713-0.461-10.287-5-10.753-10.713c-1.635-20.006-1.6-39.759,0.131-58.912c0.517-5.732,5.036-10.257,10.77-10.761
				c24.587-2.163,49.328-1.714,73.168,1.87c5.359,0.806,9.409,5.245,9.894,10.642c1.718,19.116,1.235,38.504-1.445,58.124
				C172.249,189.515,167.728,193.809,162.137,194.184z"/>
			<path style="fill:#FFFFFF;" d="M160.804,189.649c-23.517,2.54-47.221,3.342-70.856,2.396
				c-5.727-0.229-10.481-4.579-11.178-10.269c-2.444-19.923-3.208-39.661-2.254-58.869c0.285-5.748,4.617-10.453,10.326-11.188
				c24.479-3.156,49.218-3.71,73.184-1.093c5.387,0.589,9.614,4.86,10.317,10.233c2.491,19.031,2.793,38.423,0.909,58.135
				C170.718,184.574,166.375,189.048,160.804,189.649z"/>
			<path style="fill:#FFAA08;" d="M170.343,120.861c-0.534-4.08-3.102-7.52-6.664-9.2c3.434,21.02,4.796,42.378,4.007,63.661
				c-0.157,4.224-3.389,7.693-7.587,8.19c-27.139,3.22-53.849,4.073-80.001,2.399c1.926,3.544,5.619,5.964,9.849,6.134
				c23.635,0.945,47.339,0.143,70.856-2.397c5.571-0.602,9.914-5.075,10.448-10.653
				C173.135,159.283,172.833,139.892,170.343,120.861z"/>
			<path style="fill:none;stroke:#17014E;stroke-linecap:round;stroke-linejoin:round;stroke-miterlimit:10;" d="M154.797,184.112
				c-23.475,2.523-46.621,3.26-69.354,2.106"/>
			<path style="fill:none;stroke:#17014E;stroke-linecap:round;stroke-linejoin:round;stroke-miterlimit:10;" d="M167.836,170.117
				c-0.036,1.735-0.086,3.471-0.15,5.205c-0.116,3.116-1.905,5.82-4.521,7.225"/>
		</g>
		<g>
			<path style="fill:#EF5E9C;" d="M140.266,149.809l-0.383-5.852l3.11-2.078c0.707-0.472,0.975-1.369,0.678-2.166
				c-0.564-1.508-1.273-2.94-2.111-4.282c-0.45-0.72-1.325-1.051-2.129-0.778l-3.542,1.202l-4.409-3.867l0.73-3.669
				c0.166-0.833-0.276-1.658-1.049-2.01c-1.439-0.656-2.952-1.172-4.521-1.534c-0.828-0.191-1.683,0.192-2.059,0.954l-1.654,3.354
				l-5.852,0.383l-2.078-3.11c-0.472-0.707-1.37-0.975-2.166-0.678c-1.508,0.563-2.94,1.272-4.282,2.111
				c-0.72,0.45-1.051,1.325-0.778,2.129l1.202,3.542l-3.867,4.409l-3.669-0.73c-0.833-0.166-1.658,0.277-2.01,1.049
				c-0.656,1.439-1.172,2.952-1.534,4.521c-0.191,0.828,0.192,1.683,0.954,2.059l3.354,1.654l0.383,5.852l-3.11,2.078
				c-0.707,0.472-0.975,1.369-0.678,2.166c0.563,1.508,1.272,2.941,2.111,4.282c0.45,0.72,1.325,1.051,2.129,0.778l3.542-1.202
				l4.409,3.867l-0.73,3.669c-0.166,0.833,0.276,1.658,1.049,2.01c1.439,0.656,2.952,1.172,4.521,1.534
				c0.828,0.191,1.683-0.192,2.059-0.954l1.655-3.355l5.851-0.383l2.078,3.11c0.472,0.707,1.369,0.975,2.166,0.678
				c1.508-0.564,2.941-1.273,4.282-2.111c0.72-0.45,1.051-1.325,0.778-2.129l-1.202-3.542l3.867-4.409l3.669,0.73
				c0.833,0.166,1.658-0.276,2.01-1.049c0.656-1.439,1.172-2.952,1.534-4.521c0.191-0.828-0.192-1.683-0.954-2.059L140.266,149.809z
				 M121.988,159.619c-6.352,0.416-11.839-4.396-12.255-10.748c-0.416-6.352,4.396-11.839,10.748-12.255
				c6.352-0.416,11.839,4.396,12.255,10.748C133.152,153.716,128.34,159.203,121.988,159.619z"/>
			<path style="fill:#EF5E9C;" d="M121.67,154.765c-3.672,0.24-6.843-2.541-7.084-6.213c-0.241-3.672,2.541-6.843,6.213-7.083
				c3.672-0.241,6.843,2.541,7.084,6.213C128.123,151.354,125.342,154.525,121.67,154.765z"/>
		</g>
	</g>
	<g>
		<g>
			<path style="opacity:0.09;fill:#17014E;" d="M448.538,219.883c-40.944,2.21-82.009,1.084-122.831-3.371
				c-4.945-0.539-8.929-5.228-9.486-11.265c-3.083-33.331-3.492-66.614-1.773-99.636c0.322-6.161,4.211-11.159,9.223-11.874
				c42.107-6.005,84.742-6.734,127.34-2.732c5.31,0.499,9.465,5.82,9.639,12.334c0.937,35.018,0.342,70.081-2.132,104.873
				C458.061,214.616,453.787,219.601,448.538,219.883z"/>
			<path style="fill:#FFFFFF;" d="M444.646,214.503c-40.896,3.286-81.971,3.239-122.862-0.141
				c-4.953-0.409-9.019-4.992-9.682-11.013c-3.667-33.243-4.661-66.507-3.522-99.567c0.214-6.168,4.014-11.267,9.013-12.114
				c41.992-7.11,84.604-8.96,127.263-6.079c5.318,0.36,9.565,5.57,9.854,12.078c1.552,34.985,1.572,70.056-0.291,104.905
				C454.074,208.986,449.889,214.082,444.646,214.503z"/>
			<path style="fill:#FFAA08;" d="M454.708,97.666c-0.233-5.246-3.039-9.644-6.904-11.343c3.599,27.87,2.87,56.372,2.119,84.62
				l-0.835,31.345c-0.115,4.336-2.903,7.853-6.44,8.149c-28.28,2.372-55.256,1.864-82.192,1.356
				c-16.169-0.306-32.513-0.648-47.29-4.322c1.645,3.89,4.877,6.58,8.617,6.889c40.891,3.38,81.966,3.427,122.862,0.141
				c5.243-0.421,9.428-5.516,9.772-11.932C456.281,167.722,456.26,132.651,454.708,97.666z"/>
			<path style="fill:none;stroke:#17014E;stroke-linecap:round;stroke-linejoin:round;stroke-miterlimit:10;" d="M426.843,211.49
				c-22.607,1.13-44.509,0.718-66.387,0.305c-14.177-0.268-28.488-0.564-41.759-3.11"/>
			<path style="fill:none;stroke:#17014E;stroke-linecap:round;stroke-linejoin:round;stroke-miterlimit:10;" d="M443.447,210.315
				c-0.261,0.059-0.527,0.101-0.798,0.124c-2.333,0.196-4.657,0.372-6.973,0.53"/>
		</g>
		<g>
			<path style="fill:#EF5E9C;" d="M334.083,141.215L334.083,141.215c-0.003-1.475,1.19-2.673,2.665-2.676l27.212-0.068
				c1.475-0.003,2.673,1.19,2.676,2.665c0.003,1.475-1.19,2.673-2.665,2.676l-27.212,0.068
				C335.284,143.883,334.086,142.69,334.083,141.215z"/>
			<g>
				
					<circle style="fill:none;stroke:#17014E;stroke-linecap:round;stroke-linejoin:round;stroke-miterlimit:10;" cx="351.454" cy="115.882" r="18"/>
				<path style="fill:none;stroke:#34A5D1;stroke-width:5;stroke-miterlimit:10;" d="M367.403,124.235
					c1.31-2.496,2.051-5.338,2.051-8.353c0-9.941-8.059-18-18-18c-5.541,0-10.497,2.503-13.799,6.441"/>
			</g>
			<g>
				<path style="fill:#17014E;" d="M344.669,120.403c-0.349,0-0.648-0.041-0.9-0.122c-0.253-0.081-0.456-0.191-0.611-0.329
					c-0.154-0.138-0.277-0.317-0.371-0.537c-0.092-0.22-0.155-0.45-0.188-0.691c-0.032-0.241-0.049-0.522-0.049-0.845h1.616
					c0,0.482,0.041,0.819,0.122,1.011c0.075,0.179,0.223,0.269,0.444,0.269c0.017,0,0.031,0,0.044,0
					c0.065-0.003,0.124-0.014,0.176-0.032c0.052-0.018,0.097-0.05,0.135-0.098c0.037-0.047,0.068-0.092,0.095-0.134
					c0.026-0.042,0.047-0.108,0.064-0.198c0.017-0.089,0.029-0.167,0.039-0.234c0.01-0.067,0.017-0.165,0.02-0.293
					s0.006-0.236,0.008-0.322c0.001-0.087,0.002-0.211,0.002-0.374c0-0.218-0.008-0.402-0.021-0.552
					c-0.016-0.15-0.043-0.293-0.084-0.43c-0.04-0.137-0.105-0.239-0.192-0.308c-0.088-0.068-0.197-0.103-0.327-0.103
					c-0.345,0-0.557,0.246-0.635,0.737h-1.45l0.142-4.658h3.794v1.401h-2.441l-0.098,1.66c0.075-0.091,0.204-0.172,0.388-0.242
					c0.185-0.07,0.386-0.115,0.603-0.134c0.075-0.006,0.147-0.01,0.215-0.01c0.511,0,0.91,0.199,1.196,0.596
					c0.325,0.456,0.488,1.118,0.488,1.987c0,0.309-0.012,0.583-0.034,0.823c-0.022,0.239-0.063,0.477-0.119,0.713
					c-0.058,0.236-0.139,0.438-0.244,0.605c-0.107,0.167-0.24,0.317-0.4,0.449c-0.162,0.132-0.361,0.23-0.599,0.295
					C345.257,120.37,344.981,120.403,344.669,120.403z"/>
				<path style="fill:#17014E;" d="M349.952,120.403c-0.713,0-1.26-0.21-1.641-0.63c-0.381-0.42-0.571-0.983-0.571-1.689v-3.672
					c0-0.736,0.185-1.315,0.554-1.738c0.37-0.423,0.923-0.635,1.658-0.635c0.729,0,1.278,0.212,1.648,0.637
					c0.369,0.425,0.554,1.003,0.554,1.736v3.672c0,0.7-0.192,1.261-0.576,1.685C351.194,120.191,350.652,120.403,349.952,120.403z
					 M349.952,118.918c0.332,0,0.498-0.293,0.498-0.879v-3.579c0-0.078-0.001-0.141-0.002-0.188
					c-0.002-0.047-0.007-0.113-0.016-0.198c-0.008-0.085-0.023-0.154-0.046-0.207c-0.022-0.054-0.052-0.109-0.085-0.166
					c-0.035-0.057-0.082-0.099-0.143-0.127c-0.06-0.028-0.129-0.042-0.207-0.042c-0.061,0-0.118,0.007-0.168,0.022
					c-0.051,0.015-0.094,0.04-0.127,0.078c-0.035,0.038-0.064,0.072-0.088,0.103c-0.025,0.031-0.045,0.077-0.059,0.139
					c-0.016,0.062-0.026,0.109-0.035,0.142c-0.008,0.033-0.014,0.086-0.017,0.161c-0.003,0.075-0.005,0.123-0.005,0.144
					c0,0.021,0,0.067,0,0.139v3.579C349.454,118.626,349.62,118.918,349.952,118.918z"/>
				<path style="fill:#17014E;" d="M356.435,116.24c-0.299,0.35-0.787,0.525-1.468,0.525s-1.168-0.176-1.462-0.527
					c-0.295-0.352-0.442-0.897-0.442-1.636v-0.342c0-0.748,0.144-1.288,0.433-1.619c0.287-0.331,0.778-0.496,1.472-0.496
					c0.693,0,1.185,0.164,1.477,0.491c0.291,0.327,0.437,0.862,0.437,1.604v0.371C356.881,115.348,356.731,115.89,356.435,116.24z
					 M354.71,115.662c0.07,0.036,0.156,0.054,0.257,0.054c0.101,0,0.186-0.018,0.257-0.054c0.069-0.036,0.124-0.082,0.163-0.139
					c0.039-0.057,0.069-0.14,0.091-0.249c0.021-0.109,0.033-0.215,0.039-0.317c0.004-0.103,0.007-0.24,0.007-0.413v-0.244
					c0-0.182-0.002-0.319-0.005-0.41c-0.003-0.091-0.015-0.189-0.034-0.295c-0.02-0.106-0.049-0.182-0.088-0.227
					c-0.039-0.045-0.094-0.084-0.163-0.115c-0.07-0.031-0.159-0.046-0.267-0.046c-0.107,0-0.196,0.016-0.267,0.046
					c-0.069,0.031-0.124,0.07-0.163,0.117c-0.039,0.047-0.067,0.122-0.085,0.225c-0.018,0.103-0.029,0.201-0.035,0.295
					c-0.004,0.094-0.007,0.229-0.007,0.405v0.254c0,0.172,0.003,0.31,0.007,0.413c0.006,0.103,0.018,0.209,0.039,0.317
					c0.021,0.109,0.052,0.191,0.091,0.247C354.586,115.58,354.641,115.626,354.71,115.662z M355.977,120.256l2.461-8.096h0.923
					l-2.461,8.096H355.977z M360.377,120.271c-0.677,0-1.164-0.176-1.46-0.527c-0.296-0.352-0.444-0.897-0.444-1.636v-0.342
					c0-0.748,0.143-1.288,0.433-1.619c0.287-0.33,0.778-0.496,1.472-0.496c0.693,0,1.185,0.164,1.477,0.491
					c0.291,0.327,0.436,0.862,0.436,1.604v0.371c0,0.736-0.149,1.278-0.446,1.628C361.546,120.096,361.058,120.271,360.377,120.271z
					 M360.12,119.168c0.07,0.036,0.156,0.054,0.257,0.054c0.1,0,0.186-0.018,0.257-0.054c0.069-0.036,0.124-0.082,0.163-0.139
					c0.039-0.057,0.069-0.14,0.091-0.249c0.02-0.109,0.033-0.215,0.039-0.317c0.004-0.103,0.007-0.24,0.007-0.413v-0.244
					c0-0.182-0.002-0.319-0.005-0.41c-0.003-0.091-0.015-0.189-0.034-0.295c-0.02-0.106-0.049-0.182-0.088-0.227
					c-0.039-0.045-0.094-0.084-0.163-0.115c-0.07-0.031-0.159-0.046-0.267-0.046c-0.108,0-0.196,0.016-0.267,0.046
					c-0.069,0.031-0.124,0.07-0.163,0.117c-0.039,0.047-0.067,0.122-0.085,0.225c-0.018,0.103-0.029,0.201-0.035,0.295
					c-0.004,0.094-0.007,0.229-0.007,0.405v0.254c0,0.172,0.003,0.31,0.007,0.413c0.006,0.103,0.019,0.209,0.039,0.317
					c0.022,0.109,0.052,0.191,0.091,0.246C359.996,119.086,360.051,119.132,360.12,119.168z"/>
			</g>
		</g>
		<g>
			<path style="fill:#EF5E9C;" d="M397.071,141.215L397.071,141.215c-0.003-1.475,1.19-2.673,2.665-2.676l27.212-0.068
				c1.475-0.003,2.673,1.19,2.676,2.665c0.003,1.475-1.19,2.673-2.665,2.676l-27.212,0.068
				C398.272,143.883,397.074,142.69,397.071,141.215z"/>
			<g>
				
					<circle style="fill:none;stroke:#17014E;stroke-linecap:round;stroke-linejoin:round;stroke-miterlimit:10;" cx="413.347" cy="115.882" r="18"/>
				<path style="fill:none;stroke:#34A5D1;stroke-width:5;stroke-miterlimit:10;" d="M420.571,99.39
					c-2.211-0.97-4.654-1.508-7.224-1.508c-9.941,0-18,8.059-18,18"/>
			</g>
			<g>
				<path style="fill:#17014E;" d="M403.842,120.256v-1.182l1.919-2.983c0.032-0.052,0.096-0.148,0.19-0.288
					c0.095-0.14,0.163-0.246,0.208-0.317c0.043-0.072,0.102-0.173,0.176-0.305c0.072-0.132,0.127-0.245,0.163-0.339
					c0.036-0.094,0.068-0.203,0.098-0.325c0.029-0.122,0.044-0.24,0.044-0.354c0-0.254-0.056-0.443-0.166-0.566
					c-0.088-0.098-0.202-0.145-0.342-0.142c-0.036,0-0.075,0.003-0.117,0.01c-0.192,0.026-0.333,0.128-0.422,0.308
					c-0.09,0.179-0.135,0.448-0.135,0.806v0.391h-1.621v-0.42c0-0.368,0.042-0.701,0.127-0.999c0.085-0.298,0.215-0.563,0.391-0.793
					c0.176-0.231,0.411-0.409,0.705-0.535c0.295-0.126,0.64-0.188,1.033-0.188c0.72,0,1.267,0.188,1.641,0.564
					c0.374,0.376,0.561,0.904,0.561,1.584c0,0.101-0.007,0.203-0.02,0.305c-0.013,0.103-0.026,0.195-0.042,0.278
					c-0.014,0.083-0.04,0.177-0.078,0.281c-0.037,0.104-0.067,0.188-0.09,0.251c-0.022,0.063-0.063,0.15-0.122,0.259
					c-0.059,0.109-0.101,0.187-0.124,0.234c-0.025,0.047-0.074,0.128-0.149,0.244c-0.075,0.116-0.124,0.19-0.147,0.225
					c-0.022,0.034-0.077,0.115-0.163,0.242c-0.087,0.127-0.14,0.204-0.159,0.229l-1.479,2.212h2.349v1.313H403.842z"/>
				<path style="fill:#17014E;" d="M411.283,120.403c-0.349,0-0.648-0.041-0.9-0.122c-0.253-0.081-0.456-0.191-0.611-0.329
					c-0.154-0.138-0.277-0.317-0.371-0.537c-0.092-0.22-0.155-0.45-0.188-0.691c-0.032-0.241-0.049-0.522-0.049-0.845h1.616
					c0,0.482,0.041,0.819,0.122,1.011c0.075,0.179,0.223,0.269,0.444,0.269c0.017,0,0.031,0,0.044,0
					c0.065-0.003,0.124-0.014,0.176-0.032c0.052-0.018,0.097-0.05,0.135-0.098c0.037-0.047,0.068-0.092,0.095-0.134
					c0.026-0.042,0.047-0.108,0.063-0.198c0.017-0.089,0.029-0.167,0.039-0.234c0.01-0.067,0.017-0.165,0.02-0.293
					c0.003-0.128,0.006-0.236,0.008-0.322c0.001-0.087,0.002-0.211,0.002-0.374c0-0.218-0.008-0.402-0.021-0.552
					c-0.016-0.15-0.043-0.293-0.084-0.43c-0.04-0.137-0.105-0.239-0.192-0.308c-0.088-0.068-0.197-0.103-0.327-0.103
					c-0.345,0-0.557,0.246-0.635,0.737h-1.45l0.142-4.658h3.794v1.401h-2.441l-0.098,1.66c0.075-0.091,0.204-0.172,0.388-0.242
					c0.184-0.07,0.386-0.115,0.603-0.134c0.075-0.006,0.147-0.01,0.215-0.01c0.511,0,0.91,0.199,1.196,0.596
					c0.325,0.456,0.488,1.118,0.488,1.987c0,0.309-0.012,0.583-0.034,0.823c-0.022,0.239-0.063,0.477-0.119,0.713
					c-0.058,0.236-0.139,0.438-0.244,0.605c-0.106,0.167-0.24,0.317-0.4,0.449c-0.162,0.132-0.361,0.23-0.599,0.295
					C411.871,120.37,411.596,120.403,411.283,120.403z"/>
				<path style="fill:#17014E;" d="M417.707,116.24c-0.299,0.35-0.787,0.525-1.468,0.525c-0.681,0-1.168-0.176-1.462-0.527
					c-0.295-0.352-0.442-0.897-0.442-1.636v-0.342c0-0.748,0.143-1.288,0.433-1.619c0.287-0.331,0.778-0.496,1.472-0.496
					c0.693,0,1.185,0.164,1.478,0.491c0.291,0.327,0.436,0.862,0.436,1.604v0.371C418.153,115.348,418.004,115.89,417.707,116.24z
					 M415.982,115.662c0.07,0.036,0.156,0.054,0.257,0.054c0.1,0,0.186-0.018,0.257-0.054c0.069-0.036,0.124-0.082,0.163-0.139
					c0.039-0.057,0.069-0.14,0.091-0.249c0.02-0.109,0.033-0.215,0.039-0.317c0.004-0.103,0.007-0.24,0.007-0.413v-0.244
					c0-0.182-0.002-0.319-0.005-0.41c-0.003-0.091-0.015-0.189-0.034-0.295c-0.02-0.106-0.049-0.182-0.088-0.227
					c-0.039-0.045-0.094-0.084-0.163-0.115c-0.07-0.031-0.159-0.046-0.267-0.046c-0.108,0-0.196,0.016-0.267,0.046
					c-0.069,0.031-0.124,0.07-0.163,0.117c-0.039,0.047-0.067,0.122-0.085,0.225c-0.018,0.103-0.029,0.201-0.035,0.295
					c-0.004,0.094-0.007,0.229-0.007,0.405v0.254c0,0.172,0.003,0.31,0.007,0.413c0.006,0.103,0.019,0.209,0.039,0.317
					c0.022,0.109,0.052,0.191,0.091,0.247C415.858,115.58,415.913,115.626,415.982,115.662z M417.25,120.256l2.461-8.096h0.923
					l-2.461,8.096H417.25z M421.649,120.271c-0.677,0-1.164-0.176-1.46-0.527c-0.296-0.352-0.444-0.897-0.444-1.636v-0.342
					c0-0.748,0.144-1.288,0.433-1.619c0.287-0.33,0.778-0.496,1.472-0.496c0.693,0,1.186,0.164,1.478,0.491
					c0.291,0.327,0.436,0.862,0.436,1.604v0.371c0,0.736-0.149,1.278-0.446,1.628C422.818,120.096,422.33,120.271,421.649,120.271z
					 M421.393,119.168c0.07,0.036,0.156,0.054,0.257,0.054c0.101,0,0.186-0.018,0.257-0.054c0.069-0.036,0.124-0.082,0.163-0.139
					c0.039-0.057,0.069-0.14,0.091-0.249c0.021-0.109,0.033-0.215,0.039-0.317c0.004-0.103,0.007-0.24,0.007-0.413v-0.244
					c0-0.182-0.002-0.319-0.005-0.41c-0.003-0.091-0.015-0.189-0.034-0.295c-0.02-0.106-0.049-0.182-0.088-0.227
					c-0.039-0.045-0.094-0.084-0.163-0.115c-0.07-0.031-0.159-0.046-0.267-0.046s-0.196,0.016-0.267,0.046
					c-0.069,0.031-0.124,0.07-0.163,0.117c-0.039,0.047-0.067,0.122-0.085,0.225c-0.019,0.103-0.029,0.201-0.035,0.295
					c-0.004,0.094-0.007,0.229-0.007,0.405v0.254c0,0.172,0.003,0.31,0.007,0.413c0.006,0.103,0.019,0.209,0.039,0.317
					c0.022,0.109,0.052,0.191,0.091,0.246C421.269,119.086,421.323,119.132,421.393,119.168z"/>
			</g>
		</g>
		<g>
			<path style="fill:#EF5E9C;" d="M336.083,198.155L336.083,198.155c-0.003-1.475,1.19-2.673,2.665-2.676l27.212-0.068
				c1.475-0.003,2.673,1.19,2.676,2.665c0.003,1.475-1.19,2.673-2.665,2.676l-27.212,0.068
				C337.284,200.823,336.086,199.63,336.083,198.155z"/>
			<g>
				
					<circle style="fill:none;stroke:#17014E;stroke-linecap:round;stroke-linejoin:round;stroke-miterlimit:10;" cx="351.454" cy="171.822" r="18"/>
				<path style="fill:none;stroke:#34A5D1;stroke-width:5;stroke-miterlimit:10;" d="M345.094,188.666
					c1.978,0.747,4.121,1.156,6.36,1.156c9.941,0,18-8.059,18-18c0-9.941-8.059-18-18-18s-18,8.059-18,18
					c0,1.632,0.217,3.214,0.624,4.717"/>
			</g>
			<g>
				<path style="fill:#17014E;" d="M344.627,175.698c-0.4,0-0.746-0.061-1.037-0.183c-0.292-0.122-0.523-0.298-0.693-0.527
					c-0.172-0.23-0.296-0.496-0.374-0.798c-0.071-0.28-0.107-0.594-0.107-0.942c0-0.029,0-0.059,0-0.088
					c0.007-0.423,0.085-0.8,0.237-1.13c0.15-0.331,0.38-0.572,0.686-0.725c-0.228-0.166-0.415-0.396-0.561-0.689
					c-0.147-0.293-0.225-0.648-0.234-1.064c0-0.029,0-0.059,0-0.088c0-0.648,0.173-1.154,0.518-1.519
					c0.361-0.384,0.884-0.576,1.567-0.576c0.683,0,1.204,0.192,1.562,0.576c0.342,0.368,0.511,0.874,0.508,1.519
					c0,0.029,0,0.059,0,0.088c-0.01,0.42-0.086,0.776-0.23,1.069c-0.144,0.293-0.329,0.521-0.557,0.684
					c0.303,0.156,0.532,0.399,0.688,0.73c0.156,0.331,0.237,0.706,0.244,1.126c0,0.042,0,0.086,0,0.132
					c0,0.336-0.032,0.636-0.098,0.903c-0.078,0.299-0.203,0.564-0.373,0.794c-0.172,0.229-0.404,0.405-0.699,0.527
					C345.38,175.637,345.03,175.698,344.627,175.698z M344.627,174.467c0.088,0,0.165-0.018,0.232-0.054
					c0.066-0.036,0.119-0.088,0.158-0.156c0.039-0.068,0.071-0.138,0.098-0.21c0.026-0.072,0.045-0.159,0.057-0.261
					c0.011-0.103,0.019-0.189,0.022-0.259c0.003-0.07,0.005-0.152,0.005-0.247c0-0.117-0.002-0.219-0.005-0.305
					c-0.003-0.087-0.011-0.181-0.022-0.283c-0.012-0.103-0.03-0.189-0.057-0.261c-0.026-0.072-0.059-0.139-0.1-0.203
					c-0.041-0.064-0.094-0.111-0.159-0.142c-0.065-0.031-0.142-0.046-0.229-0.046c-0.101,0-0.188,0.024-0.262,0.073
					c-0.072,0.049-0.129,0.11-0.168,0.183c-0.039,0.073-0.07,0.169-0.093,0.288c-0.022,0.119-0.036,0.229-0.042,0.33
					c-0.004,0.101-0.007,0.223-0.007,0.366c0,0.15,0.005,0.279,0.015,0.388s0.031,0.232,0.066,0.369
					c0.033,0.137,0.092,0.243,0.176,0.317C344.395,174.43,344.5,174.467,344.627,174.467z M344.627,170.703
					c0.332,0,0.498-0.402,0.498-1.206c0-0.273-0.042-0.488-0.127-0.645c-0.085-0.156-0.208-0.234-0.371-0.234
					c-0.169,0-0.296,0.077-0.381,0.232s-0.127,0.369-0.127,0.642C344.119,170.299,344.288,170.703,344.627,170.703z"/>
				<path style="fill:#17014E;" d="M349.954,175.717c-0.713,0-1.26-0.21-1.641-0.63c-0.381-0.42-0.571-0.983-0.571-1.689v-3.672
					c0-0.736,0.185-1.315,0.554-1.738c0.37-0.423,0.923-0.635,1.658-0.635c0.729,0,1.278,0.212,1.648,0.637
					c0.369,0.425,0.554,1.003,0.554,1.736v3.672c0,0.7-0.192,1.261-0.576,1.685C351.196,175.506,350.654,175.717,349.954,175.717z
					 M349.954,174.233c0.332,0,0.498-0.293,0.498-0.879v-3.579c0-0.078-0.001-0.141-0.002-0.188
					c-0.002-0.047-0.007-0.113-0.016-0.198c-0.008-0.084-0.023-0.154-0.046-0.208c-0.023-0.054-0.052-0.109-0.085-0.166
					c-0.035-0.057-0.082-0.099-0.143-0.127c-0.06-0.028-0.129-0.042-0.207-0.042c-0.062,0-0.118,0.007-0.168,0.022
					c-0.051,0.015-0.094,0.041-0.127,0.078c-0.035,0.038-0.064,0.072-0.088,0.103c-0.025,0.031-0.045,0.077-0.059,0.139
					c-0.016,0.062-0.026,0.109-0.035,0.142c-0.008,0.033-0.014,0.086-0.017,0.161c-0.003,0.075-0.005,0.123-0.005,0.144
					s0,0.067,0,0.139v3.579C349.456,173.94,349.622,174.233,349.954,174.233z"/>
				<path style="fill:#17014E;" d="M356.436,171.555c-0.299,0.35-0.787,0.525-1.468,0.525c-0.681,0-1.168-0.176-1.462-0.527
					c-0.295-0.352-0.442-0.897-0.442-1.636v-0.342c0-0.749,0.144-1.288,0.433-1.619c0.287-0.33,0.778-0.496,1.472-0.496
					c0.693,0,1.186,0.164,1.478,0.491c0.291,0.327,0.436,0.862,0.436,1.604v0.371C356.883,170.662,356.733,171.205,356.436,171.555z
					 M354.712,170.976c0.07,0.036,0.156,0.054,0.257,0.054c0.1,0,0.186-0.018,0.257-0.054c0.069-0.036,0.124-0.082,0.163-0.139
					c0.039-0.057,0.069-0.14,0.091-0.249c0.021-0.109,0.033-0.215,0.039-0.317c0.004-0.102,0.007-0.24,0.007-0.413v-0.244
					c0-0.182-0.002-0.319-0.005-0.41c-0.003-0.091-0.015-0.189-0.034-0.295c-0.02-0.106-0.049-0.182-0.088-0.227
					c-0.039-0.045-0.094-0.084-0.163-0.115c-0.07-0.031-0.159-0.046-0.267-0.046c-0.107,0-0.196,0.016-0.267,0.046
					c-0.069,0.031-0.124,0.07-0.163,0.117c-0.039,0.047-0.067,0.122-0.085,0.225c-0.019,0.102-0.029,0.201-0.035,0.295
					c-0.004,0.094-0.007,0.23-0.007,0.405v0.254c0,0.172,0.003,0.31,0.007,0.413c0.006,0.102,0.019,0.208,0.039,0.317
					c0.021,0.109,0.052,0.191,0.091,0.246C354.588,170.895,354.643,170.94,354.712,170.976z M355.979,175.571l2.461-8.096h0.923
					l-2.461,8.096H355.979z M360.379,175.585c-0.677,0-1.164-0.176-1.46-0.527c-0.296-0.352-0.444-0.897-0.444-1.636v-0.342
					c0-0.749,0.144-1.288,0.433-1.619c0.287-0.331,0.778-0.496,1.472-0.496c0.693,0,1.186,0.164,1.478,0.491
					c0.291,0.327,0.437,0.862,0.437,1.604v0.371c0,0.736-0.149,1.278-0.446,1.628C361.548,175.411,361.06,175.585,360.379,175.585z
					 M360.122,174.482c0.07,0.036,0.156,0.054,0.257,0.054c0.101,0,0.187-0.018,0.257-0.054c0.069-0.036,0.124-0.082,0.163-0.139
					c0.039-0.057,0.069-0.14,0.091-0.249c0.021-0.109,0.033-0.215,0.039-0.317c0.004-0.103,0.007-0.24,0.007-0.413v-0.244
					c0-0.182-0.002-0.319-0.005-0.41c-0.003-0.091-0.015-0.189-0.034-0.296c-0.019-0.106-0.049-0.182-0.088-0.227
					c-0.039-0.045-0.094-0.084-0.163-0.115c-0.07-0.031-0.159-0.046-0.267-0.046c-0.107,0-0.196,0.016-0.267,0.046
					c-0.069,0.031-0.124,0.07-0.163,0.117c-0.039,0.047-0.067,0.122-0.085,0.225c-0.019,0.103-0.029,0.201-0.035,0.296
					c-0.004,0.094-0.007,0.229-0.007,0.405v0.254c0,0.172,0.003,0.31,0.007,0.413c0.006,0.103,0.019,0.208,0.039,0.317
					c0.021,0.109,0.052,0.191,0.091,0.247C359.998,174.4,360.053,174.446,360.122,174.482z"/>
			</g>
		</g>
		<g>
			<path style="fill:#EF5E9C;" d="M397.071,199.155L397.071,199.155c-0.003-1.475,1.19-2.673,2.665-2.676l27.212-0.068
				c1.475-0.003,2.673,1.19,2.676,2.665c0.003,1.475-1.19,2.673-2.665,2.676l-27.212,0.068
				C398.272,201.823,397.074,200.63,397.071,199.155z"/>
			<g>
				
					<circle style="fill:none;stroke:#17014E;stroke-linecap:round;stroke-linejoin:round;stroke-miterlimit:10;" cx="413.347" cy="171.822" r="18"/>
				<path style="fill:none;stroke:#34A5D1;stroke-width:5;stroke-miterlimit:10;" d="M395.347,171.822c0,9.941,8.059,18,18,18
					c4.758,0,9.086-1.846,12.304-4.862"/>
			</g>
			<g>
				<path style="fill:#17014E;" d="M406.007,175.717c-0.413,0-0.767-0.06-1.061-0.178c-0.295-0.119-0.527-0.294-0.696-0.525
					c-0.169-0.231-0.292-0.496-0.368-0.793c-0.077-0.298-0.115-0.644-0.115-1.038v-0.288h1.675v0.283
					c0.003,0.414,0.046,0.706,0.127,0.876c0.081,0.171,0.234,0.256,0.459,0.256c0.218,0,0.363-0.083,0.434-0.249
					c0.071-0.166,0.108-0.443,0.108-0.83c0-0.423-0.06-0.732-0.178-0.928c-0.119-0.195-0.343-0.298-0.672-0.308h-0.293v-1.172h0.264
					c0.339-0.003,0.569-0.095,0.693-0.276c0.124-0.181,0.186-0.479,0.186-0.896c0-0.329-0.043-0.571-0.129-0.728
					c-0.087-0.156-0.237-0.234-0.452-0.234c-0.212,0-0.354,0.084-0.43,0.251c-0.075,0.167-0.114,0.416-0.117,0.745v0.415h-1.675
					v-0.488c0-0.723,0.196-1.281,0.588-1.675c0.393-0.394,0.936-0.591,1.629-0.591c0.71,0,1.26,0.188,1.65,0.564
					c0.391,0.376,0.586,0.92,0.586,1.633c0,0.459-0.094,0.85-0.281,1.172c-0.186,0.322-0.425,0.522-0.715,0.601
					c0.664,0.241,0.996,0.864,0.996,1.87c0,0.384-0.04,0.726-0.119,1.025c-0.08,0.299-0.205,0.564-0.377,0.793
					c-0.17,0.229-0.4,0.405-0.69,0.527C406.742,175.656,406.4,175.717,406.007,175.717z"/>
				<path style="fill:#17014E;" d="M411.3,175.688c-0.388,0-0.726-0.066-1.016-0.198c-0.29-0.132-0.522-0.319-0.698-0.562
					c-0.176-0.243-0.307-0.522-0.392-0.84c-0.087-0.317-0.13-0.673-0.13-1.067v-2.891c0-0.335,0.02-0.636,0.059-0.901
					c0.039-0.265,0.109-0.518,0.21-0.757c0.101-0.239,0.234-0.438,0.4-0.596c0.166-0.158,0.38-0.283,0.643-0.376
					c0.262-0.093,0.568-0.139,0.92-0.139c0.381,0,0.705,0.045,0.972,0.134c0.267,0.089,0.481,0.225,0.64,0.405
					c0.159,0.181,0.275,0.396,0.35,0.647c0.072,0.251,0.111,0.548,0.114,0.894v0.142h-1.577c0-0.361-0.028-0.611-0.086-0.75
					c-0.057-0.138-0.19-0.208-0.402-0.208c-0.225,0-0.371,0.109-0.44,0.327c-0.068,0.218-0.102,0.648-0.102,1.289v0.718
					c0.081-0.14,0.211-0.25,0.388-0.33c0.178-0.08,0.381-0.123,0.608-0.129c0.017,0,0.032,0,0.049,0
					c0.293,0,0.549,0.055,0.767,0.166c0.232,0.117,0.413,0.284,0.547,0.501c0.134,0.216,0.232,0.462,0.295,0.737
					c0.065,0.275,0.096,0.582,0.096,0.92c0,0.443-0.037,0.831-0.109,1.165c-0.074,0.334-0.192,0.631-0.357,0.894
					c-0.164,0.262-0.393,0.461-0.686,0.598C412.066,175.62,411.713,175.688,411.3,175.688z M411.324,174.453
					c0.11,0,0.2-0.028,0.269-0.083c0.068-0.055,0.12-0.146,0.156-0.273c0.036-0.127,0.06-0.266,0.071-0.418
					c0.011-0.151,0.017-0.348,0.017-0.588c0-0.137-0.001-0.243-0.003-0.317c-0.001-0.075-0.005-0.166-0.012-0.273
					c-0.007-0.107-0.017-0.191-0.029-0.251c-0.013-0.06-0.032-0.124-0.059-0.193c-0.026-0.068-0.058-0.12-0.096-0.154
					c-0.037-0.034-0.083-0.063-0.139-0.088c-0.056-0.025-0.119-0.037-0.19-0.037c-0.12,0-0.231,0.035-0.329,0.105
					c-0.1,0.07-0.172,0.149-0.218,0.237v1.299C410.763,174.107,410.95,174.453,411.324,174.453z"/>
				<path style="fill:#17014E;" d="M417.709,171.555c-0.299,0.35-0.787,0.525-1.468,0.525s-1.168-0.176-1.462-0.527
					c-0.295-0.352-0.442-0.897-0.442-1.636v-0.342c0-0.749,0.144-1.288,0.433-1.619c0.287-0.33,0.778-0.496,1.472-0.496
					c0.693,0,1.186,0.164,1.478,0.491c0.291,0.327,0.436,0.862,0.436,1.604v0.371C418.155,170.662,418.006,171.205,417.709,171.555z
					 M415.984,170.976c0.07,0.036,0.156,0.054,0.257,0.054c0.101,0,0.186-0.018,0.257-0.054c0.069-0.036,0.124-0.082,0.163-0.139
					c0.039-0.057,0.069-0.14,0.091-0.249c0.02-0.109,0.033-0.215,0.039-0.317c0.004-0.102,0.007-0.24,0.007-0.413v-0.244
					c0-0.182-0.002-0.319-0.005-0.41c-0.003-0.091-0.015-0.189-0.034-0.295c-0.02-0.106-0.049-0.182-0.088-0.227
					c-0.039-0.045-0.094-0.084-0.163-0.115c-0.07-0.031-0.159-0.046-0.267-0.046s-0.196,0.016-0.267,0.046
					c-0.069,0.031-0.124,0.07-0.163,0.117c-0.039,0.047-0.067,0.122-0.085,0.225c-0.019,0.102-0.029,0.201-0.035,0.295
					c-0.004,0.094-0.007,0.23-0.007,0.405v0.254c0,0.172,0.003,0.31,0.007,0.413c0.006,0.102,0.019,0.208,0.039,0.317
					c0.022,0.109,0.052,0.191,0.091,0.246C415.86,170.895,415.915,170.94,415.984,170.976z M417.252,175.571l2.461-8.096h0.923
					l-2.461,8.096H417.252z M421.651,175.585c-0.677,0-1.164-0.176-1.46-0.527c-0.296-0.352-0.444-0.897-0.444-1.636v-0.342
					c0-0.749,0.143-1.288,0.433-1.619c0.287-0.331,0.778-0.496,1.472-0.496c0.693,0,1.185,0.164,1.477,0.491
					c0.291,0.327,0.437,0.862,0.437,1.604v0.371c0,0.736-0.149,1.278-0.446,1.628C422.82,175.411,422.332,175.585,421.651,175.585z
					 M421.395,174.482c0.07,0.036,0.156,0.054,0.257,0.054s0.186-0.018,0.257-0.054c0.069-0.036,0.124-0.082,0.163-0.139
					c0.039-0.057,0.069-0.14,0.091-0.249c0.021-0.109,0.033-0.215,0.039-0.317c0.004-0.103,0.007-0.24,0.007-0.413v-0.244
					c0-0.182-0.002-0.319-0.005-0.41c-0.003-0.091-0.015-0.189-0.034-0.296c-0.02-0.106-0.049-0.182-0.088-0.227
					c-0.039-0.045-0.094-0.084-0.163-0.115c-0.07-0.031-0.159-0.046-0.267-0.046c-0.108,0-0.196,0.016-0.267,0.046
					c-0.069,0.031-0.124,0.07-0.163,0.117c-0.039,0.047-0.067,0.122-0.085,0.225c-0.018,0.103-0.029,0.201-0.035,0.296
					c-0.004,0.094-0.007,0.229-0.007,0.405v0.254c0,0.172,0.003,0.31,0.007,0.413c0.006,0.103,0.018,0.208,0.039,0.317
					c0.021,0.109,0.052,0.191,0.091,0.247C421.27,174.4,421.325,174.446,421.395,174.482z"/>
			</g>
		</g>
	</g>
	<g>
		<path style="fill:#C8BDFF;" d="M410.959,474.281c0-1.425-1.155-2.58-2.58-2.58c-1.425,0-2.58,1.155-2.58,2.58
			c0,1.425,1.155,2.58,2.58,2.58C409.804,476.861,410.959,475.706,410.959,474.281z"/>
		<path style="fill:none;stroke:#17014E;stroke-linecap:round;stroke-linejoin:round;stroke-miterlimit:10;" d="M419.161,453.29
			c0-1.054-0.854-1.909-1.909-1.909c-1.054,0-1.909,0.854-1.909,1.909c0,1.054,0.854,1.909,1.909,1.909
			C418.306,455.198,419.161,454.344,419.161,453.29z"/>
		<g>
			
				<line style="fill:none;stroke:#FFFFFF;stroke-linecap:round;stroke-linejoin:round;stroke-miterlimit:10;" x1="436.235" y1="468.188" x2="436.233" y2="472.5"/>
			
				<line style="fill:none;stroke:#FFFFFF;stroke-linecap:round;stroke-linejoin:round;stroke-miterlimit:10;" x1="434.078" y1="470.343" x2="438.39" y2="470.345"/>
		</g>
	</g>
</g>

</svg>
