<?xml version="1.0" encoding="utf-8"?>
<!-- Generator: Adobe Illustrator 27.5.0, SVG Export Plug-In . SVG Version: 6.00 Build 0)  -->
<svg version="1.1" xmlns="http://www.w3.org/2000/svg" xmlns:xlink="http://www.w3.org/1999/xlink" x="0px" y="0px"
	 viewBox="0 0 500 500" style="enable-background:new 0 0 500 500;" xml:space="preserve">
<g id="background">
	<rect style="fill:#1D262D;" fill-opacity="0.03" width="500" height="500"/>
</g>
<g id="objects">
	<path style="fill:#55D9CC;" d="M212.954,196.001c0,1.53-1.24,2.77-2.77,2.77s-2.77-1.24-2.77-2.77c0-1.53,1.24-2.77,2.77-2.77
		S212.954,194.471,212.954,196.001z"/>
	<path style="fill:#55D9CC;" d="M243.268,198.772c0,1.53-1.24,2.77-2.77,2.77s-2.77-1.24-2.77-2.77s1.24-2.77,2.77-2.77
		S243.268,197.242,243.268,198.772z"/>
	<path style="fill:#55D9CC;" d="M271.883,188.945c0,1.53-1.24,2.77-2.77,2.77c-1.53,0-2.77-1.24-2.77-2.77s1.24-2.77,2.77-2.77
		C270.643,186.175,271.883,187.415,271.883,188.945z"/>
	
		<rect x="204.059" y="192.665" transform="matrix(0.7411 0.6714 -0.6714 0.7411 184.9231 -88.3387)" style="fill:#F1375A;" width="5.897" height="5.897"/>
	
		<rect x="226.388" y="188.632" transform="matrix(0.505 0.8631 -0.8631 0.505 278.8838 -103.1121)" style="fill:#F1375A;" width="5.897" height="5.897"/>
	
		<rect x="226.756" y="196.267" transform="matrix(0.505 0.8631 -0.8631 0.505 285.6606 -99.649)" style="fill:#F1375A;" width="5.897" height="5.897"/>
	
		<rect x="229.891" y="181.975" transform="matrix(0.505 0.8631 -0.8631 0.505 274.8789 -109.4291)" style="fill:#F1375A;" width="5.897" height="5.897"/>
	
		<rect x="247.381" y="190.991" transform="matrix(-0.7046 -0.7096 0.7096 -0.7046 289.0737 508.226)" style="fill:#F1375A;" width="5.897" height="5.897"/>
	
		<rect x="250.33" y="181.975" transform="matrix(-0.7046 -0.7096 0.7096 -0.7046 300.4976 494.9504)" style="fill:#F1375A;" width="5.897" height="5.897"/>
	
		<rect x="252.002" y="199.323" transform="matrix(-0.7046 -0.7097 0.7097 -0.7046 291.0331 525.7086)" style="fill:#F1375A;" width="5.897" height="5.897"/>
	
		<rect x="239.439" y="186.669" transform="matrix(-0.7046 -0.7096 0.7096 -0.7046 278.6024 495.2232)" style="fill:#F1375A;" width="5.897" height="5.897"/>
	
		<rect x="288.433" y="178.212" transform="matrix(0.2285 0.9735 -0.9735 0.2285 401.1675 -143.908)" style="fill:#F1375A;" width="5.897" height="5.897"/>
	
		<rect x="261.965" y="178.212" transform="matrix(0.0317 -0.9995 0.9995 0.0317 75.4344 440.1902)" style="fill:#F1375A;" width="5.897" height="5.897"/>
	
		<rect x="287.779" y="198.005" transform="matrix(0.7411 0.6714 -0.6714 0.7411 210.1825 -143.1647)" style="fill:#F1375A;" width="5.897" height="5.897"/>
	
		<rect x="281.003" y="184.598" transform="matrix(0.505 0.8631 -0.8631 0.505 302.4429 -152.2483)" style="fill:#F1375A;" width="5.897" height="5.897"/>
	
		<rect x="272.467" y="184.598" transform="matrix(0.0417 0.9991 -0.9991 0.0417 451.3178 -95.4471)" style="fill:#F1375A;" width="5.897" height="5.897"/>
	<path style="fill:#55D9CC;" d="M209.057,189.572c0,1.53-1.24,2.77-2.77,2.77c-1.53,0-2.77-1.24-2.77-2.77
		c0-1.53,1.24-2.77,2.77-2.77C207.817,186.801,209.057,188.042,209.057,189.572z"/>
	<path style="fill:#55D9CC;" d="M229.996,180.999c0,1.53-1.24,2.77-2.77,2.77s-2.77-1.24-2.77-2.77s1.24-2.77,2.77-2.77
		S229.996,179.469,229.996,180.999z"/>
	<path style="fill:#55D9CC;" d="M244.522,185.523c0,1.53-1.24,2.77-2.77,2.77s-2.77-1.24-2.77-2.77c0-1.53,1.24-2.77,2.77-2.77
		S244.522,183.993,244.522,185.523z"/>
	<path style="fill:#55D9CC;" d="M238.981,191.715c0,1.53-1.24,2.77-2.77,2.77s-2.77-1.24-2.77-2.77c0-1.53,1.24-2.77,2.77-2.77
		S238.981,190.185,238.981,191.715z"/>
	<path style="fill:#55D9CC;" d="M256.698,184.095c0,1.53-1.24,2.77-2.77,2.77c-1.53,0-2.77-1.24-2.77-2.77s1.24-2.77,2.77-2.77
		C255.457,181.324,256.698,182.565,256.698,184.095z"/>
	<path style="fill:#55D9CC;" d="M281.707,190.958c0,1.53-1.24,2.77-2.77,2.77s-2.77-1.24-2.77-2.77s1.24-2.77,2.77-2.77
		S281.707,189.428,281.707,190.958z"/>
	<path style="fill:#55D9CC;" d="M256.365,195.113c0,1.53-1.24,2.77-2.77,2.77s-2.77-1.24-2.77-2.77s1.24-2.77,2.77-2.77
		S256.365,193.583,256.365,195.113z"/>
	<path style="fill:#55D9CC;" d="M291.189,198.772c0,1.53-1.24,2.77-2.77,2.77s-2.77-1.24-2.77-2.77s1.24-2.77,2.77-2.77
		S291.189,197.242,291.189,198.772z"/>
	<path style="fill:#55D9CC;" d="M280.949,199.867c0,1.53-1.24,2.77-2.77,2.77s-2.77-1.24-2.77-2.77s1.24-2.77,2.77-2.77
		S280.949,198.337,280.949,199.867z"/>
	<polygon style="fill:#F5A404;" points="257.996,186.481 252.397,189.131 256.757,192.55 	"/>
	<polygon style="fill:#F5A404;" points="257.375,195.852 262.855,198.741 262.974,193.202 	"/>
	<polygon style="fill:#F5A404;" points="225.356,185.162 230.525,181.749 225.727,178.979 	"/>
	<polygon style="fill:#F5A404;" points="214.556,186.694 208.957,189.344 213.317,192.763 	"/>
	<polygon style="fill:#F5A404;" points="214.829,198.795 220.309,201.684 220.428,196.144 	"/>
	<polygon style="fill:#F5A404;" points="233.749,199.608 238.918,196.194 234.12,193.424 	"/>
	<polygon style="fill:#F5A404;" points="226.313,198.661 227.553,192.591 222.201,194.027 	"/>
	<polygon style="fill:#F5A404;" points="242.721,187.566 239.102,192.593 244.571,193.478 	"/>
	<polygon style="fill:#F5A404;" points="272.442,193.02 277.611,189.607 272.813,186.837 	"/>
	<polygon style="fill:#F5A404;" points="281.414,180.979 277.795,186.006 283.264,186.891 	"/>
	<polygon style="fill:#F5A404;" points="270.012,136.962 275.492,139.851 275.611,134.311 	"/>
	<polygon style="fill:#F5A404;" points="217.785,130.251 223.265,133.141 223.384,127.601 	"/>
	<polygon style="fill:#F5A404;" points="155.965,131.02 152.346,136.048 157.816,136.932 	"/>
	<polygon style="fill:#F5A404;" points="170.191,112.025 171.431,105.956 166.079,107.392 	"/>
	<polygon style="fill:#F5A404;" points="158.566,155.48 157.194,149.439 152.911,152.953 	"/>
	<polygon style="fill:#F5A404;" points="186.592,132.65 188.802,138.437 192.548,134.354 	"/>
	<polygon style="fill:#F5A404;" points="270.586,103.299 276.066,106.188 276.185,100.649 	"/>
	<polygon style="fill:#F5A404;" points="239.524,106.108 240.764,100.038 235.412,101.475 	"/>
	<polygon style="fill:#F5A404;" points="336.139,147.018 341.619,149.908 341.738,144.368 	"/>
	<polygon style="fill:#F5A404;" points="378.747,103.335 375.127,108.362 380.597,109.247 	"/>
	<polygon style="fill:#F5A404;" points="340.319,97.516 345.799,100.405 345.918,94.865 	"/>
	<polygon style="fill:#F5A404;" points="116.51,117.602 121.99,120.491 122.109,114.951 	"/>
	<polygon style="fill:#F5A404;" points="130.014,85.68 126.394,90.707 131.864,91.592 	"/>
	<polygon style="fill:#F5A404;" points="151.173,93.559 156.343,90.146 151.544,87.376 	"/>
	<path style="fill:#55D9CC;" d="M234.964,171.05c0,1.53-1.24,2.77-2.77,2.77c-1.53,0-2.77-1.24-2.77-2.77
		c0-1.53,1.24-2.77,2.77-2.77C233.724,168.28,234.964,169.52,234.964,171.05z"/>
	<path style="fill:#55D9CC;" d="M221.985,152.952c0,1.53-1.24,2.77-2.77,2.77c-1.53,0-2.77-1.24-2.77-2.77
		c0-1.53,1.24-2.77,2.77-2.77C220.745,150.181,221.985,151.421,221.985,152.952z"/>
	<path style="fill:#55D9CC;" d="M197.463,116.516c0,1.53-1.24,2.77-2.77,2.77c-1.53,0-2.77-1.24-2.77-2.77
		c0-1.53,1.24-2.77,2.77-2.77C196.223,113.746,197.463,114.986,197.463,116.516z"/>
	<path style="fill:#55D9CC;" d="M252.299,155.722c0,1.53-1.24,2.77-2.77,2.77s-2.77-1.24-2.77-2.77c0-1.53,1.24-2.77,2.77-2.77
		S252.299,154.192,252.299,155.722z"/>
	<path style="fill:#55D9CC;" d="M142.099,154.035c0,1.53-1.24,2.77-2.77,2.77s-2.77-1.24-2.77-2.77s1.24-2.77,2.77-2.77
		S142.099,152.505,142.099,154.035z"/>
	<path style="fill:#55D9CC;" d="M151.923,117.259c1.368-0.684,3.033-0.13,3.717,1.239c0.684,1.368,0.13,3.033-1.239,3.717
		c-1.368,0.684-3.033,0.13-3.717-1.239C150,119.608,150.555,117.944,151.923,117.259z"/>
	<path style="fill:#55D9CC;" d="M173.913,156.218c-0.765,1.325-2.459,1.779-3.784,1.014c-1.325-0.765-1.779-2.459-1.014-3.784
		c0.765-1.325,2.459-1.779,3.784-1.014C174.224,153.199,174.678,154.893,173.913,156.218z"/>
	<path style="fill:#55D9CC;" d="M204.854,145.244c0,1.53-1.24,2.77-2.77,2.77c-1.53,0-2.77-1.24-2.77-2.77s1.24-2.77,2.77-2.77
		C203.613,142.473,204.854,143.714,204.854,145.244z"/>
	<path style="fill:#55D9CC;" d="M218.088,123.454c0,1.53-1.24,2.77-2.77,2.77c-1.53,0-2.77-1.24-2.77-2.77s1.24-2.77,2.77-2.77
		C216.848,120.684,218.088,121.924,218.088,123.454z"/>
	<path style="fill:#55D9CC;" d="M183.477,162.997c0,1.53-1.24,2.77-2.77,2.77c-1.53,0-2.77-1.24-2.77-2.77s1.24-2.77,2.77-2.77
		C182.236,160.227,183.477,161.467,183.477,162.997z"/>
	<path style="fill:#55D9CC;" d="M369.355,98.249c0,1.53-1.24,2.77-2.77,2.77c-1.53,0-2.77-1.24-2.77-2.77
		c0-1.53,1.24-2.77,2.77-2.77C368.115,95.479,369.355,96.719,369.355,98.249z"/>
	<path style="fill:#55D9CC;" d="M341.816,76.093c1.368-0.684,3.033-0.13,3.717,1.239c0.684,1.368,0.129,3.033-1.239,3.717
		c-1.368,0.684-3.033,0.13-3.717-1.239C339.892,78.441,340.447,76.777,341.816,76.093z"/>
	<path style="fill:#55D9CC;" d="M358.891,80.063c0,1.53-1.24,2.77-2.77,2.77c-1.53,0-2.77-1.24-2.77-2.77s1.24-2.77,2.77-2.77
		C357.65,77.293,358.891,78.533,358.891,80.063z"/>
	<path style="fill:#55D9CC;" d="M336.278,108.377c0,1.53-1.24,2.77-2.77,2.77c-1.53,0-2.77-1.24-2.77-2.77s1.24-2.77,2.77-2.77
		C335.038,105.606,336.278,106.847,336.278,108.377z"/>
	<path style="fill:#55D9CC;" d="M280.914,145.895c0,1.53-1.24,2.77-2.77,2.77c-1.53,0-2.77-1.24-2.77-2.77
		c0-1.53,1.24-2.77,2.77-2.77C279.674,143.125,280.914,144.365,280.914,145.895z"/>
	<path style="fill:#55D9CC;" d="M295.653,101.857c1.368-0.684,3.033-0.13,3.717,1.239c0.684,1.368,0.13,3.033-1.239,3.717
		c-1.368,0.684-3.033,0.13-3.717-1.239S294.285,102.541,295.653,101.857z"/>
	<path style="fill:#55D9CC;" d="M252.001,111.988c1.368-0.684,3.033-0.13,3.717,1.239c0.684,1.368,0.13,3.033-1.239,3.717
		c-1.368,0.684-3.033,0.13-3.717-1.239C250.078,114.337,250.633,112.673,252.001,111.988z"/>
	<path style="fill:#55D9CC;" d="M270.03,123.759c1.368-0.684,3.033-0.13,3.717,1.239c0.684,1.368,0.13,3.033-1.239,3.717
		c-1.368,0.684-3.032,0.13-3.717-1.239C268.107,126.108,268.662,124.443,270.03,123.759z"/>
	<path style="fill:#55D9CC;" d="M150.901,95.379c1.368-0.684,3.033-0.13,3.717,1.239c0.684,1.368,0.13,3.033-1.239,3.717
		c-1.368,0.684-3.033,0.13-3.717-1.239C148.978,97.727,149.533,96.063,150.901,95.379z"/>
	<path style="fill:#55D9CC;" d="M298.424,131.856c1.368-0.684,3.033-0.13,3.717,1.239c0.684,1.368,0.129,3.033-1.239,3.717
		c-1.368,0.684-3.033,0.13-3.717-1.239C296.501,134.204,297.056,132.54,298.424,131.856z"/>
	<path style="fill:#55D9CC;" d="M269.102,88.791c1.368-0.684,3.033-0.13,3.717,1.239c0.684,1.368,0.13,3.033-1.239,3.717
		c-1.368,0.684-3.033,0.13-3.717-1.239C267.179,91.139,267.734,89.475,269.102,88.791z"/>
	<path style="fill:#55D9CC;" d="M322.291,154.857c0,1.53-1.24,2.77-2.77,2.77c-1.53,0-2.77-1.24-2.77-2.77
		c0-1.53,1.24-2.77,2.77-2.77C321.051,152.087,322.291,153.327,322.291,154.857z"/>
	<path style="fill:#55D9CC;" d="M119.803,113.521c1.368-0.684,3.033-0.13,3.717,1.239c0.684,1.368,0.13,3.033-1.239,3.717
		c-1.368,0.684-3.033,0.13-3.717-1.239C117.88,115.869,118.435,114.205,119.803,113.521z"/>
	<path style="fill:#55D9CC;" d="M373.55,138.339c0,1.53-1.24,2.77-2.77,2.77c-1.53,0-2.77-1.24-2.77-2.77
		c0-1.53,1.24-2.77,2.77-2.77C372.309,135.568,373.55,136.809,373.55,138.339z"/>
	<path style="fill:#55D9CC;" d="M391.463,90.03c1.368-0.684,3.033-0.13,3.717,1.239c0.684,1.368,0.13,3.033-1.239,3.717
		c-1.368,0.684-3.033,0.13-3.717-1.239C389.54,92.378,390.094,90.714,391.463,90.03z"/>
	<g>
		<g>
			<g>
				<g>
					
						<line style="fill:none;stroke:#F1375A;stroke-width:1.8861;stroke-linecap:round;stroke-miterlimit:10;" x1="250.214" y1="335.848" x2="250.214" y2="335.848"/>
					
						<line style="fill:none;stroke:#F1375A;stroke-width:1.8861;stroke-linecap:round;stroke-miterlimit:10;stroke-dasharray:0,3.5654;" x1="250.214" y1="339.414" x2="250.214" y2="362.589"/>
					
						<line style="fill:none;stroke:#F1375A;stroke-width:1.8861;stroke-linecap:round;stroke-miterlimit:10;" x1="250.214" y1="364.372" x2="250.214" y2="364.372"/>
					
						<line style="fill:none;stroke:#F1375A;stroke-width:1.8861;stroke-linecap:round;stroke-miterlimit:10;stroke-dasharray:0,3.7897;" x1="246.424" y1="364.372" x2="130.837" y2="364.372"/>
					
						<line style="fill:none;stroke:#F1375A;stroke-width:1.8861;stroke-linecap:round;stroke-miterlimit:10;" x1="128.942" y1="364.372" x2="128.942" y2="364.372"/>
					
						<line style="fill:none;stroke:#F1375A;stroke-width:1.8861;stroke-linecap:round;stroke-miterlimit:10;stroke-dasharray:0,3.9512;" x1="128.942" y1="368.323" x2="128.942" y2="382.152"/>
					
						<line style="fill:none;stroke:#F1375A;stroke-width:1.8861;stroke-linecap:round;stroke-miterlimit:10;" x1="128.942" y1="384.128" x2="128.942" y2="384.128"/>
				</g>
			</g>
			<g>
				<g>
					
						<line style="fill:none;stroke:#F1375A;stroke-width:1.8861;stroke-linecap:round;stroke-miterlimit:10;" x1="250.214" y1="364.372" x2="250.214" y2="364.372"/>
					
						<line style="fill:none;stroke:#F1375A;stroke-width:1.8861;stroke-linecap:round;stroke-miterlimit:10;stroke-dasharray:0,3.7897;" x1="254.003" y1="364.372" x2="369.59" y2="364.372"/>
					
						<line style="fill:none;stroke:#F1375A;stroke-width:1.8861;stroke-linecap:round;stroke-miterlimit:10;" x1="371.485" y1="364.372" x2="371.485" y2="364.372"/>
					
						<line style="fill:none;stroke:#F1375A;stroke-width:1.8861;stroke-linecap:round;stroke-miterlimit:10;stroke-dasharray:0,3.9512;" x1="371.485" y1="368.323" x2="371.485" y2="382.152"/>
					
						<line style="fill:none;stroke:#F1375A;stroke-width:1.8861;stroke-linecap:round;stroke-miterlimit:10;" x1="371.485" y1="384.128" x2="371.485" y2="384.128"/>
				</g>
			</g>
			<g>
				<g>
					
						<line style="fill:none;stroke:#F1375A;stroke-width:1.8861;stroke-linecap:round;stroke-miterlimit:10;" x1="250.214" y1="364.372" x2="250.214" y2="364.372"/>
					
						<line style="fill:none;stroke:#F1375A;stroke-width:1.8861;stroke-linecap:round;stroke-miterlimit:10;stroke-dasharray:0,3.9512;" x1="250.214" y1="368.323" x2="250.214" y2="382.152"/>
					
						<line style="fill:none;stroke:#F1375A;stroke-width:1.8861;stroke-linecap:round;stroke-miterlimit:10;" x1="250.214" y1="384.128" x2="250.214" y2="384.128"/>
				</g>
			</g>
		</g>
		<g>
			<path style="fill:#EAF2DF;" d="M314.877,250.498H185.551c-3.729,0-6.752-3.023-6.752-6.752v-21.332
				c0-3.729,3.023-6.752,6.752-6.752h129.326c3.729,0,6.752,3.023,6.752,6.752v21.332
				C321.629,247.475,318.606,250.498,314.877,250.498z"/>
		</g>
		<g>
			<rect x="187.507" y="250.498" style="fill:#525252;" width="125.412" height="7.838"/>
		</g>
		<g>
			<path style="fill:#EAF2DF;" d="M314.877,293.173H185.551c-3.729,0-6.752-3.023-6.752-6.752v-21.332
				c0-3.729,3.023-6.752,6.752-6.752h129.326c3.729,0,6.752,3.023,6.752,6.752v21.332
				C321.629,290.15,318.606,293.173,314.877,293.173z"/>
		</g>
		<g>
			<rect x="187.507" y="293.173" style="fill:#525252;" width="125.412" height="7.838"/>
		</g>
		<g>
			<path style="fill:#EAF2DF;" d="M314.877,335.848H185.551c-3.729,0-6.752-3.023-6.752-6.752v-21.332
				c0-3.729,3.023-6.752,6.752-6.752h129.326c3.729,0,6.752,3.023,6.752,6.752v21.332
				C321.629,332.825,318.606,335.848,314.877,335.848z"/>
		</g>
		<polygon style="fill:#3AA2C0;" points="290.593,215.661 209.835,215.661 203.105,202.36 297.323,202.36 		"/>
		<path style="fill:#F1375A;" d="M302.033,202.36H198.394c-1.858,0-3.365-1.507-3.365-3.365l0,0c0-1.858,1.507-3.365,3.365-3.365
			h103.639c1.858,0,3.365,1.507,3.365,3.365l0,0C305.398,200.853,303.892,202.36,302.033,202.36z"/>
		<g>
			<path style="fill:#55D9CC;" d="M305.953,225.241L305.953,225.241c1.443,0,2.613-1.17,2.613-2.613v-6.967h-5.225v6.967
				C303.34,224.071,304.51,225.241,305.953,225.241z"/>
			<path style="fill:#55D9CC;" d="M297.243,225.241L297.243,225.241c1.443,0,2.613-1.17,2.613-2.613v-6.967h-5.225v6.967
				C294.631,224.071,295.8,225.241,297.243,225.241z"/>
			<path style="fill:#55D9CC;" d="M288.534,225.241L288.534,225.241c1.443,0,2.613-1.17,2.613-2.613v-6.967h-5.225v6.967
				C285.921,224.071,287.091,225.241,288.534,225.241z"/>
		</g>
		<g>
			<path style="fill:#F5A404;" d="M305.953,267.916L305.953,267.916c1.443,0,2.613-1.17,2.613-2.613v-6.967h-5.225v6.967
				C303.34,266.746,304.51,267.916,305.953,267.916z"/>
			<path style="fill:#F5A404;" d="M297.243,267.916L297.243,267.916c1.443,0,2.613-1.17,2.613-2.613v-6.967h-5.225v6.967
				C294.631,266.746,295.8,267.916,297.243,267.916z"/>
			<path style="fill:#F5A404;" d="M288.534,267.916L288.534,267.916c1.443,0,2.613-1.17,2.613-2.613v-6.967h-5.225v6.967
				C285.921,266.746,287.091,267.916,288.534,267.916z"/>
		</g>
		<g>
			<path style="fill:#F1375A;" d="M305.953,310.591L305.953,310.591c1.443,0,2.613-1.17,2.613-2.613v-6.967h-5.225v6.967
				C303.34,309.422,304.51,310.591,305.953,310.591z"/>
			<path style="fill:#F1375A;" d="M297.243,310.591L297.243,310.591c1.443,0,2.613-1.17,2.613-2.613v-6.967h-5.225v6.967
				C294.631,309.422,295.8,310.591,297.243,310.591z"/>
			<path style="fill:#F1375A;" d="M288.534,310.591L288.534,310.591c1.443,0,2.613-1.17,2.613-2.613v-6.967h-5.225v6.967
				C285.921,309.422,287.091,310.591,288.534,310.591z"/>
		</g>
		<rect x="188.378" y="220.016" style="fill:#FFFFFF;" width="66.19" height="26.128"/>
		<rect x="188.378" y="262.691" style="fill:#FFFFFF;" width="66.19" height="26.128"/>
		<rect x="188.378" y="305.366" style="fill:#FFFFFF;" width="66.19" height="26.128"/>
		<rect x="190.991" y="223.499" style="fill:#F1375A;" width="5.226" height="5.226"/>
		<rect x="197.958" y="223.499" style="fill:#F1375A;" width="5.226" height="5.226"/>
		<rect x="204.926" y="223.499" style="fill:#F1375A;" width="5.225" height="5.226"/>
		<rect x="211.893" y="223.499" style="fill:#F1375A;" width="5.225" height="5.226"/>
		<rect x="218.861" y="223.499" style="fill:#F1375A;" width="5.225" height="5.226"/>
		<rect x="225.828" y="223.499" style="fill:#F1375A;" width="5.226" height="5.226"/>
		<rect x="232.795" y="223.499" style="fill:#F1375A;" width="5.225" height="5.226"/>
		<rect x="239.763" y="223.499" style="fill:#F1375A;" width="5.225" height="5.226"/>
		<rect x="246.73" y="223.499" style="fill:#F1375A;" width="5.225" height="5.226"/>
		<rect x="190.991" y="230.467" style="fill:#F1375A;" width="5.226" height="5.226"/>
		<rect x="197.958" y="230.467" style="fill:#F1375A;" width="5.226" height="5.226"/>
		<rect x="204.926" y="230.467" style="fill:#F1375A;" width="5.225" height="5.226"/>
		<rect x="211.893" y="230.467" style="fill:#F1375A;" width="5.225" height="5.226"/>
		<rect x="218.861" y="230.467" style="fill:#F1375A;" width="5.225" height="5.226"/>
		<rect x="225.828" y="230.467" style="fill:#F1375A;" width="5.226" height="5.226"/>
		<rect x="232.795" y="230.467" style="fill:#F1375A;" width="5.225" height="5.226"/>
		<rect x="239.763" y="230.467" style="fill:#F1375A;" width="5.225" height="5.226"/>
		<rect x="246.73" y="230.467" style="fill:#F1375A;" width="5.225" height="5.226"/>
		<rect x="190.991" y="237.434" style="fill:#F1375A;" width="5.226" height="5.226"/>
		<rect x="197.958" y="237.434" style="fill:#F1375A;" width="5.226" height="5.226"/>
		<rect x="204.926" y="237.434" style="fill:#F1375A;" width="5.225" height="5.226"/>
		<rect x="211.893" y="237.434" style="fill:#F1375A;" width="5.225" height="5.226"/>
		<rect x="218.861" y="237.434" style="fill:#F1375A;" width="5.225" height="5.226"/>
		<g>
			<path style="fill:#55D9CC;" d="M196.217,267.916c0,1.443-1.17,2.613-2.613,2.613c-1.443,0-2.613-1.17-2.613-2.613
				c0-1.443,1.17-2.613,2.613-2.613C195.047,265.303,196.217,266.473,196.217,267.916z"/>
			<path style="fill:#55D9CC;" d="M203.184,267.916c0,1.443-1.17,2.613-2.613,2.613c-1.443,0-2.613-1.17-2.613-2.613
				c0-1.443,1.17-2.613,2.613-2.613C202.014,265.303,203.184,266.473,203.184,267.916z"/>
			<path style="fill:#55D9CC;" d="M210.151,267.916c0,1.443-1.17,2.613-2.613,2.613c-1.443,0-2.613-1.17-2.613-2.613
				c0-1.443,1.17-2.613,2.613-2.613C208.982,265.303,210.151,266.473,210.151,267.916z"/>
			<path style="fill:#55D9CC;" d="M217.119,267.916c0,1.443-1.17,2.613-2.613,2.613c-1.443,0-2.613-1.17-2.613-2.613
				c0-1.443,1.17-2.613,2.613-2.613C215.949,265.303,217.119,266.473,217.119,267.916z"/>
			<path style="fill:#55D9CC;" d="M224.086,267.916c0,1.443-1.17,2.613-2.613,2.613c-1.443,0-2.613-1.17-2.613-2.613
				c0-1.443,1.17-2.613,2.613-2.613C222.916,265.303,224.086,266.473,224.086,267.916z"/>
			<path style="fill:#55D9CC;" d="M231.053,267.916c0,1.443-1.17,2.613-2.613,2.613c-1.443,0-2.613-1.17-2.613-2.613
				c0-1.443,1.17-2.613,2.613-2.613C229.884,265.303,231.053,266.473,231.053,267.916z"/>
			<path style="fill:#55D9CC;" d="M238.021,267.916c0,1.443-1.17,2.613-2.613,2.613c-1.443,0-2.613-1.17-2.613-2.613
				c0-1.443,1.17-2.613,2.613-2.613C236.851,265.303,238.021,266.473,238.021,267.916z"/>
			<path style="fill:#55D9CC;" d="M244.988,267.916c0,1.443-1.17,2.613-2.613,2.613c-1.443,0-2.613-1.17-2.613-2.613
				c0-1.443,1.17-2.613,2.613-2.613C243.818,265.303,244.988,266.473,244.988,267.916z"/>
			<path style="fill:#55D9CC;" d="M251.955,267.916c0,1.443-1.17,2.613-2.613,2.613c-1.443,0-2.613-1.17-2.613-2.613
				c0-1.443,1.17-2.613,2.613-2.613C250.786,265.303,251.955,266.473,251.955,267.916z"/>
			<path style="fill:#55D9CC;" d="M196.217,275.755c0,1.443-1.17,2.613-2.613,2.613c-1.443,0-2.613-1.17-2.613-2.613
				c0-1.443,1.17-2.613,2.613-2.613C195.047,273.142,196.217,274.312,196.217,275.755z"/>
			<path style="fill:#55D9CC;" d="M203.184,275.755c0,1.443-1.17,2.613-2.613,2.613c-1.443,0-2.613-1.17-2.613-2.613
				c0-1.443,1.17-2.613,2.613-2.613C202.014,273.142,203.184,274.312,203.184,275.755z"/>
			<path style="fill:#55D9CC;" d="M210.151,275.755c0,1.443-1.17,2.613-2.613,2.613c-1.443,0-2.613-1.17-2.613-2.613
				c0-1.443,1.17-2.613,2.613-2.613C208.982,273.142,210.151,274.312,210.151,275.755z"/>
			<path style="fill:#55D9CC;" d="M217.119,275.755c0,1.443-1.17,2.613-2.613,2.613c-1.443,0-2.613-1.17-2.613-2.613
				c0-1.443,1.17-2.613,2.613-2.613C215.949,273.142,217.119,274.312,217.119,275.755z"/>
			<path style="fill:#55D9CC;" d="M224.086,275.755c0,1.443-1.17,2.613-2.613,2.613c-1.443,0-2.613-1.17-2.613-2.613
				c0-1.443,1.17-2.613,2.613-2.613C222.916,273.142,224.086,274.312,224.086,275.755z"/>
			<path style="fill:#55D9CC;" d="M231.053,275.755c0,1.443-1.17,2.613-2.613,2.613c-1.443,0-2.613-1.17-2.613-2.613
				c0-1.443,1.17-2.613,2.613-2.613C229.884,273.142,231.053,274.312,231.053,275.755z"/>
			<path style="fill:#55D9CC;" d="M238.021,275.755c0,1.443-1.17,2.613-2.613,2.613c-1.443,0-2.613-1.17-2.613-2.613
				c0-1.443,1.17-2.613,2.613-2.613C236.851,273.142,238.021,274.312,238.021,275.755z"/>
			<path style="fill:#55D9CC;" d="M244.988,275.755c0,1.443-1.17,2.613-2.613,2.613c-1.443,0-2.613-1.17-2.613-2.613
				c0-1.443,1.17-2.613,2.613-2.613C243.818,273.142,244.988,274.312,244.988,275.755z"/>
			<path style="fill:#55D9CC;" d="M251.955,275.755c0,1.443-1.17,2.613-2.613,2.613c-1.443,0-2.613-1.17-2.613-2.613
				c0-1.443,1.17-2.613,2.613-2.613C250.786,273.142,251.955,274.312,251.955,275.755z"/>
			<path style="fill:#55D9CC;" d="M196.217,283.593c0,1.443-1.17,2.613-2.613,2.613c-1.443,0-2.613-1.17-2.613-2.613
				s1.17-2.613,2.613-2.613C195.047,280.98,196.217,282.15,196.217,283.593z"/>
			<path style="fill:#55D9CC;" d="M203.184,283.593c0,1.443-1.17,2.613-2.613,2.613c-1.443,0-2.613-1.17-2.613-2.613
				s1.17-2.613,2.613-2.613C202.014,280.98,203.184,282.15,203.184,283.593z"/>
			<path style="fill:#55D9CC;" d="M210.151,283.593c0,1.443-1.17,2.613-2.613,2.613c-1.443,0-2.613-1.17-2.613-2.613
				s1.17-2.613,2.613-2.613C208.982,280.98,210.151,282.15,210.151,283.593z"/>
			<path style="fill:#55D9CC;" d="M217.119,283.593c0,1.443-1.17,2.613-2.613,2.613c-1.443,0-2.613-1.17-2.613-2.613
				s1.17-2.613,2.613-2.613C215.949,280.98,217.119,282.15,217.119,283.593z"/>
			<path style="fill:#55D9CC;" d="M224.086,283.593c0,1.443-1.17,2.613-2.613,2.613c-1.443,0-2.613-1.17-2.613-2.613
				s1.17-2.613,2.613-2.613C222.916,280.98,224.086,282.15,224.086,283.593z"/>
			<path style="fill:#55D9CC;" d="M231.053,283.593c0,1.443-1.17,2.613-2.613,2.613c-1.443,0-2.613-1.17-2.613-2.613
				s1.17-2.613,2.613-2.613C229.884,280.98,231.053,282.15,231.053,283.593z"/>
			<path style="fill:#55D9CC;" d="M238.021,283.593c0,1.443-1.17,2.613-2.613,2.613c-1.443,0-2.613-1.17-2.613-2.613
				s1.17-2.613,2.613-2.613C236.851,280.98,238.021,282.15,238.021,283.593z"/>
		</g>
		<g>
			<g>
				<polygon style="fill:#F5A404;" points="193.604,308.579 190.991,313.804 196.217,313.804 				"/>
				<polygon style="fill:#F5A404;" points="200.571,308.579 197.958,313.804 203.184,313.804 				"/>
				<polygon style="fill:#F5A404;" points="207.539,308.579 204.926,313.804 210.151,313.804 				"/>
				<polygon style="fill:#F5A404;" points="214.506,308.579 211.893,313.804 217.119,313.804 				"/>
				<polygon style="fill:#F5A404;" points="221.473,308.579 218.861,313.804 224.086,313.804 				"/>
				<polygon style="fill:#F5A404;" points="228.441,308.579 225.828,313.804 231.053,313.804 				"/>
				<polygon style="fill:#F5A404;" points="235.408,308.579 232.795,313.804 238.021,313.804 				"/>
				<polygon style="fill:#F5A404;" points="242.375,308.579 239.763,313.804 244.988,313.804 				"/>
				<polygon style="fill:#F5A404;" points="249.343,308.579 246.73,313.804 251.955,313.804 				"/>
			</g>
			<g>
				<polygon style="fill:#F5A404;" points="193.604,315.546 190.991,320.772 196.217,320.772 				"/>
				<polygon style="fill:#F5A404;" points="200.571,315.546 197.958,320.772 203.184,320.772 				"/>
				<polygon style="fill:#F5A404;" points="207.539,315.546 204.926,320.772 210.151,320.772 				"/>
				<polygon style="fill:#F5A404;" points="214.506,315.546 211.893,320.772 217.119,320.772 				"/>
				<polygon style="fill:#F5A404;" points="221.473,315.546 218.861,320.772 224.086,320.772 				"/>
				<polygon style="fill:#F5A404;" points="228.441,315.546 225.828,320.772 231.053,320.772 				"/>
				<polygon style="fill:#F5A404;" points="235.408,315.546 232.795,320.772 238.021,320.772 				"/>
				<polygon style="fill:#F5A404;" points="242.375,315.546 239.763,320.772 244.988,320.772 				"/>
				<polygon style="fill:#F5A404;" points="249.343,315.546 246.73,320.772 251.955,320.772 				"/>
			</g>
			<g>
				<polygon style="fill:#F5A404;" points="193.604,322.513 190.991,327.739 196.217,327.739 				"/>
				<polygon style="fill:#F5A404;" points="200.571,322.513 197.958,327.739 203.184,327.739 				"/>
			</g>
		</g>
		<g>
			
				<ellipse transform="matrix(0.3889 -0.9213 0.9213 0.3889 -225.252 481.3522)" style="fill:none;stroke:#F1375A;stroke-width:1.8861;stroke-linecap:round;stroke-miterlimit:10;stroke-dasharray:0,3.7606;" cx="250.214" cy="410.469" rx="26.342" ry="26.342"/>
		</g>
		<g>
			
				<ellipse transform="matrix(0.3889 -0.9213 0.9213 0.3889 -299.3604 369.6274)" style="fill:none;stroke:#F1375A;stroke-width:1.8861;stroke-linecap:round;stroke-miterlimit:10;stroke-dasharray:0,3.7606;" cx="128.942" cy="410.469" rx="26.342" ry="26.342"/>
		</g>
		<g>
			
				<ellipse transform="matrix(0.3889 -0.9213 0.9213 0.3889 -151.1436 593.0769)" style="fill:none;stroke:#F1375A;stroke-width:1.8861;stroke-linecap:round;stroke-miterlimit:10;stroke-dasharray:0,3.7606;" cx="371.485" cy="410.469" rx="26.342" ry="26.342"/>
		</g>
		<rect x="113.915" y="395.388" style="fill:#F1375A;" width="30.162" height="30.162"/>
		<circle style="fill:#55D9CC;" cx="250.214" cy="410.469" r="15.081"/>
		<polygon style="fill:#F5A404;" points="371.485,392.237 356.404,422.399 386.566,422.399 		"/>
	</g>
	<text transform="matrix(1 0 0 1 171.7856 74.3442)"><tspan x="0" y="0" style="fill:#000; font-family:'BebasNeueBook'; font-size:38.6258px; letter-spacing:7;">BIG DATA</tspan><tspan x="140.016" y="0" style="fill:#55D9CC; font-family:'BebasNeueBook'; font-size:38.6258px;">A</tspan></text>
	<rect x="201.275" y="180.53" style="fill:#F1375A;" width="5.897" height="5.897"/>
	<rect x="165.904" y="114.208" style="fill:#F1375A;" width="5.897" height="5.897"/>
	
		<rect x="185.541" y="123.852" transform="matrix(0.6192 -0.7852 0.7852 0.6192 -27.79 196.2989)" style="fill:#F1375A;" width="5.897" height="5.897"/>
	
		<rect x="183.545" y="84.444" transform="matrix(0.6192 -0.7852 0.7852 0.6192 2.394 179.7223)" style="fill:#F1375A;" width="5.897" height="5.897"/>
	
		<rect x="192.873" y="183.115" transform="matrix(0.8266 -0.5628 0.5628 0.8266 -70.7575 142.4599)" style="fill:#F1375A;" width="5.897" height="5.897"/>
	
		<rect x="163.368" y="107.163" transform="matrix(0.8266 -0.5628 0.5628 0.8266 -33.1304 112.6853)" style="fill:#F1375A;" width="5.897" height="5.897"/>
	
		<rect x="171.452" y="104.216" transform="matrix(0.8266 -0.5627 0.5627 0.8266 -30.0704 116.7224)" style="fill:#F1375A;" width="5.897" height="5.897"/>
	
		<rect x="155.145" y="104.216" transform="matrix(0.8266 -0.5627 0.5627 0.8266 -32.8974 107.5461)" style="fill:#F1375A;" width="5.897" height="5.897"/>
	
		<rect x="184.237" y="102.918" transform="matrix(0.9993 -0.0362 0.0362 0.9993 -3.7135 6.8529)" style="fill:#F1375A;" width="5.897" height="5.897"/>
	
		<rect x="175.548" y="120.472" transform="matrix(0.9557 -0.2945 0.2945 0.9557 -28.4294 58.0349)" style="fill:#F1375A;" width="5.897" height="5.897"/>
	
		<rect x="190.785" y="175.658" transform="matrix(0.9939 -0.1099 0.1099 0.9939 -18.4479 22.3631)" style="fill:#F1375A;" width="5.897" height="5.897"/>
	
		<rect x="225.267" y="182.333" transform="matrix(-0.0683 0.9977 -0.9977 -0.0683 428.6526 -29.7445)" style="fill:#F1375A;" width="5.897" height="5.897"/>
	
		<rect x="207.366" y="170.537" transform="matrix(-0.0683 0.9977 -0.9977 -0.0683 397.761 -24.4878)" style="fill:#F1375A;" width="5.897" height="5.897"/>
	
		<rect x="213.09" y="149.615" transform="matrix(0.7411 0.6714 -0.6714 0.7411 158.3582 -105.547)" style="fill:#F1375A;" width="5.897" height="5.897"/>
	
		<rect x="195.473" y="138.198" transform="matrix(0.7411 0.6714 -0.6714 0.7411 146.1294 -96.6745)" style="fill:#F1375A;" width="5.897" height="5.897"/>
	
		<rect x="180.266" y="132.992" transform="matrix(0.7411 0.6714 -0.6714 0.7411 138.6998 -87.8135)" style="fill:#F1375A;" width="5.897" height="5.897"/>
	
		<rect x="230.844" y="163.076" transform="matrix(0.7411 0.6714 -0.6714 0.7411 171.9916 -113.982)" style="fill:#F1375A;" width="5.897" height="5.897"/>
	
		<rect x="233.634" y="182.333" transform="matrix(0.505 0.8631 -0.8631 0.505 277.0345 -112.4834)" style="fill:#F1375A;" width="5.897" height="5.897"/>
	
		<rect x="235.419" y="145.582" transform="matrix(0.505 0.8631 -0.8631 0.505 246.1971 -132.2174)" style="fill:#F1375A;" width="5.897" height="5.897"/>
	
		<rect x="235.787" y="153.217" transform="matrix(0.505 0.8631 -0.8631 0.505 252.9731 -128.7549)" style="fill:#F1375A;" width="5.897" height="5.897"/>
	
		<rect x="291.694" y="183.478" transform="matrix(0.505 0.8631 -0.8631 0.505 306.7636 -162.0303)" style="fill:#F1375A;" width="5.897" height="5.897"/>
	
		<rect x="220.227" y="115.172" transform="matrix(0.505 0.8631 -0.8631 0.505 212.4326 -134.1583)" style="fill:#F1375A;" width="5.897" height="5.897"/>
	
		<rect x="223.211" y="128.827" transform="matrix(0.505 0.8631 -0.8631 0.505 225.692 -129.9736)" style="fill:#F1375A;" width="5.897" height="5.897"/>
	
		<rect x="255.327" y="178.144" transform="matrix(0.505 0.8631 -0.8631 0.505 284.1565 -133.2813)" style="fill:#F1375A;" width="5.897" height="5.897"/>
	
		<rect x="238.922" y="138.925" transform="matrix(0.505 0.8631 -0.8631 0.505 242.1886 -138.5354)" style="fill:#F1375A;" width="5.897" height="5.897"/>
	
		<rect x="213.09" y="129.384" transform="matrix(0.505 0.8631 -0.8631 0.505 221.1623 -120.9622)" style="fill:#F1375A;" width="5.897" height="5.897"/>
	
		<rect x="256.412" y="147.941" transform="matrix(-0.7046 -0.7096 0.7096 -0.7046 335.0176 441.2534)" style="fill:#F1375A;" width="5.897" height="5.897"/>
	
		<rect x="259.361" y="138.925" transform="matrix(-0.7046 -0.7096 0.7096 -0.7046 346.4418 427.9778)" style="fill:#F1375A;" width="5.897" height="5.897"/>
	
		<rect x="243.991" y="121.143" transform="matrix(-0.7046 -0.7097 0.7097 -0.7046 332.8577 386.7624)" style="fill:#F1375A;" width="5.897" height="5.897"/>
	
		<rect x="261.033" y="156.273" transform="matrix(-0.7046 -0.7097 0.7097 -0.7046 336.9773 458.7365)" style="fill:#F1375A;" width="5.897" height="5.897"/>
	
		<rect x="248.47" y="143.619" transform="matrix(-0.7046 -0.7096 0.7096 -0.7046 324.5464 428.2507)" style="fill:#F1375A;" width="5.897" height="5.897"/>
	
		<rect x="236.872" y="165.485" transform="matrix(-0.0321 0.9995 -0.9995 -0.0321 415.8662 -65.8566)" style="fill:#F1375A;" width="5.897" height="5.897"/>
	
		<rect x="206.173" y="157.251" transform="matrix(0.2285 0.9735 -0.9735 0.2285 317.2967 -79.9958)" style="fill:#F1375A;" width="5.897" height="5.897"/>
	
		<rect x="204.223" y="136.144" transform="matrix(0.2285 0.9735 -0.9735 0.2285 295.2445 -94.3812)" style="fill:#F1375A;" width="5.897" height="5.897"/>
	
		<rect x="162.839" y="97.758" transform="matrix(0.505 0.8631 -0.8631 0.505 168.9902 -93.245)" style="fill:#F1375A;" width="5.897" height="5.897"/>
	
		<rect x="147.647" y="67.348" transform="matrix(0.505 0.8631 -0.8631 0.505 135.2247 -95.1859)" style="fill:#F1375A;" width="5.897" height="5.897"/>
	
		<rect x="150.631" y="81.003" transform="matrix(0.505 0.8631 -0.8631 0.505 148.488 -91.0012)" style="fill:#F1375A;" width="5.897" height="5.897"/>
	
		<rect x="166.341" y="91.101" transform="matrix(0.505 0.8631 -0.8631 0.505 164.9811 -99.563)" style="fill:#F1375A;" width="5.897" height="5.897"/>
	
		<rect x="140.509" y="81.56" transform="matrix(0.505 0.8631 -0.8631 0.505 143.9557 -81.9897)" style="fill:#F1375A;" width="5.897" height="5.897"/>
	
		<rect x="131.643" y="88.32" transform="matrix(0.2285 0.9735 -0.9735 0.2285 192.6909 -60.6171)" style="fill:#F1375A;" width="5.897" height="5.897"/>
	
		<rect x="166.028" y="145.582" transform="matrix(0.5887 -0.8083 0.8083 0.5887 -50.5656 197.6777)" style="fill:#F1375A;" width="5.897" height="5.897"/>
	
		<rect x="179.705" y="157.251" transform="matrix(0.0318 -0.9995 0.9995 0.0318 16.7336 337.672)" style="fill:#F1375A;" width="5.897" height="5.897"/>
	
		<rect x="170.051" y="154.955" transform="matrix(0.4964 -0.8681 0.8681 0.4964 -49.9495 229.7085)" style="fill:#F1375A;" width="5.897" height="5.897"/>
	
		<rect x="187.596" y="146.802" transform="matrix(0.7662 0.6426 -0.6426 0.7662 140.7636 -87.4295)" style="fill:#F1375A;" width="5.897" height="5.897"/>
	
		<rect x="176.101" y="144.374" transform="matrix(0.9215 0.3885 -0.3885 0.9215 71.2885 -57.9829)" style="fill:#F1375A;" width="5.897" height="5.897"/>
	
		<rect x="195.473" y="125.006" transform="matrix(0.9215 0.3885 -0.3885 0.9215 65.2864 -67.0288)" style="fill:#F1375A;" width="5.897" height="5.897"/>
	
		<rect x="230.844" y="172.201" transform="matrix(0.0417 0.9991 -0.9991 0.0417 399.0446 -65.7401)" style="fill:#F1375A;" width="5.897" height="5.897"/>
	
		<rect x="245.936" y="158.342" transform="matrix(0.0417 0.9991 -0.9991 0.0417 399.6558 -94.1034)" style="fill:#F1375A;" width="5.897" height="5.897"/>
	
		<rect x="304.381" y="127.527" transform="matrix(0.7411 0.6714 -0.6714 0.7411 167.1632 -172.5569)" style="fill:#F1375A;" width="5.897" height="5.897"/>
	
		<rect x="286.764" y="116.11" transform="matrix(0.7411 0.6714 -0.6714 0.7411 154.937 -163.685)" style="fill:#F1375A;" width="5.897" height="5.897"/>
	
		<rect x="271.557" y="110.904" transform="matrix(0.7411 0.6714 -0.6714 0.7411 147.5014 -154.8218)" style="fill:#F1375A;" width="5.897" height="5.897"/>
	
		<rect x="322.135" y="140.988" transform="matrix(0.7411 0.6714 -0.6714 0.7411 180.8007 -180.9937)" style="fill:#F1375A;" width="5.897" height="5.897"/>
	
		<rect x="326.711" y="123.493" transform="matrix(0.505 0.8631 -0.8631 0.505 272.3278 -221.9486)" style="fill:#F1375A;" width="5.897" height="5.897"/>
	
		<rect x="327.078" y="131.129" transform="matrix(0.505 0.8631 -0.8631 0.505 279.0999 -218.4863)" style="fill:#F1375A;" width="5.897" height="5.897"/>
	
		<rect x="311.519" y="93.084" transform="matrix(0.505 0.8631 -0.8631 0.505 238.5548 -223.8885)" style="fill:#F1375A;" width="5.897" height="5.897"/>
	
		<rect x="314.502" y="106.739" transform="matrix(0.505 0.8631 -0.8631 0.505 251.8179 -219.704)" style="fill:#F1375A;" width="5.897" height="5.897"/>
	
		<rect x="330.213" y="116.837" transform="matrix(0.505 0.8631 -0.8631 0.505 268.3158 -228.2668)" style="fill:#F1375A;" width="5.897" height="5.897"/>
	
		<rect x="304.381" y="107.295" transform="matrix(0.505 0.8631 -0.8631 0.505 247.2928 -210.6934)" style="fill:#F1375A;" width="5.897" height="5.897"/>
	
		<rect x="335.282" y="99.055" transform="matrix(-0.7045 -0.7097 0.7097 -0.7045 504.1398 413.8994)" style="fill:#F1375A;" width="5.897" height="5.897"/>
	
		<rect x="339.761" y="121.531" transform="matrix(-0.7046 -0.7097 0.7097 -0.7046 495.8289 455.3866)" style="fill:#F1375A;" width="5.897" height="5.897"/>
	
		<rect x="328.164" y="143.397" transform="matrix(-0.0321 0.9995 -0.9995 -0.0321 488.0119 -179.8981)" style="fill:#F1375A;" width="5.897" height="5.897"/>
	
		<rect x="297.464" y="135.162" transform="matrix(0.2285 0.9735 -0.9735 0.2285 366.2238 -185.9129)" style="fill:#F1375A;" width="5.897" height="5.897"/>
	
		<rect x="295.515" y="114.056" transform="matrix(0.2285 0.9735 -0.9735 0.2285 344.1723 -200.2982)" style="fill:#F1375A;" width="5.897" height="5.897"/>
	
		<rect x="270.996" y="135.162" transform="matrix(0.0317 -0.9995 0.9995 0.0317 127.2069 407.5332)" style="fill:#F1375A;" width="5.897" height="5.897"/>
	
		<rect x="278.888" y="124.714" transform="matrix(0.7662 0.6426 -0.6426 0.7662 147.9146 -151.254)" style="fill:#F1375A;" width="5.897" height="5.897"/>
	
		<rect x="323.064" y="84.444" transform="matrix(0.7662 0.6426 -0.6426 0.7662 132.3654 -189.0533)" style="fill:#F1375A;" width="5.897" height="5.897"/>
	
		<rect x="267.393" y="122.286" transform="matrix(0.9215 0.3884 -0.3884 0.9215 69.8742 -95.1768)" style="fill:#F1375A;" width="5.897" height="5.897"/>
	
		<rect x="286.764" y="102.918" transform="matrix(0.9215 0.3884 -0.3884 0.9215 63.8739 -104.2242)" style="fill:#F1375A;" width="5.897" height="5.897"/>
	
		<rect x="264.83" y="98.113" transform="matrix(0.7411 0.6714 -0.6714 0.7411 137.1753 -153.6182)" style="fill:#F1375A;" width="5.897" height="5.897"/>
	
		<rect x="249.623" y="92.906" transform="matrix(0.7411 0.6714 -0.6714 0.7411 129.7401 -144.7551)" style="fill:#F1375A;" width="5.897" height="5.897"/>
	
		<rect x="273.581" y="96.059" transform="matrix(0.2285 0.9735 -0.9735 0.2285 309.7338 -192.8288)" style="fill:#F1375A;" width="5.897" height="5.897"/>
	
		<rect x="256.954" y="106.716" transform="matrix(0.7662 0.6426 -0.6426 0.7662 131.2226 -141.3672)" style="fill:#F1375A;" width="5.897" height="5.897"/>
	
		<rect x="245.459" y="104.288" transform="matrix(0.9215 0.3884 -0.3884 0.9215 61.1596 -88.0687)" style="fill:#F1375A;" width="5.897" height="5.897"/>
	
		<rect x="264.83" y="84.92" transform="matrix(0.9215 0.3884 -0.3884 0.9215 55.1588 -97.1154)" style="fill:#F1375A;" width="5.897" height="5.897"/>
	
		<rect x="337.227" y="136.253" transform="matrix(0.0417 0.9991 -0.9991 0.0417 465.0714 -206.4827)" style="fill:#F1375A;" width="5.897" height="5.897"/>
	
		<rect x="278.429" y="174.515" transform="matrix(-0.0683 0.9977 -0.9977 -0.0683 477.6455 -91.1347)" style="fill:#F1375A;" width="5.897" height="5.897"/>
	
		<rect x="296.81" y="154.955" transform="matrix(0.7411 0.6714 -0.6714 0.7411 183.6132 -160.3715)" style="fill:#F1375A;" width="5.897" height="5.897"/>
	
		<rect x="288.949" y="172.201" transform="matrix(0.505 0.8631 -0.8631 0.505 295.6759 -165.243)" style="fill:#F1375A;" width="5.897" height="5.897"/>
	
		<rect x="290.034" y="141.548" transform="matrix(0.505 0.8631 -0.8631 0.505 269.7551 -181.3543)" style="fill:#F1375A;" width="5.897" height="5.897"/>
	
		<rect x="308.489" y="170.325" transform="matrix(0.505 0.8631 -0.8631 0.505 303.7242 -183.0372)" style="fill:#F1375A;" width="5.897" height="5.897"/>
	
		<rect x="309.574" y="140.122" transform="matrix(-0.7046 -0.7097 0.7097 -0.7046 431.1797 465.654)" style="fill:#F1375A;" width="5.897" height="5.897"/>
	
		<rect x="314.195" y="148.455" transform="matrix(-0.7045 -0.7097 0.7097 -0.7045 433.1389 483.1375)" style="fill:#F1375A;" width="5.897" height="5.897"/>
	
		<rect x="123.405" y="126.401" transform="matrix(0.7411 0.6714 -0.6714 0.7411 119.5523 -51.3443)" style="fill:#F1375A;" width="5.897" height="5.897"/>
	
		<rect x="105.788" y="114.984" transform="matrix(0.7411 0.6714 -0.6714 0.7411 107.3265 -42.4725)" style="fill:#F1375A;" width="5.897" height="5.897"/>
	
		<rect x="141.159" y="139.862" transform="matrix(0.7411 0.6714 -0.6714 0.7411 133.1879 -59.7794)" style="fill:#F1375A;" width="5.897" height="5.897"/>
	
		<rect x="145.735" y="122.367" transform="matrix(0.505 0.8631 -0.8631 0.505 181.7645 -66.2996)" style="fill:#F1375A;" width="5.897" height="5.897"/>
	
		<rect x="146.102" y="130.002" transform="matrix(0.505 0.8631 -0.8631 0.505 188.5412 -62.8363)" style="fill:#F1375A;" width="5.897" height="5.897"/>
	
		<rect x="133.526" y="105.613" transform="matrix(0.505 0.8631 -0.8631 0.505 161.2598 -64.0557)" style="fill:#F1375A;" width="5.897" height="5.897"/>
	
		<rect x="149.237" y="115.711" transform="matrix(0.505 0.8631 -0.8631 0.505 177.7553 -72.6172)" style="fill:#F1375A;" width="5.897" height="5.897"/>
	
		<rect x="123.405" y="106.169" transform="matrix(0.505 0.8631 -0.8631 0.505 156.7324 -55.0438)" style="fill:#F1375A;" width="5.897" height="5.897"/>
	
		<rect x="158.785" y="120.405" transform="matrix(-0.7046 -0.7097 0.7097 -0.7046 188.1454 325.0367)" style="fill:#F1375A;" width="5.897" height="5.897"/>
	<rect x="351.049" y="104.095" style="fill:#F1375A;" width="5.897" height="5.897"/>
	
		<rect x="370.686" y="113.739" transform="matrix(0.6192 -0.7852 0.7852 0.6192 50.6583 337.8333)" style="fill:#F1375A;" width="5.897" height="5.897"/>
	
		<rect x="376.474" y="92.066" transform="matrix(0.6192 -0.7852 0.7852 0.6192 69.8757 334.117)" style="fill:#F1375A;" width="5.897" height="5.897"/>
	
		<rect x="348.514" y="97.05" transform="matrix(0.8266 -0.5627 0.5627 0.8266 4.6596 215.1214)" style="fill:#F1375A;" width="5.897" height="5.897"/>
	
		<rect x="367.703" y="79.183" transform="matrix(0.8266 -0.5628 0.5628 0.8266 18.043 222.8279)" style="fill:#F1375A;" width="5.897" height="5.897"/>
	
		<rect x="365.665" y="101.709" transform="matrix(0.9993 -0.0362 0.0362 0.9993 -3.5505 13.4267)" style="fill:#F1375A;" width="5.897" height="5.897"/>
	
		<rect x="360.694" y="110.359" transform="matrix(0.9557 -0.2945 0.2945 0.9557 -17.242 112.107)" style="fill:#F1375A;" width="5.897" height="5.897"/>
	
		<rect x="398.235" y="139.502" transform="matrix(0.7411 0.6714 -0.6714 0.7411 199.4962 -232.4662)" style="fill:#F1375A;" width="5.897" height="5.897"/>
	
		<rect x="380.619" y="128.085" transform="matrix(0.7411 0.6714 -0.6714 0.7411 187.2744 -223.5966)" style="fill:#F1375A;" width="5.897" height="5.897"/>
	
		<rect x="365.412" y="122.879" transform="matrix(0.7411 0.6714 -0.6714 0.7411 179.8425 -214.7352)" style="fill:#F1375A;" width="5.897" height="5.897"/>
	
		<rect x="398.235" y="119.271" transform="matrix(0.505 0.8631 -0.8631 0.505 304.0903 -285.7745)" style="fill:#F1375A;" width="5.897" height="5.897"/>
	
		<rect x="389.369" y="126.031" transform="matrix(0.2285 0.9735 -0.9735 0.2285 428.2368 -282.4307)" style="fill:#F1375A;" width="5.897" height="5.897"/>
	
		<rect x="351.174" y="135.469" transform="matrix(0.5887 -0.8083 0.8083 0.5887 33.7588 343.1831)" style="fill:#F1375A;" width="5.897" height="5.897"/>
	
		<rect x="372.742" y="136.689" transform="matrix(0.7662 0.6426 -0.6426 0.7662 177.5493 -208.7618)" style="fill:#F1375A;" width="5.897" height="5.897"/>
	
		<rect x="361.247" y="134.261" transform="matrix(0.9215 0.3884 -0.3884 0.9215 81.8957 -130.6929)" style="fill:#F1375A;" width="5.897" height="5.897"/>
	
		<rect x="380.618" y="114.893" transform="matrix(0.9215 0.3884 -0.3884 0.9215 75.8919 -139.7363)" style="fill:#F1375A;" width="5.897" height="5.897"/>
	
		<rect x="343.931" y="110.292" transform="matrix(-0.7046 -0.7097 0.7097 -0.7046 510.9123 439.1882)" style="fill:#F1375A;" width="5.897" height="5.897"/>
	
		<rect x="147.188" y="142.271" transform="matrix(-0.0321 0.9995 -0.9995 -0.0321 300.1006 -0.1777)" style="fill:#F1375A;" width="5.897" height="5.897"/>
	
		<rect x="116.488" y="134.036" transform="matrix(0.2285 0.9735 -0.9735 0.2285 225.5055 -10.5938)" style="fill:#F1375A;" width="5.897" height="5.897"/>
	
		<rect x="114.539" y="112.93" transform="matrix(0.2285 0.9735 -0.9735 0.2285 203.4531 -24.9794)" style="fill:#F1375A;" width="5.897" height="5.897"/>
	
		<rect x="103.067" y="99.726" transform="matrix(0.9215 0.3884 -0.3884 0.9215 48.2076 -33.1179)" style="fill:#F1375A;" width="5.897" height="5.897"/>
	
		<rect x="156.251" y="135.127" transform="matrix(0.0417 0.9991 -0.9991 0.0417 290.517 -26.7431)" style="fill:#F1375A;" width="5.897" height="5.897"/>
	
		<rect x="109.058" y="140.422" transform="matrix(0.505 0.8631 -0.8631 0.505 179.1946 -25.7047)" style="fill:#F1375A;" width="5.897" height="5.897"/>
	
		<rect x="128.598" y="138.996" transform="matrix(-0.7046 -0.7097 0.7097 -0.7046 123.4962 335.3041)" style="fill:#F1375A;" width="5.897" height="5.897"/>
	
		<rect x="133.219" y="147.328" transform="matrix(-0.7046 -0.7097 0.7097 -0.7046 125.4593 352.7863)" style="fill:#F1375A;" width="5.897" height="5.897"/>
	
		<rect x="290.034" y="157.667" transform="matrix(-0.0321 0.9995 -0.9995 -0.0321 462.9204 -127.0605)" style="fill:#F1375A;" width="5.897" height="5.897"/>
	
		<rect x="275.414" y="164.741" transform="matrix(0.0417 0.9991 -0.9991 0.0417 434.304 -117.4207)" style="fill:#F1375A;" width="5.897" height="5.897"/>
	
		<rect x="281.497" y="141.548" transform="matrix(0.0417 0.9991 -0.9991 0.0417 416.9602 -145.7255)" style="fill:#F1375A;" width="5.897" height="5.897"/>
	
		<rect x="349.548" y="86.847" transform="matrix(0.7411 0.6714 -0.6714 0.7411 151.5404 -213.41)" style="fill:#F1375A;" width="5.897" height="5.897"/>
	
		<rect x="340.423" y="69.937" transform="matrix(0.9902 -0.1397 0.1397 0.9902 -6.8149 48.6828)" style="fill:#F1375A;" width="5.897" height="5.897"/>
	
		<rect x="342.772" y="89.559" transform="matrix(-0.0321 0.9995 -0.9995 -0.0321 449.278 -250.0654)" style="fill:#F1375A;" width="5.897" height="5.897"/>
	
		<rect x="337.183" y="77.835" transform="matrix(0.9402 0.3405 -0.3405 0.9402 47.8412 -111.0022)" style="fill:#F1375A;" width="5.897" height="5.897"/>
	
		<rect x="205.037" y="108.742" transform="matrix(-0.7046 -0.7096 0.7096 -0.7046 275.263 337.9793)" style="fill:#F1375A;" width="5.897" height="5.897"/>
	
		<rect x="207.986" y="99.726" transform="matrix(-0.7046 -0.7097 0.7097 -0.7046 286.6844 324.7047)" style="fill:#F1375A;" width="5.897" height="5.897"/>
	
		<rect x="197.095" y="104.42" transform="matrix(-0.7046 -0.7097 0.7097 -0.7046 264.7891 324.9774)" style="fill:#F1375A;" width="5.897" height="5.897"/>
	
		<rect x="219.621" y="95.964" transform="matrix(0.0317 -0.9995 0.9995 0.0317 116.6415 318.23)" style="fill:#F1375A;" width="5.897" height="5.897"/>
	
		<rect x="230.122" y="102.349" transform="matrix(0.0417 0.9991 -0.9991 0.0417 328.5584 -131.9612)" style="fill:#F1375A;" width="5.897" height="5.897"/>
	<path style="fill:#55D9CC;" d="M233.486,185.891c0,1.53-1.24,2.77-2.77,2.77c-1.53,0-2.77-1.24-2.77-2.77
		c0-1.53,1.24-2.77,2.77-2.77C232.245,183.121,233.486,184.361,233.486,185.891z"/>
	<path style="fill:#55D9CC;" d="M244.261,172.122c0,1.53-1.24,2.77-2.77,2.77c-1.53,0-2.77-1.24-2.77-2.77s1.24-2.77,2.77-2.77
		C243.02,169.351,244.261,170.592,244.261,172.122z"/>
	<path style="fill:#55D9CC;" d="M234.964,162.953c0,1.53-1.24,2.77-2.77,2.77c-1.53,0-2.77-1.24-2.77-2.77
		c0-1.53,1.24-2.77,2.77-2.77C233.724,160.183,234.964,161.423,234.964,162.953z"/>
	<path style="fill:#55D9CC;" d="M215.318,163.43c0,1.53-1.24,2.77-2.77,2.77s-2.77-1.24-2.77-2.77s1.24-2.77,2.77-2.77
		S215.318,161.9,215.318,163.43z"/>
	<path style="fill:#55D9CC;" d="M218.088,146.522c0,1.53-1.24,2.77-2.77,2.77c-1.53,0-2.77-1.24-2.77-2.77s1.24-2.77,2.77-2.77
		C216.848,143.751,218.088,144.992,218.088,146.522z"/>
	<path style="fill:#55D9CC;" d="M239.026,137.949c0,1.53-1.24,2.77-2.77,2.77s-2.77-1.24-2.77-2.77c0-1.53,1.24-2.77,2.77-2.77
		S239.026,136.419,239.026,137.949z"/>
	<path style="fill:#55D9CC;" d="M234.964,127.233c0,1.53-1.24,2.77-2.77,2.77c-1.53,0-2.77-1.24-2.77-2.77
		c0-1.53,1.24-2.77,2.77-2.77C233.724,124.462,234.964,125.703,234.964,127.233z"/>
	<path style="fill:#55D9CC;" d="M209.777,113.063c0,1.53-1.24,2.77-2.77,2.77s-2.77-1.24-2.77-2.77c0-1.53,1.24-2.77,2.77-2.77
		S209.777,111.533,209.777,113.063z"/>
	<path style="fill:#55D9CC;" d="M207.007,120.684c0,1.53-1.24,2.77-2.77,2.77s-2.77-1.24-2.77-2.77s1.24-2.77,2.77-2.77
		S207.007,119.154,207.007,120.684z"/>
	<path style="fill:#55D9CC;" d="M184.893,109.704c0,1.53-1.24,2.77-2.77,2.77s-2.77-1.24-2.77-2.77s1.24-2.77,2.77-2.77
		S184.893,108.174,184.893,109.704z"/>
	<path style="fill:#55D9CC;" d="M178.82,116.516c0,1.53-1.24,2.77-2.77,2.77c-1.53,0-2.77-1.24-2.77-2.77
		c0-1.53,1.24-2.77,2.77-2.77C177.58,113.746,178.82,114.986,178.82,116.516z"/>
	<path style="fill:#55D9CC;" d="M253.553,142.473c0,1.53-1.24,2.77-2.77,2.77c-1.53,0-2.77-1.24-2.77-2.77
		c0-1.53,1.24-2.77,2.77-2.77C252.313,139.703,253.553,140.943,253.553,142.473z"/>
	<path style="fill:#55D9CC;" d="M248.012,148.665c0,1.53-1.24,2.77-2.77,2.77s-2.77-1.24-2.77-2.77c0-1.53,1.24-2.77,2.77-2.77
		S248.012,147.135,248.012,148.665z"/>
	<path style="fill:#55D9CC;" d="M189.017,156.805c0,1.53-1.24,2.77-2.77,2.77c-1.53,0-2.77-1.24-2.77-2.77s1.24-2.77,2.77-2.77
		C187.777,154.035,189.017,155.275,189.017,156.805z"/>
	<path style="fill:#55D9CC;" d="M166.389,166.581c0,1.53-1.24,2.77-2.77,2.77c-1.53,0-2.77-1.24-2.77-2.77s1.24-2.77,2.77-2.77
		C165.149,163.811,166.389,165.051,166.389,166.581z"/>
	<path style="fill:#55D9CC;" d="M195.304,136.066c1.368-0.684,3.033-0.13,3.717,1.239c0.684,1.368,0.13,3.033-1.239,3.717
		c-1.368,0.684-3.033,0.13-3.717-1.239C193.38,138.415,193.935,136.751,195.304,136.066z"/>
	<path style="fill:#55D9CC;" d="M156.839,109.996c1.368-0.684,3.033-0.13,3.717,1.239c0.684,1.368,0.13,3.033-1.239,3.717
		c-1.368,0.684-3.033,0.13-3.717-1.239C154.915,112.345,155.47,110.681,156.839,109.996z"/>
	<path style="fill:#55D9CC;" d="M156.839,124.755c1.368-0.684,3.033-0.13,3.717,1.239c0.684,1.368,0.13,3.033-1.239,3.717
		c-1.368,0.684-3.033,0.13-3.717-1.239C154.915,127.103,155.47,125.439,156.839,124.755z"/>
	<path style="fill:#55D9CC;" d="M140.86,111.268c1.368-0.684,3.033-0.129,3.717,1.239c0.684,1.368,0.13,3.032-1.239,3.717
		c-1.368,0.684-3.033,0.13-3.717-1.239C138.937,113.617,139.492,111.952,140.86,111.268z"/>
	<path style="fill:#55D9CC;" d="M140.86,118.206c1.368-0.684,3.033-0.13,3.717,1.239c0.684,1.368,0.13,3.033-1.239,3.717
		c-1.368,0.684-3.033,0.13-3.717-1.239C138.937,120.554,139.492,118.89,140.86,118.206z"/>
	<path style="fill:#55D9CC;" d="M131.216,131.899c1.368-0.684,3.033-0.13,3.717,1.239c0.684,1.368,0.13,3.033-1.239,3.717
		c-1.368,0.684-3.033,0.13-3.717-1.239C129.292,134.247,129.847,132.583,131.216,131.899z"/>
	<path style="fill:#55D9CC;" d="M159.61,139.996c1.368-0.684,3.033-0.13,3.717,1.239c0.684,1.368,0.13,3.033-1.239,3.717
		c-1.368,0.684-3.033,0.13-3.717-1.239C157.686,142.344,158.241,140.68,159.61,139.996z"/>
	<path style="fill:#55D9CC;" d="M187.778,141.274c1.368-0.684,3.033-0.13,3.717,1.239c0.684,1.368,0.13,3.033-1.239,3.717
		c-1.368,0.684-3.033,0.13-3.717-1.239C185.855,143.622,186.41,141.958,187.778,141.274z"/>
	<circle style="fill:#55D9CC;" cx="229.423" cy="115" r="2.77"/>
	<path style="fill:#55D9CC;" d="M376.023,87.771c0,1.53-1.24,2.77-2.77,2.77s-2.77-1.24-2.77-2.77c0-1.53,1.24-2.77,2.77-2.77
		S376.023,86.241,376.023,87.771z"/>
	<path style="fill:#55D9CC;" d="M372.125,81.341c0,1.53-1.24,2.77-2.77,2.77s-2.77-1.24-2.77-2.77s1.24-2.77,2.77-2.77
		S372.125,79.811,372.125,81.341z"/>
	<path style="fill:#55D9CC;" d="M343.055,91.625c0,1.53-1.24,2.77-2.77,2.77c-1.53,0-2.77-1.24-2.77-2.77
		c0-1.53,1.24-2.77,2.77-2.77C341.814,88.854,343.055,90.095,343.055,91.625z"/>
	<path style="fill:#55D9CC;" d="M349.341,70.886c1.368-0.684,3.033-0.129,3.717,1.239c0.684,1.368,0.13,3.033-1.239,3.717
		c-1.368,0.684-3.033,0.13-3.717-1.239C347.418,73.234,347.972,71.57,349.341,70.886z"/>
	<path style="fill:#55D9CC;" d="M337.514,97.816c0,1.53-1.24,2.77-2.77,2.77s-2.77-1.24-2.77-2.77c0-1.53,1.24-2.77,2.77-2.77
		S337.514,96.286,337.514,97.816z"/>
	<path style="fill:#55D9CC;" d="M146.383,142.473c0,1.53-1.24,2.77-2.77,2.77c-1.53,0-2.77-1.24-2.77-2.77
		c0-1.53,1.24-2.77,2.77-2.77C145.142,139.703,146.383,140.943,146.383,142.473z"/>
	<path style="fill:#55D9CC;" d="M151.923,156.047c0,1.53-1.24,2.77-2.77,2.77s-2.77-1.24-2.77-2.77c0-1.53,1.24-2.77,2.77-2.77
		S151.923,154.517,151.923,156.047z"/>
	<path style="fill:#55D9CC;" d="M323.707,101.564c0,1.53-1.24,2.77-2.77,2.77s-2.77-1.24-2.77-2.77s1.24-2.77,2.77-2.77
		S323.707,100.034,323.707,101.564z"/>
	<path style="fill:#55D9CC;" d="M317.635,108.377c0,1.53-1.24,2.77-2.77,2.77c-1.53,0-2.77-1.24-2.77-2.77s1.24-2.77,2.77-2.77
		C316.395,105.606,317.635,106.847,317.635,108.377z"/>
	<path style="fill:#55D9CC;" d="M327.832,148.666c0,1.53-1.24,2.77-2.77,2.77c-1.53,0-2.77-1.24-2.77-2.77
		c0-1.53,1.24-2.77,2.77-2.77C326.592,145.895,327.832,147.136,327.832,148.666z"/>
	<path style="fill:#55D9CC;" d="M305.204,158.441c0,1.53-1.24,2.77-2.77,2.77c-1.53,0-2.77-1.24-2.77-2.77s1.24-2.77,2.77-2.77
		C303.964,155.671,305.204,156.911,305.204,158.441z"/>
	<path style="fill:#55D9CC;" d="M334.118,127.927c1.368-0.684,3.033-0.129,3.717,1.239c0.684,1.368,0.13,3.033-1.239,3.717
		c-1.368,0.684-3.033,0.129-3.717-1.239S332.75,128.611,334.118,127.927z"/>
	<path style="fill:#55D9CC;" d="M290.738,109.12c1.368-0.684,3.033-0.13,3.717,1.239c0.684,1.368,0.129,3.033-1.239,3.717
		c-1.368,0.684-3.033,0.13-3.717-1.239C288.815,111.468,289.37,109.804,290.738,109.12z"/>
	<path style="fill:#55D9CC;" d="M295.653,116.615c1.368-0.684,3.033-0.129,3.717,1.239c0.684,1.368,0.13,3.032-1.239,3.717
		c-1.368,0.684-3.033,0.13-3.717-1.239S294.285,117.299,295.653,116.615z"/>
	<path style="fill:#55D9CC;" d="M173.161,97.521c1.368-0.684,3.033-0.13,3.717,1.239c0.684,1.368,0.13,3.033-1.239,3.717
		c-1.369,0.684-3.033,0.13-3.717-1.239C171.238,99.869,171.793,98.205,173.161,97.521z"/>
	<path style="fill:#55D9CC;" d="M247.086,119.251c1.368-0.684,3.033-0.13,3.717,1.239c0.684,1.369,0.13,3.033-1.239,3.717
		c-1.368,0.684-3.033,0.13-3.717-1.239C245.163,121.6,245.717,119.936,247.086,119.251z"/>
	<path style="fill:#55D9CC;" d="M214.079,89.727c1.368-0.684,3.033-0.13,3.717,1.239c0.684,1.368,0.13,3.033-1.239,3.717
		c-1.368,0.684-3.033,0.13-3.717-1.239C212.155,92.075,212.71,90.411,214.079,89.727z"/>
	<path style="fill:#55D9CC;" d="M252.001,126.746c1.368-0.684,3.033-0.13,3.717,1.239c0.684,1.369,0.13,3.033-1.239,3.717
		c-1.368,0.684-3.033,0.13-3.717-1.239C250.078,129.095,250.633,127.431,252.001,126.746z"/>
	<path style="fill:#55D9CC;" d="M279.675,103.129c1.368-0.684,3.033-0.13,3.717,1.239c0.684,1.368,0.13,3.033-1.239,3.717
		c-1.368,0.684-3.033,0.13-3.717-1.239C277.752,105.477,278.306,103.813,279.675,103.129z"/>
	<path style="fill:#55D9CC;" d="M279.675,110.066c1.368-0.684,3.033-0.13,3.717,1.239c0.684,1.368,0.13,3.033-1.239,3.717
		c-1.368,0.684-3.033,0.13-3.717-1.239C277.752,112.415,278.306,110.751,279.675,110.066z"/>
	<path style="fill:#55D9CC;" d="M150.901,80.62c1.368-0.684,3.033-0.13,3.717,1.239c0.684,1.368,0.13,3.033-1.239,3.717
		c-1.368,0.684-3.033,0.129-3.717-1.239C148.978,82.969,149.533,81.305,150.901,80.62z"/>
	<path style="fill:#55D9CC;" d="M145.986,87.883c1.368-0.684,3.033-0.13,3.717,1.239c0.684,1.368,0.13,3.033-1.239,3.717
		c-1.368,0.684-3.033,0.13-3.717-1.239C144.063,90.232,144.618,88.567,145.986,87.883z"/>
	<path style="fill:#55D9CC;" d="M134.923,81.892c1.368-0.684,3.032-0.13,3.717,1.239c0.684,1.368,0.13,3.033-1.239,3.717
		c-1.368,0.684-3.033,0.13-3.717-1.239C133,84.24,133.554,82.576,134.923,81.892z"/>
	<path style="fill:#55D9CC;" d="M134.923,88.83c1.368-0.684,3.032-0.13,3.717,1.239c0.684,1.368,0.13,3.033-1.239,3.717
		c-1.368,0.684-3.033,0.13-3.717-1.239C133,91.178,133.554,89.514,134.923,88.83z"/>
	<path style="fill:#55D9CC;" d="M125.278,102.523c1.368-0.684,3.033-0.129,3.717,1.239c0.684,1.368,0.13,3.032-1.239,3.717
		c-1.368,0.684-3.033,0.13-3.717-1.239C123.355,104.871,123.91,103.207,125.278,102.523z"/>
	<path style="fill:#55D9CC;" d="M318.282,120.875c1.368-0.684,3.033-0.13,3.717,1.239c0.684,1.368,0.13,3.033-1.239,3.717
		c-1.369,0.684-3.033,0.13-3.717-1.239C316.359,123.224,316.914,121.56,318.282,120.875z"/>
	<path style="fill:#55D9CC;" d="M326.593,133.134c1.368-0.684,3.033-0.13,3.717,1.239c0.684,1.368,0.129,3.033-1.239,3.717
		c-1.369,0.684-3.033,0.13-3.717-1.239C324.67,135.482,325.225,133.818,326.593,133.134z"/>
	<path style="fill:#55D9CC;" d="M312.728,148.078c-0.765,1.325-2.459,1.779-3.784,1.014c-1.325-0.765-1.779-2.459-1.014-3.784
		c0.765-1.325,2.459-1.779,3.784-1.014C313.039,145.059,313.493,146.753,312.728,148.078z"/>
	<path style="fill:#55D9CC;" d="M271.269,134.853c0,1.53-1.24,2.77-2.77,2.77c-1.53,0-2.77-1.24-2.77-2.77s1.24-2.77,2.77-2.77
		C270.029,132.083,271.269,133.323,271.269,134.853z"/>
	<path style="fill:#55D9CC;" d="M265.729,141.045c0,1.53-1.24,2.77-2.77,2.77c-1.53,0-2.77-1.24-2.77-2.77s1.24-2.77,2.77-2.77
		C264.488,138.274,265.729,139.515,265.729,141.045z"/>
	<path style="fill:#55D9CC;" d="M285.197,134.334c0,1.53-1.24,2.77-2.77,2.77s-2.77-1.24-2.77-2.77c0-1.53,1.24-2.77,2.77-2.77
		S285.197,132.804,285.197,134.334z"/>
	<path style="fill:#55D9CC;" d="M303.183,87.771c0,1.53-1.24,2.77-2.77,2.77s-2.77-1.24-2.77-2.77c0-1.53,1.24-2.77,2.77-2.77
		S303.183,86.241,303.183,87.771z"/>
	<circle style="fill:#55D9CC;" cx="127.916" cy="135.657" r="2.77"/>
	<path style="fill:#55D9CC;" d="M121.042,124.614c0,1.53-1.24,2.77-2.77,2.77s-2.77-1.24-2.77-2.77c0-1.53,1.24-2.77,2.77-2.77
		S121.042,123.084,121.042,124.614z"/>
	<path style="fill:#55D9CC;" d="M115.501,130.806c0,1.53-1.24,2.77-2.77,2.77c-1.53,0-2.77-1.24-2.77-2.77
		c0-1.53,1.24-2.77,2.77-2.77C114.261,128.036,115.501,129.276,115.501,130.806z"/>
	<path style="fill:#55D9CC;" d="M134.97,124.095c0,1.53-1.24,2.77-2.77,2.77s-2.77-1.24-2.77-2.77s1.24-2.77,2.77-2.77
		S134.97,122.565,134.97,124.095z"/>
	<path style="fill:#55D9CC;" d="M290.738,147.908c0,1.53-1.24,2.77-2.77,2.77s-2.77-1.24-2.77-2.77c0-1.53,1.24-2.77,2.77-2.77
		S290.738,146.378,290.738,147.908z"/>
	<path style="fill:#55D9CC;" d="M203.004,172.824c0,1.53-1.24,2.77-2.77,2.77c-1.53,0-2.77-1.24-2.77-2.77s1.24-2.77,2.77-2.77
		C201.764,170.054,203.004,171.294,203.004,172.824z"/>
	<path style="fill:#55D9CC;" d="M265.396,152.063c0,1.53-1.24,2.77-2.77,2.77s-2.77-1.24-2.77-2.77s1.24-2.77,2.77-2.77
		S265.396,150.533,265.396,152.063z"/>
	<path style="fill:#55D9CC;" d="M347.18,124.225c0,1.53-1.24,2.77-2.77,2.77c-1.53,0-2.77-1.24-2.77-2.77s1.24-2.77,2.77-2.77
		C345.939,121.454,347.18,122.695,347.18,124.225z"/>
	<path style="fill:#55D9CC;" d="M361.706,128.749c0,1.53-1.24,2.77-2.77,2.77s-2.77-1.24-2.77-2.77s1.24-2.77,2.77-2.77
		S361.706,127.219,361.706,128.749z"/>
	<path style="fill:#55D9CC;" d="M356.165,134.941c0,1.53-1.24,2.77-2.77,2.77s-2.77-1.24-2.77-2.77s1.24-2.77,2.77-2.77
		S356.165,133.411,356.165,134.941z"/>
	<path style="fill:#55D9CC;" d="M360.452,141.998c0,1.53-1.24,2.77-2.77,2.77s-2.77-1.24-2.77-2.77c0-1.53,1.24-2.77,2.77-2.77
		S360.452,140.468,360.452,141.998z"/>
	<path style="fill:#55D9CC;" d="M379.422,121.129c0,1.53-1.24,2.77-2.77,2.77c-1.53,0-2.77-1.24-2.77-2.77
		c0-1.53,1.24-2.77,2.77-2.77C378.182,118.359,379.422,119.599,379.422,121.129z"/>
	<path style="fill:#55D9CC;" d="M373.882,127.321c0,1.53-1.24,2.77-2.77,2.77c-1.53,0-2.77-1.24-2.77-2.77
		c0-1.53,1.24-2.77,2.77-2.77C372.641,124.55,373.882,125.791,373.882,127.321z"/>
	<path style="fill:#55D9CC;" d="M259.856,169.351c0,1.53-1.24,2.77-2.77,2.77s-2.77-1.24-2.77-2.77c0-1.53,1.24-2.77,2.77-2.77
		S259.856,167.821,259.856,169.351z"/>
	<path style="fill:#55D9CC;" d="M281.407,177.091c0,1.53-1.24,2.77-2.77,2.77c-1.53,0-2.77-1.24-2.77-2.77
		c0-1.53,1.24-2.77,2.77-2.77C280.167,174.32,281.407,175.561,281.407,177.091z"/>
	<path style="fill:#55D9CC;" d="M300.22,155.722c0,1.53-1.24,2.77-2.77,2.77s-2.77-1.24-2.77-2.77c0-1.53,1.24-2.77,2.77-2.77
		S300.22,154.192,300.22,155.722z"/>
	<path style="fill:#55D9CC;" d="M300.22,174.32c0,1.53-1.24,2.77-2.77,2.77s-2.77-1.24-2.77-2.77s1.24-2.77,2.77-2.77
		S300.22,172.79,300.22,174.32z"/>
	<path style="fill:#55D9CC;" d="M289.98,156.817c0,1.53-1.24,2.77-2.77,2.77c-1.53,0-2.77-1.24-2.77-2.77
		c0-1.53,1.24-2.77,2.77-2.77C288.74,154.047,289.98,155.287,289.98,156.817z"/>
	<path style="fill:#55D9CC;" d="M389.467,107.117c0,1.53-1.24,2.77-2.77,2.77s-2.77-1.24-2.77-2.77s1.24-2.77,2.77-2.77
		S389.467,105.587,389.467,107.117z"/>
	<path style="fill:#55D9CC;" d="M395.007,120.691c0,1.53-1.24,2.77-2.77,2.77s-2.77-1.24-2.77-2.77s1.24-2.77,2.77-2.77
		S395.007,119.161,395.007,120.691z"/>
	<path style="fill:#55D9CC;" d="M404.49,128.505c0,1.53-1.24,2.77-2.77,2.77c-1.53,0-2.77-1.24-2.77-2.77
		c0-1.53,1.24-2.77,2.77-2.77C403.249,125.735,404.49,126.975,404.49,128.505z"/>
	<path style="fill:#55D9CC;" d="M394.249,129.601c0,1.53-1.24,2.77-2.77,2.77s-2.77-1.24-2.77-2.77s1.24-2.77,2.77-2.77
		S394.249,128.071,394.249,129.601z"/>
	<polygon style="fill:#F5A404;" points="271.147,178.961 265.548,181.611 269.908,185.031 	"/>
	<polygon style="fill:#F5A404;" points="270.526,188.332 276.006,191.221 276.125,185.682 	"/>
	<polygon style="fill:#F5A404;" points="242.347,161.611 236.748,164.261 241.108,167.68 	"/>
	<polygon style="fill:#F5A404;" points="210.543,136.133 204.944,138.783 209.304,142.202 	"/>
	<polygon style="fill:#F5A404;" points="231.292,178.793 225.692,181.443 230.052,184.863 	"/>
	<polygon style="fill:#F5A404;" points="242.62,173.712 248.099,176.601 248.219,171.061 	"/>
	<polygon style="fill:#F5A404;" points="261.539,174.525 266.709,171.111 261.91,168.341 	"/>
	<polygon style="fill:#F5A404;" points="254.104,173.577 255.343,167.508 249.992,168.944 	"/>
	<polygon style="fill:#F5A404;" points="270.512,162.483 266.892,167.51 272.362,168.395 	"/>
	<polygon style="fill:#F5A404;" points="213.268,119.201 218.437,115.788 213.639,113.018 	"/>
	<polygon style="fill:#F5A404;" points="222.24,107.159 218.621,112.187 224.09,113.071 	"/>
	<polygon style="fill:#F5A404;" points="267.027,143.431 261.428,146.081 265.788,149.5 	"/>
	<polygon style="fill:#F5A404;" points="266.406,152.802 271.886,155.691 272.005,150.152 	"/>
	<polygon style="fill:#F5A404;" points="251.526,140.327 256.695,136.914 251.897,134.144 	"/>
	<polygon style="fill:#F5A404;" points="260.498,128.286 256.878,133.313 262.348,134.197 	"/>
	<polygon style="fill:#F5A404;" points="270.633,127.591 265.034,130.241 269.393,133.66 	"/>
	<polygon style="fill:#F5A404;" points="241.833,110.24 236.234,112.89 240.593,116.31 	"/>
	<polygon style="fill:#F5A404;" points="242.105,122.341 247.585,125.23 247.704,119.691 	"/>
	<polygon style="fill:#F5A404;" points="261.025,123.154 266.194,119.741 261.396,116.97 	"/>
	<polygon style="fill:#F5A404;" points="253.59,122.207 254.829,116.137 249.478,117.574 	"/>
	<polygon style="fill:#F5A404;" points="269.997,111.112 266.378,116.14 271.847,117.024 	"/>
	<polygon style="fill:#F5A404;" points="234.387,142.112 239.556,138.699 234.758,135.928 	"/>
	<polygon style="fill:#F5A404;" points="233.147,122.669 234.387,116.6 229.035,118.036 	"/>
	<polygon style="fill:#F5A404;" points="245.511,127.776 241.892,132.803 247.361,133.688 	"/>
	<polygon style="fill:#F5A404;" points="223.587,143.644 217.988,146.294 222.348,149.713 	"/>
	<polygon style="fill:#F5A404;" points="223.86,155.745 229.34,158.634 229.459,153.094 	"/>
	<polygon style="fill:#F5A404;" points="242.78,156.558 247.949,153.144 243.151,150.374 	"/>
	<polygon style="fill:#F5A404;" points="235.344,155.611 236.583,149.541 231.232,150.977 	"/>
	<polygon style="fill:#F5A404;" points="215.88,174.311 209.703,173.842 211.799,178.971 	"/>
	<polygon style="fill:#F5A404;" points="204.554,186.316 198.377,185.847 200.473,190.976 	"/>
	<polygon style="fill:#F5A404;" points="199.648,153.36 193.472,152.891 195.567,158.02 	"/>
	<polygon style="fill:#F5A404;" points="202.721,160.062 206.052,165.285 208.898,160.531 	"/>
	<polygon style="fill:#F5A404;" points="218.757,170.134 224.938,169.727 222.141,164.945 	"/>
	<polygon style="fill:#F5A404;" points="212.766,165.631 216.847,160.97 211.486,159.57 	"/>
	<polygon style="fill:#F5A404;" points="251.752,144.516 248.132,149.543 253.602,150.428 	"/>
	<polygon style="fill:#F5A404;" points="281.473,149.97 286.642,146.557 281.844,143.787 	"/>
	<polygon style="fill:#F5A404;" points="290.445,137.929 286.826,142.956 292.295,143.841 	"/>
	<polygon style="fill:#F5A404;" points="328.408,143.564 322.809,146.214 327.169,149.634 	"/>
	<polygon style="fill:#F5A404;" points="327.788,152.935 333.267,155.824 333.387,150.285 	"/>
	<polygon style="fill:#F5A404;" points="299.608,126.214 294.009,128.864 298.369,132.283 	"/>
	<polygon style="fill:#F5A404;" points="299.881,138.315 305.361,141.204 305.48,135.664 	"/>
	<polygon style="fill:#F5A404;" points="318.801,139.128 323.97,135.714 319.172,132.944 	"/>
	<polygon style="fill:#F5A404;" points="311.365,138.18 312.605,132.111 307.253,133.547 	"/>
	<polygon style="fill:#F5A404;" points="327.773,127.086 324.154,132.113 329.623,132.998 	"/>
	<polygon style="fill:#F5A404;" points="280.849,108.247 275.25,110.897 279.61,114.316 	"/>
	<polygon style="fill:#F5A404;" points="281.121,120.348 286.601,123.237 286.721,117.697 	"/>
	<polygon style="fill:#F5A404;" points="300.041,121.16 305.211,117.747 300.412,114.977 	"/>
	<polygon style="fill:#F5A404;" points="292.606,120.213 293.845,114.144 288.494,115.58 	"/>
	<polygon style="fill:#F5A404;" points="309.013,109.119 305.394,114.146 310.863,115.031 	"/>
	<polygon style="fill:#F5A404;" points="163.727,120.551 158.128,123.201 162.488,126.62 	"/>
	<polygon style="fill:#F5A404;" points="146.993,143.062 152.163,139.649 147.364,136.878 	"/>
	<polygon style="fill:#F5A404;" points="177.194,118.025 171.595,120.676 175.955,124.095 	"/>
	<polygon style="fill:#F5A404;" points="158.434,100.059 152.835,102.709 157.195,106.128 	"/>
	<polygon style="fill:#F5A404;" points="158.707,112.16 164.187,115.049 164.306,109.509 	"/>
	<polygon style="fill:#F5A404;" points="177.627,112.972 182.796,109.559 177.998,106.789 	"/>
	<polygon style="fill:#F5A404;" points="186.599,100.931 182.98,105.958 188.449,106.843 	"/>
	<polygon style="fill:#F5A404;" points="149.553,152.841 145.544,157.563 150.926,158.882 	"/>
	<polygon style="fill:#F5A404;" points="181.753,131.131 180.381,125.091 176.097,128.605 	"/>
	<polygon style="fill:#F5A404;" points="169.881,128.772 165.872,133.494 171.253,134.812 	"/>
	<polygon style="fill:#F5A404;" points="164.982,147.064 167.192,152.851 170.938,148.768 	"/>
	<polygon style="fill:#F5A404;" points="206.897,124.973 201.298,127.623 205.658,131.042 	"/>
	<polygon style="fill:#F5A404;" points="167.52,140.011 173.176,142.538 172.935,137.003 	"/>
	<polygon style="fill:#F5A404;" points="174.79,158.436 170.668,153.811 168.617,158.959 	"/>
	<polygon style="fill:#F5A404;" points="203.363,116.717 201.99,110.677 197.707,114.191 	"/>
	<polygon style="fill:#F5A404;" points="191.491,114.358 187.481,119.08 192.863,120.398 	"/>
	<polygon style="fill:#F5A404;" points="189.13,125.598 194.786,128.124 194.545,122.589 	"/>
	<polygon style="fill:#F5A404;" points="196.4,144.022 192.278,139.398 190.227,144.545 	"/>
	<polygon style="fill:#F5A404;" points="214.723,86.63 209.124,89.28 213.484,92.699 	"/>
	<polygon style="fill:#F5A404;" points="271.207,93.928 265.608,96.578 269.968,99.998 	"/>
	<polygon style="fill:#F5A404;" points="255.706,90.824 260.875,87.411 256.077,84.641 	"/>
	<polygon style="fill:#F5A404;" points="274.192,87.459 279.672,90.348 279.791,84.809 	"/>
	<polygon style="fill:#F5A404;" points="238.567,92.609 243.736,89.196 238.938,86.426 	"/>
	<polygon style="fill:#F5A404;" points="227.768,94.141 222.168,96.791 226.528,100.21 	"/>
	<polygon style="fill:#F5A404;" points="228.04,106.242 233.52,109.131 233.639,103.592 	"/>
	<polygon style="fill:#F5A404;" points="246.96,107.055 252.129,103.642 247.331,100.871 	"/>
	<polygon style="fill:#F5A404;" points="203.828,103.857 197.652,103.388 199.747,108.518 	"/>
	<polygon style="fill:#F5A404;" points="255.932,95.013 252.313,100.04 257.782,100.925 	"/>
	<polygon style="fill:#F5A404;" points="285.653,100.468 290.822,97.054 286.024,94.284 	"/>
	<polygon style="fill:#F5A404;" points="294.625,88.426 291.005,93.453 296.475,94.338 	"/>
	<polygon style="fill:#F5A404;" points="332.589,94.061 326.99,96.712 331.349,100.131 	"/>
	<polygon style="fill:#F5A404;" points="331.968,103.432 337.447,106.322 337.567,100.782 	"/>
	<polygon style="fill:#F5A404;" points="304.061,88.812 309.541,91.701 309.66,86.161 	"/>
	<polygon style="fill:#F5A404;" points="340.366,121.807 334.767,124.457 339.126,127.876 	"/>
	<polygon style="fill:#F5A404;" points="339.745,131.178 345.225,134.067 345.344,128.528 	"/>
	<polygon style="fill:#F5A404;" points="339.73,105.329 336.111,110.356 341.58,111.241 	"/>
	<polygon style="fill:#F5A404;" points="351.206,144.187 356.375,140.773 351.577,138.003 	"/>
	<polygon style="fill:#F5A404;" points="360.178,132.145 356.559,137.172 362.028,138.057 	"/>
	<polygon style="fill:#F5A404;" points="369.342,120.43 363.742,123.08 368.102,126.499 	"/>
	<polygon style="fill:#F5A404;" points="369.614,132.531 375.094,135.42 375.213,129.881 	"/>
	<polygon style="fill:#F5A404;" points="350.582,102.463 344.983,105.113 349.343,108.533 	"/>
	<polygon style="fill:#F5A404;" points="350.854,114.564 356.334,117.453 356.454,111.914 	"/>
	<polygon style="fill:#F5A404;" points="369.774,115.377 374.944,111.964 370.145,109.193 	"/>
	<polygon style="fill:#F5A404;" points="362.339,114.43 363.578,108.36 358.227,109.797 	"/>
	<polygon style="fill:#F5A404;" points="340.94,88.145 335.341,90.795 339.701,94.214 	"/>
	<polygon style="fill:#F5A404;" points="343.925,81.675 349.405,84.564 349.524,79.025 	"/>
	<polygon style="fill:#F5A404;" points="355.386,94.684 360.555,91.271 355.757,88.5 	"/>
	<polygon style="fill:#F5A404;" points="364.358,82.642 360.739,87.67 366.208,88.554 	"/>
	<polygon style="fill:#F5A404;" points="373.794,83.028 379.274,85.917 379.393,80.378 	"/>
	<polygon style="fill:#F5A404;" points="116.861,147.225 122.031,143.811 117.232,141.041 	"/>
	<polygon style="fill:#F5A404;" points="125.834,135.183 122.214,140.21 127.684,141.095 	"/>
	<polygon style="fill:#F5A404;" points="134.997,123.468 129.398,126.118 133.758,129.537 	"/>
	<polygon style="fill:#F5A404;" points="135.27,135.569 140.749,138.458 140.869,132.918 	"/>
	<polygon style="fill:#F5A404;" points="116.237,105.501 110.638,108.151 114.998,111.57 	"/>
	<polygon style="fill:#F5A404;" points="135.43,118.415 140.599,115.001 135.801,112.231 	"/>
	<polygon style="fill:#F5A404;" points="127.994,117.467 129.234,111.398 123.882,112.834 	"/>
	<polygon style="fill:#F5A404;" points="144.402,106.373 140.783,111.4 146.252,112.285 	"/>
	<polygon style="fill:#F5A404;" points="109.58,84.713 115.06,87.602 115.18,82.063 	"/>
	<polygon style="fill:#F5A404;" points="121.041,97.722 126.211,94.309 121.412,91.538 	"/>
	<polygon style="fill:#F5A404;" points="139.45,86.066 144.929,88.955 145.049,83.416 	"/>
	<polygon style="fill:#F5A404;" points="322.981,89.625 328.15,86.212 323.352,83.441 	"/>
	<polygon style="fill:#F5A404;" points="315.546,88.678 316.785,82.608 311.434,84.045 	"/>
	<polygon style="fill:#F5A404;" points="162.747,105.977 161.374,99.937 157.091,103.451 	"/>
	<polygon style="fill:#F5A404;" points="153.734,103.338 149.724,108.06 155.106,109.379 	"/>
	<polygon style="fill:#F5A404;" points="169.162,97.561 171.372,103.348 175.118,99.265 	"/>
	<polygon style="fill:#F5A404;" points="171.7,90.509 177.356,93.035 177.115,87.5 	"/>
	<polygon style="fill:#F5A404;" points="178.97,108.933 174.848,104.309 172.798,109.456 	"/>
	<polygon style="fill:#F5A404;" points="190.772,83.147 192.982,88.934 196.728,84.851 	"/>
	<polygon style="fill:#F5A404;" points="200.58,94.519 196.458,89.895 194.407,95.042 	"/>
</g>
</svg>
