<?xml version="1.0" encoding="utf-8"?>
<!-- Generator: Adobe Illustrator 27.5.0, SVG Export Plug-In . SVG Version: 6.00 Build 0)  -->
<svg version="1.1" xmlns="http://www.w3.org/2000/svg" xmlns:xlink="http://www.w3.org/1999/xlink" x="0px" y="0px"
	 viewBox="0 0 500 500" style="enable-background:new 0 0 500 500;" xml:space="preserve">
<g id="BACKGROUND">
	<rect style="fill:#1D262D;" fill-opacity="0.00" width="500" height="500"/>
</g>
<g id="OBJECTS">
	<g>
		<path style="fill:#B2B2B2;" d="M409.478,212.031H234.346c-8.368,0-15.151,6.783-15.151,15.151v180.1
			c0,8.368,6.784,15.151,15.151,15.151h175.133c8.368,0,15.151-6.783,15.151-15.151v-180.1
			C424.63,218.814,417.846,212.031,409.478,212.031z"/>
		<path style="fill:#E0E0E0;" d="M309.009,212.031h-79.6c-5.862,0-10.615,4.752-10.615,10.615v199.788h100.829V222.645
			C319.624,216.783,314.872,212.031,309.009,212.031z"/>
	</g>
	<g>
		<g>
			<path style="fill:none;stroke:#323535;stroke-width:4.7495;stroke-miterlimit:10;" d="M338.012,292.733L338.012,292.733
				c-10.541,0-19.087,8.546-19.087,19.087v22.836c0,10.541-8.546,19.087-19.087,19.087h-20.735v28.097l3.241,16.263
				c1.032,5.178-2.929,10.007-8.209,10.007h-88.561c-3.764,0-7.373,1.495-10.034,4.156l0,0c-2.661,2.661-6.271,4.156-10.034,4.156
				h-8.811c-12.844,0-23.255-10.412-23.255-23.255V365.37c0-6.422-5.206-11.628-11.628-11.628l0,0
				c-6.422,0-11.628,5.206-11.628,11.628v37.423c0,7.527-6.102,13.629-13.63,13.629l0,0c-7.527,0-13.629-6.102-13.629-13.629V348.86
				c0-9.813,7.955-17.769,17.769-17.769h0c9.814,0,17.769-7.955,17.769-17.769V250.91"/>
			<polygon style="fill:#323535;" points="116.123,252.287 105.241,232.485 105.241,225.159 132.369,225.159 132.369,232.485 
				120.873,252.287 			"/>
			<rect x="105.241" y="225.159" style="fill:#666666;" width="27.128" height="7.326"/>
		</g>
		<path style="fill:none;stroke:#323535;stroke-width:4.7495;stroke-miterlimit:10;" d="M338.012,405.039h-1.196
			c-8.512,0-15.412-6.9-15.412-15.412v0c0-8.512,6.9-15.412,15.412-15.412h1.196"/>
	</g>
	<g>
		<g>
			<path style="fill:#666666;" d="M273.209,422.384h-49.161l-23.356-125.721h51.837l22.868,123.089
				C275.651,421.121,274.601,422.384,273.209,422.384z"/>
			<polygon style="fill:#B2B2B2;" points="272.093,422.384 220.256,422.384 196.899,296.663 248.737,296.663 			"/>
			<path style="fill:#B2B2B2;" d="M272.093,422.384h-92.394l0,0c-0.059-3.004,2.36-5.47,5.364-5.47h85.21L272.093,422.384z"/>
			<path style="fill:#666666;" d="M272.093,422.384H243.62l0,0c-0.059-3.004,2.36-5.47,5.364-5.47h22.093L272.093,422.384z"/>
			<polygon style="fill:#323535;" points="271.039,396.297 252.529,296.663 206.672,296.663 225.182,396.297 			"/>
			<polygon style="fill:#666666;" points="215.41,396.297 267.247,396.297 248.737,296.663 196.899,296.663 			"/>
		</g>
		<g>
			<path style="fill:#666666;" d="M303.666,387.045h-114.92c-4.997,0-9.047-4.051-9.047-9.047v-91.472
				c0-4.997,4.051-9.047,9.047-9.047h106.198c4.664,0,8.564,3.546,9.007,8.189l8.722,91.472
				C313.179,382.451,309.002,387.045,303.666,387.045z"/>
			<path style="fill:#B2B2B2;" d="M290.323,387.045H166.746c-4.997,0-9.047-4.051-9.047-9.047v-91.472
				c0-4.997,4.051-9.047,9.047-9.047h123.577c4.997,0,9.047,4.051,9.047,9.047v91.472
				C299.37,382.995,295.319,387.045,290.323,387.045z"/>
			<path style="fill:#323535;" d="M287.525,370.105H169.544c-3.626,0-6.565-2.939-6.565-6.565v-74.843
				c0-3.626,2.939-6.565,6.565-6.565h117.981c3.625,0,6.565,2.939,6.565,6.565v74.843
				C294.089,367.166,291.15,370.105,287.525,370.105z"/>
			<path style="fill:#FDFDFD;" d="M285.448,365.892H171.621c-2.094,0-3.791-1.697-3.791-3.791v-71.447
				c0-2.094,1.697-3.791,3.791-3.791h113.827c2.094,0,3.791,1.697,3.791,3.791v71.447
				C289.238,364.194,287.541,365.892,285.448,365.892z"/>
			<path style="fill:#EEEEEE;" d="M266.08,352.803h-75.473c-1.388,0-2.513-1.125-2.513-2.513v-47.373
				c0-1.388,1.125-2.513,2.513-2.513h75.473c1.388,0,2.513,1.125,2.513,2.513v47.373
				C268.594,351.677,267.468,352.803,266.08,352.803z"/>
			<circle style="fill:#323535;" cx="228.534" cy="378.027" r="3.813"/>
		</g>
	</g>
	<g>
		<g>
			<path style="fill:#B2B2B2;" d="M268.784,302.69c0-1.388-1.125-2.513-2.513-2.513h-75.473c-1.388,0-2.513,1.125-2.513,2.513v0.171
				h80.5V302.69z"/>
		</g>
		<rect x="191.452" y="305.098" style="fill:#E0E0E0;" width="73.783" height="2.702"/>
		<path style="fill:#B2B2B2;" d="M262.534,350.451h-68.38c-1.492,0-2.702-1.21-2.702-2.702l0,0h73.783l0,0
			C265.235,349.241,264.026,350.451,262.534,350.451z"/>
		<rect x="217.416" y="333.234" style="fill:#E0E0E0;" width="8.169" height="1.351"/>
		<rect x="231.145" y="333.234" style="fill:#E0E0E0;" width="8.169" height="1.351"/>
		<rect x="249.847" y="310.035" style="fill:#666666;" width="15.388" height="1.351"/>
		<rect x="211.655" y="327.083" style="fill:#E0E0E0;" width="33.378" height="4.008"/>
		<rect x="217.416" y="320.311" style="fill:#31C7DB;" width="21.899" height="3.238"/>
	</g>
	<g>
		<path style="fill:#B2B2B2;" d="M439.669,422.384h-72.985c-4.48,0-8.113-3.632-8.113-8.113v-128.68c0-4.48,3.632-8.113,8.113-8.113
			h72.985c4.48,0,8.113,3.632,8.113,8.113v128.68C447.782,418.752,444.149,422.384,439.669,422.384z"/>
		<path style="fill:#E0E0E0;" d="M390.921,422.384H344.64c-3.66,0-6.627-2.967-6.627-6.628v-131.65c0-3.66,2.967-6.627,6.627-6.627
			h46.281c3.66,0,6.628,2.967,6.628,6.627v131.65C397.548,419.417,394.581,422.384,390.921,422.384z"/>
		<path style="fill:#EC478E;" d="M370.115,346.342h-3.691c-1.316,0-2.382-1.066-2.382-2.382v-3.691c0-1.315,1.066-2.382,2.382-2.382
			h3.691c1.315,0,2.382,1.066,2.382,2.382v3.691C372.497,345.276,371.43,346.342,370.115,346.342z"/>
		<rect x="405.693" y="300.177" style="fill:#323535;" width="33.378" height="4.008"/>
		<rect x="405.693" y="311.386" style="fill:#323535;" width="33.378" height="4.008"/>
		<rect x="405.693" y="322.595" style="fill:#323535;" width="33.378" height="4.008"/>
		<rect x="405.693" y="408.456" style="fill:#E0E0E0;" width="33.378" height="4.008"/>
		<g>
			<path style="fill:#323535;" d="M354.497,332.601h-3.691c-1.315,0-2.382-1.066-2.382-2.382v-3.691
				c0-1.315,1.066-2.382,2.382-2.382h3.691c1.315,0,2.382,1.066,2.382,2.382v3.691C356.878,331.534,355.812,332.601,354.497,332.601
				z"/>
			<path style="fill:#666666;" d="M351.249,332.601h-3.691c-1.315,0-2.382-1.066-2.382-2.382v-3.691
				c0-1.315,1.066-2.382,2.382-2.382h3.691c1.315,0,2.382,1.066,2.382,2.382v3.691C353.631,331.534,352.564,332.601,351.249,332.601
				z"/>
		</g>
		<g>
			<g>
				<path style="fill:#EC478E;" d="M354.497,305.117h-3.691c-1.315,0-2.382-1.066-2.382-2.382v-3.691
					c0-1.315,1.066-2.382,2.382-2.382h3.691c1.315,0,2.382,1.066,2.382,2.382v3.691
					C356.878,304.051,355.812,305.117,354.497,305.117z"/>
				<path style="fill:#FF6CB2;" d="M351.249,305.117h-3.691c-1.315,0-2.382-1.066-2.382-2.382v-3.691
					c0-1.315,1.066-2.382,2.382-2.382h3.691c1.315,0,2.382,1.066,2.382,2.382v3.691
					C353.631,304.051,352.564,305.117,351.249,305.117z"/>
			</g>
			<g>
				<path style="fill:#EC478E;" d="M354.497,318.859h-3.691c-1.315,0-2.382-1.066-2.382-2.382v-3.691
					c0-1.315,1.066-2.382,2.382-2.382h3.691c1.315,0,2.382,1.066,2.382,2.382v3.691
					C356.878,317.793,355.812,318.859,354.497,318.859z"/>
				<path style="fill:#FF6CB2;" d="M351.249,318.859h-3.691c-1.315,0-2.382-1.066-2.382-2.382v-3.691
					c0-1.315,1.066-2.382,2.382-2.382h3.691c1.315,0,2.382,1.066,2.382,2.382v3.691
					C353.631,317.793,352.564,318.859,351.249,318.859z"/>
			</g>
			<g>
				<path style="fill:#B2B2B2;" d="M370.115,318.859h-3.691c-1.316,0-2.382-1.066-2.382-2.382v-3.691
					c0-1.315,1.066-2.382,2.382-2.382h3.691c1.315,0,2.382,1.066,2.382,2.382v3.691C372.497,317.793,371.43,318.859,370.115,318.859
					z"/>
				<path style="fill:#FDFDFD;" d="M366.867,318.859h-3.691c-1.316,0-2.382-1.066-2.382-2.382v-3.691
					c0-1.315,1.066-2.382,2.382-2.382h3.691c1.315,0,2.382,1.066,2.382,2.382v3.691
					C369.249,317.793,368.183,318.859,366.867,318.859z"/>
			</g>
			<g>
				<path style="fill:#21C1D6;" d="M370.115,332.601h-3.691c-1.316,0-2.382-1.066-2.382-2.382v-3.691
					c0-1.315,1.066-2.382,2.382-2.382h3.691c1.315,0,2.382,1.066,2.382,2.382v3.691C372.497,331.534,371.43,332.601,370.115,332.601
					z"/>
				<path style="fill:#7FE0F1;" d="M366.867,332.601h-3.691c-1.316,0-2.382-1.066-2.382-2.382v-3.691
					c0-1.315,1.066-2.382,2.382-2.382h3.691c1.315,0,2.382,1.066,2.382,2.382v3.691
					C369.249,331.534,368.183,332.601,366.867,332.601z"/>
			</g>
			<g>
				<path style="fill:#21C1D6;" d="M384.755,332.601h-3.691c-1.315,0-2.382-1.066-2.382-2.382v-3.691
					c0-1.315,1.066-2.382,2.382-2.382h3.691c1.315,0,2.382,1.066,2.382,2.382v3.691
					C387.137,331.534,386.071,332.601,384.755,332.601z"/>
				<path style="fill:#7FE0F1;" d="M381.507,332.601h-3.691c-1.315,0-2.382-1.066-2.382-2.382v-3.691
					c0-1.315,1.066-2.382,2.382-2.382h3.691c1.315,0,2.382,1.066,2.382,2.382v3.691
					C383.889,331.534,382.823,332.601,381.507,332.601z"/>
			</g>
			<g>
				<path style="fill:#FCDB1A;" d="M354.497,346.342h-3.691c-1.315,0-2.382-1.066-2.382-2.382v-3.691
					c0-1.315,1.066-2.382,2.382-2.382h3.691c1.315,0,2.382,1.066,2.382,2.382v3.691
					C356.878,345.276,355.812,346.342,354.497,346.342z"/>
				<path style="fill:#FDE456;" d="M351.249,346.342h-3.691c-1.315,0-2.382-1.066-2.382-2.382v-3.691
					c0-1.315,1.066-2.382,2.382-2.382h3.691c1.315,0,2.382,1.066,2.382,2.382v3.691
					C353.631,345.276,352.564,346.342,351.249,346.342z"/>
			</g>
			<path style="fill:#FF6CB2;" d="M366.867,346.342h-3.691c-1.316,0-2.382-1.066-2.382-2.382v-3.691
				c0-1.315,1.066-2.382,2.382-2.382h3.691c1.315,0,2.382,1.066,2.382,2.382v3.691C369.249,345.276,368.183,346.342,366.867,346.342
				z"/>
		</g>
	</g>
	<g>
		<g>
			<g>
				<path style="fill:#FCDB1A;" d="M369.003,422.384h-16.418c-1.107,0-2.004-0.897-2.004-2.004v0c0-1.107,0.897-2.004,2.004-2.004
					h16.418c1.107,0,2.004,0.897,2.004,2.004v0C371.007,421.487,370.11,422.384,369.003,422.384z"/>
				<path style="fill:#FDE456;" d="M365.639,422.384h-16.418c-1.107,0-2.004-0.897-2.004-2.004v0c0-1.107,0.897-2.004,2.004-2.004
					h16.418c1.107,0,2.004,0.897,2.004,2.004v0C367.643,421.487,366.746,422.384,365.639,422.384z"/>
			</g>
			<g>
				<path style="fill:#FCDB1A;" d="M369.003,418.426h-16.418c-1.107,0-2.004-0.897-2.004-2.004l0,0c0-1.107,0.897-2.004,2.004-2.004
					h16.418c1.107,0,2.004,0.897,2.004,2.004l0,0C371.007,417.529,370.11,418.426,369.003,418.426z"/>
				<path style="fill:#FDE456;" d="M365.639,418.426h-16.418c-1.107,0-2.004-0.897-2.004-2.004l0,0c0-1.107,0.897-2.004,2.004-2.004
					h16.418c1.107,0,2.004,0.897,2.004,2.004l0,0C367.643,417.529,366.746,418.426,365.639,418.426z"/>
			</g>
			<g>
				<path style="fill:#FCDB1A;" d="M369.003,414.467h-16.418c-1.107,0-2.004-0.897-2.004-2.004l0,0c0-1.107,0.897-2.004,2.004-2.004
					h16.418c1.107,0,2.004,0.897,2.004,2.004l0,0C371.007,413.57,370.11,414.467,369.003,414.467z"/>
				<path style="fill:#FDE456;" d="M358.292,414.467h-9.07c-1.107,0-2.004-0.897-2.004-2.004l0,0c0-1.107,0.897-2.004,2.004-2.004
					h9.07c1.107,0,2.004,0.897,2.004,2.004l0,0C360.296,413.57,359.399,414.467,358.292,414.467z"/>
			</g>
			<g>
				<path style="fill:#FCDB1A;" d="M369.003,410.509h-16.418c-1.107,0-2.004-0.897-2.004-2.004v0c0-1.107,0.897-2.004,2.004-2.004
					h16.418c1.107,0,2.004,0.897,2.004,2.004v0C371.007,409.612,370.11,410.509,369.003,410.509z"/>
				<path style="fill:#FDE456;" d="M365.639,410.509h-16.418c-1.107,0-2.004-0.897-2.004-2.004v0c0-1.107,0.897-2.004,2.004-2.004
					h16.418c1.107,0,2.004,0.897,2.004,2.004v0C367.643,409.612,366.746,410.509,365.639,410.509z"/>
			</g>
			<g>
				<path style="fill:#FCDB1A;" d="M369.003,406.551h-16.418c-1.107,0-2.004-0.897-2.004-2.004l0,0c0-1.107,0.897-2.004,2.004-2.004
					h16.418c1.107,0,2.004,0.897,2.004,2.004l0,0C371.007,405.654,370.11,406.551,369.003,406.551z"/>
				<path style="fill:#FDE456;" d="M362.803,406.551h-13.582c-1.107,0-2.004-0.897-2.004-2.004l0,0c0-1.107,0.897-2.004,2.004-2.004
					h13.582c1.107,0,2.004,0.897,2.004,2.004l0,0C364.807,405.654,363.91,406.551,362.803,406.551z"/>
			</g>
			<g>
				<path style="fill:#FCDB1A;" d="M369.003,402.593h-16.418c-1.107,0-2.004-0.897-2.004-2.004l0,0c0-1.107,0.897-2.004,2.004-2.004
					h16.418c1.107,0,2.004,0.897,2.004,2.004l0,0C371.007,401.695,370.11,402.593,369.003,402.593z"/>
				<path style="fill:#FDE456;" d="M365.639,402.593h-16.418c-1.107,0-2.004-0.897-2.004-2.004l0,0c0-1.107,0.897-2.004,2.004-2.004
					h16.418c1.107,0,2.004,0.897,2.004,2.004l0,0C367.643,401.695,366.746,402.593,365.639,402.593z"/>
			</g>
		</g>
		<g>
			<g>
				<path style="fill:#FCDB1A;" d="M328.737,422.433H312.32c-1.107,0-2.004-0.897-2.004-2.004l0,0c0-1.107,0.897-2.004,2.004-2.004
					h16.418c1.107,0,2.004,0.897,2.004,2.004l0,0C330.741,421.536,329.844,422.433,328.737,422.433z"/>
				<path style="fill:#FDE456;" d="M325.374,422.433h-16.418c-1.107,0-2.004-0.897-2.004-2.004l0,0c0-1.107,0.897-2.004,2.004-2.004
					h16.418c1.107,0,2.004,0.897,2.004,2.004l0,0C327.377,421.536,326.48,422.433,325.374,422.433z"/>
			</g>
			<g>
				<path style="fill:#FCDB1A;" d="M328.737,418.475H312.32c-1.107,0-2.004-0.897-2.004-2.004l0,0c0-1.107,0.897-2.004,2.004-2.004
					h16.418c1.107,0,2.004,0.897,2.004,2.004l0,0C330.741,417.578,329.844,418.475,328.737,418.475z"/>
				<path style="fill:#FDE456;" d="M322.537,418.475h-13.581c-1.107,0-2.004-0.897-2.004-2.004l0,0c0-1.107,0.897-2.004,2.004-2.004
					h13.581c1.107,0,2.004,0.897,2.004,2.004l0,0C324.541,417.578,323.644,418.475,322.537,418.475z"/>
			</g>
			<g>
				<path style="fill:#FCDB1A;" d="M328.737,414.517H312.32c-1.107,0-2.004-0.897-2.004-2.004l0,0c0-1.107,0.897-2.004,2.004-2.004
					h16.418c1.107,0,2.004,0.897,2.004,2.004l0,0C330.741,413.62,329.844,414.517,328.737,414.517z"/>
				<path style="fill:#FDE456;" d="M325.374,414.517h-16.418c-1.107,0-2.004-0.897-2.004-2.004l0,0c0-1.107,0.897-2.004,2.004-2.004
					h16.418c1.107,0,2.004,0.897,2.004,2.004l0,0C327.377,413.62,326.48,414.517,325.374,414.517z"/>
			</g>
			<g>
				<path style="fill:#FCDB1A;" d="M328.737,410.559H312.32c-1.107,0-2.004-0.897-2.004-2.004l0,0c0-1.107,0.897-2.004,2.004-2.004
					h16.418c1.107,0,2.004,0.897,2.004,2.004l0,0C330.741,409.661,329.844,410.559,328.737,410.559z"/>
				<path style="fill:#FDE456;" d="M322.613,410.559h-13.582c-1.107,0-2.004-0.897-2.004-2.004l0,0c0-1.107,0.897-2.004,2.004-2.004
					h13.582c1.107,0,2.004,0.897,2.004,2.004l0,0C324.617,409.661,323.72,410.559,322.613,410.559z"/>
			</g>
			<g>
				<path style="fill:#FCDB1A;" d="M328.737,406.6H312.32c-1.107,0-2.004-0.897-2.004-2.004l0,0c0-1.107,0.897-2.004,2.004-2.004
					h16.418c1.107,0,2.004,0.897,2.004,2.004l0,0C330.741,405.703,329.844,406.6,328.737,406.6z"/>
				<path style="fill:#FDE456;" d="M325.45,406.6h-16.418c-1.107,0-2.004-0.897-2.004-2.004l0,0c0-1.107,0.897-2.004,2.004-2.004
					h16.418c1.107,0,2.004,0.897,2.004,2.004l0,0C327.453,405.703,326.556,406.6,325.45,406.6z"/>
			</g>
			<g>
				<path style="fill:#FCDB1A;" d="M328.737,402.642H312.32c-1.107,0-2.004-0.897-2.004-2.004l0,0c0-1.107,0.897-2.004,2.004-2.004
					h16.418c1.107,0,2.004,0.897,2.004,2.004l0,0C330.741,401.745,329.844,402.642,328.737,402.642z"/>
				<path style="fill:#FDE456;" d="M325.45,402.642h-16.418c-1.107,0-2.004-0.897-2.004-2.004l0,0c0-1.107,0.897-2.004,2.004-2.004
					h16.418c1.107,0,2.004,0.897,2.004,2.004l0,0C327.453,401.745,326.556,402.642,325.45,402.642z"/>
			</g>
			<g>
				<path style="fill:#FCDB1A;" d="M328.737,398.684H312.32c-1.107,0-2.004-0.897-2.004-2.004l0,0c0-1.107,0.897-2.004,2.004-2.004
					h16.418c1.107,0,2.004,0.897,2.004,2.004l0,0C330.741,397.787,329.844,398.684,328.737,398.684z"/>
				<path style="fill:#FDE456;" d="M320.325,398.684h-11.293c-1.107,0-2.004-0.897-2.004-2.004l0,0c0-1.107,0.897-2.004,2.004-2.004
					h11.293c1.107,0,2.004,0.897,2.004,2.004l0,0C322.329,397.787,321.432,398.684,320.325,398.684z"/>
			</g>
		</g>
		<g>
			<g>
				<path style="fill:#FCDB1A;" d="M399.612,422.372h-16.418c-1.107,0-2.004-0.897-2.004-2.004v0c0-1.107,0.897-2.004,2.004-2.004
					h16.418c1.107,0,2.004,0.897,2.004,2.004v0C401.616,421.474,400.719,422.372,399.612,422.372z"/>
				<path style="fill:#FDE456;" d="M396.248,422.372H379.83c-1.107,0-2.004-0.897-2.004-2.004v0c0-1.107,0.897-2.004,2.004-2.004
					h16.418c1.107,0,2.004,0.897,2.004,2.004v0C398.252,421.474,397.355,422.372,396.248,422.372z"/>
			</g>
			<g>
				<path style="fill:#FCDB1A;" d="M399.612,418.413h-16.418c-1.107,0-2.004-0.897-2.004-2.004l0,0c0-1.107,0.897-2.004,2.004-2.004
					h16.418c1.107,0,2.004,0.897,2.004,2.004l0,0C401.616,417.516,400.719,418.413,399.612,418.413z"/>
				<path style="fill:#FDE456;" d="M396.248,418.413H379.83c-1.107,0-2.004-0.897-2.004-2.004l0,0c0-1.107,0.897-2.004,2.004-2.004
					h16.418c1.107,0,2.004,0.897,2.004,2.004l0,0C398.252,417.516,397.355,418.413,396.248,418.413z"/>
			</g>
			<g>
				<path style="fill:#FCDB1A;" d="M399.612,414.48h-16.418c-1.107,0-2.004-0.897-2.004-2.004l0,0c0-1.107,0.897-2.004,2.004-2.004
					h16.418c1.107,0,2.004,0.897,2.004,2.004l0,0C401.616,413.583,400.719,414.48,399.612,414.48z"/>
				<path style="fill:#FDE456;" d="M396.248,414.48H379.83c-1.107,0-2.004-0.897-2.004-2.004l0,0c0-1.107,0.897-2.004,2.004-2.004
					h16.418c1.107,0,2.004,0.897,2.004,2.004l0,0C398.252,413.583,397.355,414.48,396.248,414.48z"/>
			</g>
			<g>
				<path style="fill:#FCDB1A;" d="M399.612,410.522h-16.418c-1.107,0-2.004-0.897-2.004-2.004v0c0-1.107,0.897-2.004,2.004-2.004
					h16.418c1.107,0,2.004,0.897,2.004,2.004v0C401.616,409.624,400.719,410.522,399.612,410.522z"/>
				<path style="fill:#FDE456;" d="M393.412,410.522H379.83c-1.107,0-2.004-0.897-2.004-2.004v0c0-1.107,0.897-2.004,2.004-2.004
					h13.581c1.107,0,2.004,0.897,2.004,2.004v0C395.416,409.624,394.519,410.522,393.412,410.522z"/>
			</g>
			<g>
				<path style="fill:#FCDB1A;" d="M399.612,406.563h-16.418c-1.107,0-2.004-0.897-2.004-2.004l0,0c0-1.107,0.897-2.004,2.004-2.004
					h16.418c1.107,0,2.004,0.897,2.004,2.004l0,0C401.616,405.666,400.719,406.563,399.612,406.563z"/>
				<path style="fill:#FDE456;" d="M396.248,406.563H379.83c-1.107,0-2.004-0.897-2.004-2.004l0,0c0-1.107,0.897-2.004,2.004-2.004
					h16.418c1.107,0,2.004,0.897,2.004,2.004l0,0C398.252,405.666,397.355,406.563,396.248,406.563z"/>
			</g>
			<g>
				<path style="fill:#FCDB1A;" d="M399.612,402.605h-16.418c-1.107,0-2.004-0.897-2.004-2.004l0,0c0-1.107,0.897-2.004,2.004-2.004
					h16.418c1.107,0,2.004,0.897,2.004,2.004l0,0C401.616,401.708,400.719,402.605,399.612,402.605z"/>
				<path style="fill:#FDE456;" d="M393.488,402.605h-13.582c-1.107,0-2.004-0.897-2.004-2.004l0,0c0-1.107,0.897-2.004,2.004-2.004
					h13.582c1.107,0,2.004,0.897,2.004,2.004l0,0C395.492,401.708,394.595,402.605,393.488,402.605z"/>
			</g>
			<g>
				<path style="fill:#FCDB1A;" d="M399.612,398.647h-16.418c-1.107,0-2.004-0.897-2.004-2.004v0c0-1.107,0.897-2.004,2.004-2.004
					h16.418c1.107,0,2.004,0.897,2.004,2.004v0C401.616,397.75,400.719,398.647,399.612,398.647z"/>
				<path style="fill:#FDE456;" d="M396.324,398.647h-16.418c-1.107,0-2.004-0.897-2.004-2.004v0c0-1.107,0.897-2.004,2.004-2.004
					h16.418c1.107,0,2.004,0.897,2.004,2.004v0C398.328,397.75,397.431,398.647,396.324,398.647z"/>
			</g>
			<g>
				<path style="fill:#FCDB1A;" d="M399.612,394.688h-16.418c-1.107,0-2.004-0.897-2.004-2.004l0,0c0-1.107,0.897-2.004,2.004-2.004
					h16.418c1.107,0,2.004,0.897,2.004,2.004l0,0C401.616,393.791,400.719,394.688,399.612,394.688z"/>
				<path style="fill:#FDE456;" d="M396.324,394.688h-16.418c-1.107,0-2.004-0.897-2.004-2.004l0,0c0-1.107,0.897-2.004,2.004-2.004
					h16.418c1.107,0,2.004,0.897,2.004,2.004l0,0C398.328,393.791,397.431,394.688,396.324,394.688z"/>
			</g>
			<g>
				<path style="fill:#FCDB1A;" d="M399.612,390.73h-16.418c-1.107,0-2.004-0.897-2.004-2.004l0,0c0-1.107,0.897-2.004,2.004-2.004
					h16.418c1.107,0,2.004,0.897,2.004,2.004l0,0C401.616,389.833,400.719,390.73,399.612,390.73z"/>
				<path style="fill:#FDE456;" d="M391.2,390.73h-11.293c-1.107,0-2.004-0.897-2.004-2.004l0,0c0-1.107,0.897-2.004,2.004-2.004
					H391.2c1.107,0,2.004,0.897,2.004,2.004l0,0C393.203,389.833,392.306,390.73,391.2,390.73z"/>
			</g>
		</g>
		<g>
			<g>
				<path style="fill:#FCDB1A;" d="M427.478,277.479h-16.418c-1.107,0-2.004-0.897-2.004-2.004l0,0c0-1.107,0.897-2.004,2.004-2.004
					h16.418c1.107,0,2.004,0.897,2.004,2.004l0,0C429.482,276.582,428.585,277.479,427.478,277.479z"/>
				<path style="fill:#FDE456;" d="M424.114,277.479h-16.418c-1.107,0-2.004-0.897-2.004-2.004l0,0c0-1.107,0.897-2.004,2.004-2.004
					h16.418c1.107,0,2.004,0.897,2.004,2.004l0,0C426.118,276.582,425.221,277.479,424.114,277.479z"/>
			</g>
			<g>
				<path style="fill:#FCDB1A;" d="M427.478,273.521h-16.418c-1.107,0-2.004-0.897-2.004-2.004l0,0c0-1.107,0.897-2.004,2.004-2.004
					h16.418c1.107,0,2.004,0.897,2.004,2.004l0,0C429.482,272.623,428.585,273.521,427.478,273.521z"/>
				<path style="fill:#FDE456;" d="M424.114,273.521h-16.418c-1.107,0-2.004-0.897-2.004-2.004l0,0c0-1.107,0.897-2.004,2.004-2.004
					h16.418c1.107,0,2.004,0.897,2.004,2.004l0,0C426.118,272.623,425.221,273.521,424.114,273.521z"/>
			</g>
			<g>
				<path style="fill:#FCDB1A;" d="M427.478,269.562h-16.418c-1.107,0-2.004-0.897-2.004-2.004l0,0c0-1.107,0.897-2.004,2.004-2.004
					h16.418c1.107,0,2.004,0.897,2.004,2.004l0,0C429.482,268.665,428.585,269.562,427.478,269.562z"/>
				<path style="fill:#FDE456;" d="M416.767,269.562h-9.07c-1.107,0-2.004-0.897-2.004-2.004l0,0c0-1.107,0.897-2.004,2.004-2.004
					h9.07c1.107,0,2.004,0.897,2.004,2.004l0,0C418.771,268.665,417.874,269.562,416.767,269.562z"/>
			</g>
			<g>
				<path style="fill:#FCDB1A;" d="M427.478,265.604h-16.418c-1.107,0-2.004-0.897-2.004-2.004l0,0c0-1.107,0.897-2.004,2.004-2.004
					h16.418c1.107,0,2.004,0.897,2.004,2.004l0,0C429.482,264.707,428.585,265.604,427.478,265.604z"/>
				<path style="fill:#FDE456;" d="M424.114,265.604h-16.418c-1.107,0-2.004-0.897-2.004-2.004l0,0c0-1.107,0.897-2.004,2.004-2.004
					h16.418c1.107,0,2.004,0.897,2.004,2.004l0,0C426.118,264.707,425.221,265.604,424.114,265.604z"/>
			</g>
			<g>
				<path style="fill:#FCDB1A;" d="M427.478,261.646h-16.418c-1.107,0-2.004-0.897-2.004-2.004l0,0c0-1.107,0.897-2.004,2.004-2.004
					h16.418c1.107,0,2.004,0.897,2.004,2.004l0,0C429.482,260.749,428.585,261.646,427.478,261.646z"/>
				<path style="fill:#FDE456;" d="M421.278,261.646h-13.582c-1.107,0-2.004-0.897-2.004-2.004l0,0c0-1.107,0.897-2.004,2.004-2.004
					h13.582c1.107,0,2.004,0.897,2.004,2.004l0,0C423.282,260.749,422.385,261.646,421.278,261.646z"/>
			</g>
			<g>
				<path style="fill:#FCDB1A;" d="M427.478,257.687h-16.418c-1.107,0-2.004-0.897-2.004-2.004l0,0c0-1.107,0.897-2.004,2.004-2.004
					h16.418c1.107,0,2.004,0.897,2.004,2.004l0,0C429.482,256.79,428.585,257.687,427.478,257.687z"/>
				<path style="fill:#FDE456;" d="M424.114,257.687h-16.418c-1.107,0-2.004-0.897-2.004-2.004l0,0c0-1.107,0.897-2.004,2.004-2.004
					h16.418c1.107,0,2.004,0.897,2.004,2.004l0,0C426.118,256.79,425.221,257.687,424.114,257.687z"/>
			</g>
			<g>
				<path style="fill:#FCDB1A;" d="M427.478,253.729h-16.418c-1.107,0-2.004-0.897-2.004-2.004l0,0c0-1.107,0.897-2.004,2.004-2.004
					h16.418c1.107,0,2.004,0.897,2.004,2.004l0,0C429.482,252.832,428.585,253.729,427.478,253.729z"/>
				<path style="fill:#FDE456;" d="M421.354,253.729h-13.581c-1.107,0-2.004-0.897-2.004-2.004l0,0c0-1.107,0.897-2.004,2.004-2.004
					h13.581c1.107,0,2.004,0.897,2.004,2.004l0,0C423.358,252.832,422.461,253.729,421.354,253.729z"/>
			</g>
			<g>
				<path style="fill:#FCDB1A;" d="M427.478,249.771h-16.418c-1.107,0-2.004-0.897-2.004-2.004l0,0c0-1.107,0.897-2.004,2.004-2.004
					h16.418c1.107,0,2.004,0.897,2.004,2.004l0,0C429.482,248.874,428.585,249.771,427.478,249.771z"/>
				<path style="fill:#FDE456;" d="M424.19,249.771h-16.418c-1.107,0-2.004-0.897-2.004-2.004l0,0c0-1.107,0.897-2.004,2.004-2.004
					h16.418c1.107,0,2.004,0.897,2.004,2.004l0,0C426.194,248.874,425.297,249.771,424.19,249.771z"/>
			</g>
			<g>
				<path style="fill:#FCDB1A;" d="M427.478,245.813h-16.418c-1.107,0-2.004-0.897-2.004-2.004l0,0c0-1.107,0.897-2.004,2.004-2.004
					h16.418c1.107,0,2.004,0.897,2.004,2.004l0,0C429.482,244.915,428.585,245.813,427.478,245.813z"/>
				<path style="fill:#FDE456;" d="M424.19,245.813h-16.418c-1.107,0-2.004-0.897-2.004-2.004l0,0c0-1.107,0.897-2.004,2.004-2.004
					h16.418c1.107,0,2.004,0.897,2.004,2.004l0,0C426.194,244.915,425.297,245.813,424.19,245.813z"/>
			</g>
			<g>
				<path style="fill:#FCDB1A;" d="M427.478,241.854h-16.418c-1.107,0-2.004-0.897-2.004-2.004l0,0c0-1.107,0.897-2.004,2.004-2.004
					h16.418c1.107,0,2.004,0.897,2.004,2.004l0,0C429.482,240.957,428.585,241.854,427.478,241.854z"/>
				<path style="fill:#FDE456;" d="M419.066,241.854h-11.293c-1.107,0-2.004-0.897-2.004-2.004l0,0c0-1.107,0.897-2.004,2.004-2.004
					h11.293c1.107,0,2.004,0.897,2.004,2.004l0,0C421.07,240.957,420.173,241.854,419.066,241.854z"/>
			</g>
		</g>
		<g>
			<g>
				<path style="fill:#FCDB1A;" d="M375.34,277.504h-16.418c-1.107,0-2.004-0.897-2.004-2.004l0,0c0-1.107,0.897-2.004,2.004-2.004
					h16.418c1.107,0,2.004,0.897,2.004,2.004l0,0C377.344,276.606,376.447,277.504,375.34,277.504z"/>
				<path style="fill:#FDE456;" d="M369.14,277.504h-13.582c-1.107,0-2.004-0.897-2.004-2.004l0,0c0-1.107,0.897-2.004,2.004-2.004
					h13.582c1.107,0,2.004,0.897,2.004,2.004l0,0C371.144,276.606,370.247,277.504,369.14,277.504z"/>
			</g>
			<g>
				<path style="fill:#FCDB1A;" d="M375.34,273.545h-16.418c-1.107,0-2.004-0.897-2.004-2.004l0,0c0-1.107,0.897-2.004,2.004-2.004
					h16.418c1.107,0,2.004,0.897,2.004,2.004l0,0C377.344,272.648,376.447,273.545,375.34,273.545z"/>
				<path style="fill:#FDE456;" d="M371.976,273.545h-16.418c-1.107,0-2.004-0.897-2.004-2.004l0,0c0-1.107,0.897-2.004,2.004-2.004
					h16.418c1.107,0,2.004,0.897,2.004,2.004l0,0C373.98,272.648,373.083,273.545,371.976,273.545z"/>
			</g>
			<g>
				<path style="fill:#FCDB1A;" d="M375.34,269.587h-16.418c-1.107,0-2.004-0.897-2.004-2.004l0,0c0-1.107,0.897-2.004,2.004-2.004
					h16.418c1.107,0,2.004,0.897,2.004,2.004l0,0C377.344,268.69,376.447,269.587,375.34,269.587z"/>
				<path style="fill:#FDE456;" d="M369.216,269.587h-13.582c-1.107,0-2.004-0.897-2.004-2.004l0,0c0-1.107,0.897-2.004,2.004-2.004
					h13.582c1.107,0,2.004,0.897,2.004,2.004l0,0C371.22,268.69,370.323,269.587,369.216,269.587z"/>
			</g>
			<g>
				<path style="fill:#FCDB1A;" d="M375.34,265.629h-16.418c-1.107,0-2.004-0.897-2.004-2.004l0,0c0-1.107,0.897-2.004,2.004-2.004
					h16.418c1.107,0,2.004,0.897,2.004,2.004l0,0C377.344,264.732,376.447,265.629,375.34,265.629z"/>
				<path style="fill:#FDE456;" d="M372.052,265.629h-16.418c-1.107,0-2.004-0.897-2.004-2.004l0,0c0-1.107,0.897-2.004,2.004-2.004
					h16.418c1.107,0,2.004,0.897,2.004,2.004l0,0C374.056,264.732,373.159,265.629,372.052,265.629z"/>
			</g>
			<g>
				<path style="fill:#FCDB1A;" d="M375.34,261.67h-16.418c-1.107,0-2.004-0.897-2.004-2.004l0,0c0-1.107,0.897-2.004,2.004-2.004
					h16.418c1.107,0,2.004,0.897,2.004,2.004l0,0C377.344,260.773,376.447,261.67,375.34,261.67z"/>
				<path style="fill:#FDE456;" d="M372.052,261.67h-16.418c-1.107,0-2.004-0.897-2.004-2.004l0,0c0-1.107,0.897-2.004,2.004-2.004
					h16.418c1.107,0,2.004,0.897,2.004,2.004l0,0C374.056,260.773,373.159,261.67,372.052,261.67z"/>
			</g>
			<g>
				<path style="fill:#FCDB1A;" d="M375.34,257.712h-16.418c-1.107,0-2.004-0.897-2.004-2.004l0,0c0-1.107,0.897-2.004,2.004-2.004
					h16.418c1.107,0,2.004,0.897,2.004,2.004l0,0C377.344,256.815,376.447,257.712,375.34,257.712z"/>
				<path style="fill:#FDE456;" d="M366.928,257.712h-11.293c-1.107,0-2.004-0.897-2.004-2.004l0,0c0-1.107,0.897-2.004,2.004-2.004
					h11.293c1.107,0,2.004,0.897,2.004,2.004l0,0C368.932,256.815,368.034,257.712,366.928,257.712z"/>
			</g>
		</g>
		<g>
			<g>
				<path style="fill:#FCDB1A;" d="M401.928,277.504h-16.418c-1.107,0-2.004-0.897-2.004-2.004l0,0c0-1.107,0.897-2.004,2.004-2.004
					h16.418c1.107,0,2.004,0.897,2.004,2.004l0,0C403.932,276.606,403.035,277.504,401.928,277.504z"/>
				<path style="fill:#FDE456;" d="M395.728,277.504h-13.581c-1.107,0-2.004-0.897-2.004-2.004l0,0c0-1.107,0.897-2.004,2.004-2.004
					h13.581c1.107,0,2.004,0.897,2.004,2.004l0,0C397.732,276.606,396.835,277.504,395.728,277.504z"/>
			</g>
			<g>
				<path style="fill:#FCDB1A;" d="M401.928,273.496h-16.418c-1.107,0-2.004-0.897-2.004-2.004l0,0c0-1.107,0.897-2.004,2.004-2.004
					h16.418c1.107,0,2.004,0.897,2.004,2.004l0,0C403.932,272.599,403.035,273.496,401.928,273.496z"/>
				<path style="fill:#FDE456;" d="M398.64,273.496h-16.418c-1.107,0-2.004-0.897-2.004-2.004l0,0c0-1.107,0.897-2.004,2.004-2.004
					h16.418c1.107,0,2.004,0.897,2.004,2.004l0,0C400.644,272.599,399.747,273.496,398.64,273.496z"/>
			</g>
			<g>
				<path style="fill:#FCDB1A;" d="M401.928,269.538h-16.418c-1.107,0-2.004-0.897-2.004-2.004l0,0c0-1.107,0.897-2.004,2.004-2.004
					h16.418c1.107,0,2.004,0.897,2.004,2.004l0,0C403.932,268.64,403.035,269.538,401.928,269.538z"/>
				<path style="fill:#FDE456;" d="M393.516,269.538h-11.293c-1.107,0-2.004-0.897-2.004-2.004l0,0c0-1.107,0.897-2.004,2.004-2.004
					h11.293c1.107,0,2.004,0.897,2.004,2.004l0,0C395.52,268.64,394.623,269.538,393.516,269.538z"/>
			</g>
		</g>
	</g>
	<g>
		<g>
			<path style="fill:#FDFDFD;" d="M361.483,176.243h-49.847c-6.396,0-11.58,5.185-11.58,11.58v24.208h49.846l0.001-9.126h11.58
				V176.243z"/>
			<g>
				<path style="fill:#FDFDFD;" d="M358.573,123.185c-6.052,0-10.959,4.906-10.959,10.959v68.762h37.648v-0.059
					c6.797,0,12.199-5.465,12.199-12.262v-0.045v-17.472h11.58v-49.883H358.573z"/>
				<path style="fill:#E0E0E0;" d="M361.483,176.243L361.483,176.243c-6.396,0-11.58,5.185-11.58,11.58v15.082h23.161v-15.082
					C373.063,181.427,367.879,176.243,361.483,176.243z"/>
				<path style="fill:#E0E0E0;" d="M385.262,202.905h-35.36v-12.366h23.053c0,6.797,5.51,12.307,12.307,12.307V202.905z"/>
				<path style="fill:#E0E0E0;" d="M432.821,173.068h-35.359v-12.365h23.053c0,6.797,5.51,12.307,12.306,12.307V173.068z"/>
			</g>
			<path style="fill:#E0E0E0;" d="M409.042,123.185L409.042,123.185c-6.396,0-11.58,5.185-11.58,11.58v38.303h23.161v-38.303
				C420.622,128.369,415.437,123.185,409.042,123.185z"/>
			<path style="fill:#FDFDFD;" d="M432.202,173.068L432.202,173.068c6.396,0,11.58-5.185,11.58-11.58v-5.463h-23.161v5.463
				C420.622,167.883,425.807,173.068,432.202,173.068z"/>
		</g>
		<g>
			<rect x="307.263" y="188.898" style="fill:#666666;" width="15.388" height="1.351"/>
			<rect x="307.263" y="204.703" style="fill:#666666;" width="37.809" height="1.351"/>
			<rect x="377.568" y="136.619" style="fill:#666666;" width="15.388" height="1.351"/>
			<rect x="377.568" y="141.832" style="fill:#666666;" width="15.388" height="1.351"/>
			<rect x="377.568" y="147.045" style="fill:#666666;" width="15.388" height="1.351"/>
			<rect x="377.568" y="152.258" style="fill:#666666;" width="15.388" height="1.351"/>
			<rect x="383.897" y="185.272" style="fill:#E0E0E0;" width="8.169" height="1.351"/>
			<rect x="383.897" y="180.485" style="fill:#E0E0E0;" width="8.169" height="1.351"/>
			<rect x="364.465" y="180.485" style="fill:#E0E0E0;" width="18.107" height="3.355"/>
			<rect x="311.694" y="194.718" style="fill:#E0E0E0;" width="33.378" height="4.008"/>
			<rect x="351.884" y="164.881" style="fill:#E0E0E0;" width="33.378" height="4.008"/>
			<rect x="370.944" y="173.068" style="fill:#666666;" width="21.899" height="3.239"/>
			<rect x="355.761" y="136.619" style="fill:#7EE0ED;" width="16.78" height="16.78"/>
		</g>
	</g>
	<g>
		<g>
			<g>
				<path style="fill:#FCDB1A;" d="M146.807,174.925c-0.563,0.889,0.576,1.869,1.371,1.18c0.682-0.591,1.717,0.059,1.481,0.93
					c-0.276,1.016,1.101,1.616,1.658,0.723v0c0.478-0.766,1.658-0.45,1.689,0.453c0.036,1.052,1.528,1.22,1.797,0.203
					c0.231-0.873,1.452-0.918,1.748-0.065c0.344,0.994,1.82,0.715,1.777-0.336c-0.037-0.902,1.117-1.306,1.651-0.577
					c0.622,0.849,1.95,0.147,1.599-0.845l0,0c-0.301-0.851,0.682-1.577,1.407-1.038c0.845,0.628,1.907-0.434,1.279-1.279
					c-0.538-0.725,0.188-1.708,1.038-1.407h0c0.992,0.351,1.694-0.977,0.845-1.599c-0.728-0.534-0.324-1.687,0.578-1.651
					c1.052,0.043,1.331-1.433,0.336-1.777c-0.853-0.295-0.807-1.517,0.065-1.747c1.017-0.269,0.849-1.761-0.202-1.797
					c-0.902-0.031-1.219-1.212-0.453-1.689c0.893-0.557,0.292-1.933-0.723-1.658l0,0c-0.871,0.236-1.521-0.798-0.93-1.481v0
					c0.689-0.795-0.291-1.934-1.18-1.371l0,0c-0.763,0.483-1.689-0.315-1.326-1.141c0.424-0.963-0.848-1.762-1.531-0.962
					c-0.587,0.686-1.707,0.197-1.603-0.699h0c0.121-1.045-1.329-1.434-1.747-0.468l0,0c-0.358,0.829-1.573,0.692-1.738-0.196
					c-0.192-1.035-1.693-0.978-1.807,0.068l0,0c-0.098,0.897-1.299,1.124-1.718,0.325c-0.489-0.932-1.906-0.436-1.707,0.597
					c0.171,0.886-0.91,1.458-1.546,0.817l0,0c-0.742-0.747-1.95,0.145-1.455,1.074c0.424,0.797-0.44,1.661-1.236,1.237
					c-0.929-0.495-1.821,0.714-1.074,1.455l0,0c0.64,0.636,0.069,1.717-0.817,1.546h0c-1.033-0.199-1.529,1.218-0.597,1.707l0,0
					c0.799,0.419,0.572,1.62-0.325,1.718v0c-1.046,0.115-1.102,1.615-0.068,1.807c0.887,0.165,1.024,1.38,0.196,1.738
					c-0.966,0.418-0.577,1.868,0.468,1.747c0.897-0.104,1.385,1.016,0.699,1.603c-0.8,0.684-0.001,1.955,0.962,1.531l0,0
					C146.492,173.236,147.29,174.163,146.807,174.925z M149.751,161.038c3.053-3.053,8.003-3.053,11.056,0
					c3.053,3.053,3.053,8.003,0,11.056c-3.053,3.053-8.003,3.053-11.056,0C146.698,169.042,146.698,164.092,149.751,161.038z"/>
				<path style="fill:#FCDB1A;" d="M153.278,168.567c-1.105-1.105-1.105-2.896,0-4.001c1.105-1.105,2.896-1.105,4.001,0
					c1.105,1.105,1.105,2.896,0,4.001C156.175,169.672,154.383,169.672,153.278,168.567z"/>
			</g>
			<g>
				<path style="fill:#FDFDFD;" d="M130.662,189.657c-0.537,0.625,0.234,1.514,0.929,1.07h0c0.596-0.381,1.325,0.241,1.042,0.89l0,0
					c-0.329,0.756,0.67,1.378,1.203,0.749c0.458-0.539,1.337-0.16,1.258,0.543c-0.092,0.82,1.046,1.12,1.371,0.361l0,0
					c0.278-0.65,1.23-0.547,1.362,0.148l0,0c0.154,0.81,1.33,0.761,1.416-0.059l0,0c0.074-0.703,1.014-0.885,1.346-0.26
					c0.386,0.729,1.495,0.336,1.336-0.473c-0.137-0.694,0.708-1.145,1.209-0.645l0,0c0.583,0.583,1.528-0.12,1.137-0.846l0,0
					c-0.335-0.623,0.339-1.303,0.965-0.973l0,0c0.729,0.385,1.424-0.565,0.837-1.144c-0.504-0.496-0.06-1.345,0.635-1.214l0,0
					c0.811,0.153,1.195-0.96,0.463-1.34c-0.628-0.326-0.453-1.268,0.249-1.348c0.819-0.093,0.859-1.269,0.047-1.417l0,0
					c-0.696-0.126-0.807-1.078-0.159-1.361l0,0c0.756-0.33,0.446-1.466-0.372-1.367l0,0c-0.702,0.084-1.089-0.792-0.553-1.254l0,0
					c0.625-0.538-0.005-1.532-0.759-1.197l0,0c-0.646,0.287-1.274-0.436-0.898-1.035l0,0c0.438-0.699-0.457-1.463-1.078-0.92
					c-0.533,0.465-1.346-0.041-1.163-0.724c0.213-0.797-0.868-1.263-1.301-0.562v0c-0.372,0.602-1.298,0.357-1.325-0.349
					c-0.031-0.824-1.201-0.951-1.409-0.153c-0.178,0.685-1.135,0.724-1.369,0.057l0,0c-0.273-0.778-1.428-0.555-1.392,0.269
					c0.032,0.707-0.871,1.027-1.292,0.458v0c-0.49-0.663-1.528-0.109-1.25,0.667c0.238,0.666-0.53,1.238-1.099,0.818l0,0
					c-0.664-0.489-1.493,0.346-0.998,1.006l0,0c0.424,0.566-0.142,1.339-0.809,1.106c-0.779-0.272-1.324,0.771-0.657,1.256l0,0
					c0.572,0.416,0.259,1.321-0.448,1.295l0,0c-0.824-0.03-1.038,1.127-0.258,1.394c0.669,0.229,0.637,1.186-0.046,1.37l0,0
					c-0.796,0.214-0.66,1.383,0.164,1.408c0.707,0.021,0.959,0.946,0.36,1.322l0,0c-0.698,0.439-0.223,1.516,0.572,1.297
					C130.61,188.311,131.123,189.12,130.662,189.657z M135.136,181.088c1.75-1.75,4.587-1.75,6.337,0c1.75,1.75,1.75,4.587,0,6.337
					s-4.587,1.75-6.337,0C133.386,185.676,133.386,182.838,135.136,181.088z"/>
				<path style="fill:#FDFDFD;" d="M137.053,185.508c-0.691-0.691-0.691-1.812,0-2.503s1.812-0.691,2.503,0s0.691,1.812,0,2.503
					C138.865,186.2,137.744,186.2,137.053,185.508z"/>
			</g>
			<g>
				<path style="fill:#EC478E;" d="M135.094,165.679L135.094,165.679c0.503,0.11,0.96-0.32,0.881-0.829l0,0
					c-0.112-0.722,0.786-1.146,1.272-0.6l0,0c0.342,0.385,0.965,0.306,1.2-0.152l0,0c0.334-0.65,1.309-0.465,1.381,0.262l0,0
					c0.051,0.513,0.601,0.814,1.06,0.582l0,0c0.652-0.33,1.333,0.393,0.964,1.024l0,0c-0.26,0.445,0.007,1.012,0.516,1.094l0,0
					c0.721,0.116,0.847,1.102,0.177,1.395l0,0c-0.472,0.207-0.589,0.823-0.226,1.188l0,0c0.515,0.518,0.038,1.389-0.676,1.233l0,0
					c-0.503-0.11-0.96,0.32-0.881,0.829l0,0c0.112,0.722-0.786,1.146-1.272,0.6l0,0c-0.342-0.385-0.964-0.306-1.2,0.153l0,0
					c-0.334,0.65-1.309,0.465-1.381-0.262l0,0c-0.051-0.513-0.601-0.814-1.06-0.582l0,0c-0.652,0.33-1.333-0.393-0.963-1.024l0,0
					c0.26-0.445-0.007-1.012-0.516-1.094l0,0c-0.721-0.116-0.847-1.102-0.177-1.395l0,0c0.472-0.207,0.589-0.823,0.226-1.188l0,0
					C133.902,166.394,134.38,165.523,135.094,165.679z"/>
				<path style="fill:#EEEEEE;" d="M136.573,170.073c-0.991-0.992-0.991-2.599,0-3.59c0.992-0.991,2.599-0.991,3.59,0
					c0.991,0.992,0.991,2.599,0,3.59C139.172,171.064,137.565,171.064,136.573,170.073z"/>
				<path style="fill:#EC478E;" d="M137.575,169.071c-0.438-0.438-0.438-1.148,0-1.586c0.438-0.438,1.148-0.438,1.586,0
					c0.438,0.438,0.438,1.148,0,1.586C138.724,169.509,138.013,169.509,137.575,169.071z"/>
			</g>
		</g>
		<g>
			<g>
				<g>
					<path style="fill:#FDE456;" d="M121.577,187.324c3.577-3.577,3.333-9.526-0.729-12.78c-3.048-2.441-7.459-2.484-10.548-0.095
						c-2.069,1.601-3.182,3.888-3.34,6.227c-0.177,2.624-1.389,5.071-3.249,6.931l-0.021,0.021l5.456,5.456l0.09-0.09
						c1.883-1.883,4.391-2.958,7.043-3.194C118.212,189.628,120.098,188.803,121.577,187.324z"/>
				</g>
			</g>
			<g>
				<g>
					<g>
						<path style="fill:#323535;" d="M99.283,198.297l-0.807-0.807c-0.305-0.305-0.305-0.8,0-1.105l1.929-1.929l1.912,1.912
							l-1.929,1.929C100.083,198.602,99.589,198.602,99.283,198.297z"/>
					</g>
					<g>
						<g>
							<path style="fill:#666666;" d="M102.385,198.584l-4.196-4.196c-0.348-0.348-0.348-0.912,0-1.261l5.501-5.501l5.456,5.456
								l-5.501,5.501C103.297,198.932,102.733,198.932,102.385,198.584z"/>
						</g>
					</g>
				</g>
				<g>
					<g>
						<path style="fill:#E0E0E0;" d="M105.317,197.063l-5.52-5.52c-0.274-0.274-0.274-0.719,0-0.993l0,0
							c0.274-0.274,0.719-0.274,0.994,0l5.52,5.52c0.274,0.274,0.274,0.719,0,0.994l0,0
							C106.036,197.337,105.591,197.337,105.317,197.063z"/>
						<path style="fill:#B2B2B2;" d="M106.311,197.063L106.311,197.063c-0.274,0.274-0.719,0.274-0.993,0l-5.52-5.52
							c-0.274-0.274-0.274-0.719,0-0.993l0,0L106.311,197.063z"/>
					</g>
					<g>
						<path style="fill:#E0E0E0;" d="M104.317,198.063l-5.52-5.52c-0.275-0.274-0.275-0.719,0-0.993l0,0
							c0.274-0.274,0.719-0.274,0.994,0l5.52,5.52c0.274,0.274,0.274,0.719,0,0.994l0,0
							C105.036,198.337,104.591,198.337,104.317,198.063z"/>
						<path style="fill:#B2B2B2;" d="M105.31,198.063L105.31,198.063c-0.274,0.274-0.719,0.274-0.994,0l-5.52-5.52
							c-0.275-0.274-0.275-0.719,0-0.993l0,0L105.31,198.063z"/>
					</g>
				</g>
			</g>
		</g>
		<g>
			<path style="fill:#808080;" d="M111.82,215.255l-9.331-9.331l-7.459-7.459l-3.157,3.157l0.752,0.752l16.038,16.038
				c0.872,0.872,2.285,0.872,3.157,0l0,0C112.692,217.54,112.692,216.127,111.82,215.255z"/>
			<polygon style="fill:#FF6CB2;" points="91.774,196.101 89.901,197.975 89.901,197.975 89.51,198.366 92.32,201.176 
				94.426,199.07 94.584,198.912 			"/>
			<path style="fill:#323535;" d="M111.82,215.255l-2.655,0.298L93.59,199.906l-1.716,1.716l0.752,0.752l16.038,16.038
				c0.872,0.872,2.285,0.872,3.157,0l0,0C112.692,217.54,112.692,216.127,111.82,215.255z"/>
			<polygon style="fill:#EC478E;" points="90.741,197.06 89.901,197.975 89.901,197.975 89.51,198.366 92.32,201.176 93.59,199.906 
				93.355,199.686 			"/>
			<path style="fill:#757575;" d="M91.285,184.618c3.661,3.661,3.661,9.597,0,13.259c-3.661,3.661-9.597,3.661-13.259,0
				c-3.661-3.661-3.661-9.597,0-13.259S87.623,180.957,91.285,184.618z"/>
			<path style="fill:#21C1D6;" d="M89.952,185.951c2.925,2.925,2.925,7.668,0,10.594c-2.925,2.925-7.668,2.925-10.593,0
				c-2.925-2.925-2.925-7.668,0-10.594C82.284,183.025,87.027,183.025,89.952,185.951z"/>
			<path style="fill:#7FE0F1;" d="M89.952,196.544c-2.925,2.925-7.668,2.925-10.593,0c-2.925-2.925-2.925-7.668,0-10.594
				L89.952,196.544z"/>
			<g>
				<path style="fill:#FCFDFE;" d="M84.005,187.786c1.541,1.132,1.541,3.401,0,4.532c-0.96,0.705-2.321,0.705-3.282,0
					c-1.541-1.132-1.541-3.4,0-4.532C81.683,187.081,83.044,187.081,84.005,187.786z"/>
			</g>
			<path style="fill:#FF6CB2;" d="M111.82,215.255l-1.353-1.353l-2.154,2.154l-1.003,1.003l1.353,1.353
				c0.872,0.872,2.285,0.872,3.157,0l0,0c0.315-0.315,0.514-0.7,0.602-1.105C112.577,216.59,112.378,215.812,111.82,215.255z"/>
			<path style="fill:#EC478E;" d="M108.991,215.378l-0.678,0.678l-1.003,1.003l1.353,1.353c0.872,0.872,2.285,0.872,3.157,0l0,0
				L108.991,215.378z"/>
		</g>
		<g>
			<g>
				<path style="fill:#FCDB1A;" d="M95.692,169.061l-5.089-9.576c5.253-2.791,11.873-0.766,14.665,4.488
					c2.791,5.253,0.766,11.873-4.488,14.665c-5.253,2.792-11.873,0.766-14.665-4.488c-0.688-1.294-1.106-2.715-1.229-4.175
					L95.692,169.061z"/>
				<path style="fill:#EC478E;" d="M95.692,169.061l-5.089-9.576c1.563-0.831,3.306-1.266,5.076-1.268
					c5.949-0.007,10.85,4.882,10.857,10.831c0.006,4.944-3.37,9.296-8.16,10.52L95.692,169.061z"/>
				<path style="fill:#FF6CB2;" d="M95.692,169.061l-5.089-9.576c1.588-0.844,3.361-1.28,5.159-1.268
					c1.798,0.012,3.566,0.471,5.142,1.335L95.692,169.061z"/>
				<path style="fill:#21C1D6;" d="M92.37,167.531l-10.844,0.013c-0.002-1.798,0.443-3.569,1.295-5.153
					c0.852-1.583,2.085-2.93,3.587-3.919L92.37,167.531z"/>
			</g>
		</g>
		<g>
			<path style="fill:#EC478E;" d="M125.131,203.408l-6.241,6.241c-3.424-3.424-3.424-9.059,0-12.482
				c0.957-0.957,2.121-1.681,3.402-2.116L125.131,203.408z"/>
			<path style="fill:#FF6CB2;" d="M125.131,203.408l8.357,2.839c-1.558,4.585-6.612,7.075-11.197,5.518
				c-1.281-0.435-2.445-1.159-3.402-2.116L125.131,203.408z"/>
			<path style="fill:#FCDB1A;" d="M126.936,201.603l-1.996-6.495c2.401-0.738,5.024-0.086,6.8,1.69
				c1.798,1.798,2.442,4.459,1.665,6.88L126.936,201.603z"/>
		</g>
		<g>
			<g>
				<path style="fill:#B2B2B2;" d="M84.845,127.422h-5.623v-13.7c0-3.258-2.65-5.908-5.908-5.908c-3.258,0-5.908,2.65-5.908,5.908
					v13.7h-5.623v-13.7c0-6.358,5.173-11.531,11.531-11.531c6.358,0,11.531,5.173,11.531,11.531V127.422z"/>
			</g>
			<g>
				<path style="fill:#666666;" d="M73.314,102.191c6.358,0,11.531,5.173,11.531,11.531v13.7h-5.623v-13.7
					c0-3.258-2.65-5.908-5.908-5.908V102.191z"/>
			</g>
			<rect x="56.008" y="124.945" style="fill:#FDE456;" width="34.612" height="26.613"/>
			<rect x="82.368" y="124.945" style="fill:#FCDB1A;" width="8.252" height="26.613"/>
			<polygon style="fill:#323535;" points="72.946,144.85 65.592,144.85 67.325,137.496 71.213,137.496 			"/>
			<path style="fill:#323535;" d="M72.946,134.872c0,2.031-1.646,3.677-3.677,3.677s-3.677-1.646-3.677-3.677
				s1.646-3.677,3.677-3.677S72.946,132.842,72.946,134.872z"/>
		</g>
		<g>
			<path style="fill:#B2B2B2;" d="M128.35,164.25L128.35,164.25c-4.614,4.228-11.694,4.228-16.307,0h0
				c-6.236-5.714-10.519-13.243-12.244-21.523l-3.047-14.623l23.444-10.328l23.444,10.328l-3.047,14.623
				C138.868,151.007,134.585,158.536,128.35,164.25z"/>
			<path style="fill:#666666;" d="M127.101,160.934L127.101,160.934c-3.907,3.58-9.903,3.58-13.81,0l0,0
				c-5.281-4.839-8.908-11.215-10.369-18.227l-2.58-12.383l19.854-8.746l19.854,8.746l-2.58,12.383
				C136.009,149.719,132.382,156.095,127.101,160.934z"/>
			<g>
				<path style="fill:#323535;" d="M120.196,121.577v42.042c2.476,0,4.951-0.895,6.905-2.685l0,0
					c5.281-4.839,8.908-11.215,10.369-18.227l2.58-12.383L120.196,121.577z"/>
			</g>
		</g>
		<g>
			<path style="fill:#EC478E;" d="M74.952,172.809l-8.205,13.443c-0.526,0.863-1.779,0.863-2.305,0l-8.207-13.447
				c-3.336-5.466-1.687-12.712,3.835-15.954c1.757-1.031,3.687-1.562,5.524-1.562c1.549,0,3.15,0.367,4.655,1.083
				C76.385,159.291,78.492,167.009,74.952,172.809z"/>
			<circle style="fill:#FDFDFD;" cx="65.593" cy="166.724" r="4.657"/>
		</g>
		<g>
			<rect x="149.772" y="129.075" style="fill:#21C1D6;" width="30.057" height="21.511"/>
			<polygon style="fill:#323535;" points="164.801,140.077 149.772,129.075 179.829,129.075 			"/>
			<polygon style="fill:#B2B2B2;" points="164.801,118.073 179.829,129.075 149.772,129.075 			"/>
			<polygon style="fill:#EC478E;" points="164.625,115.255 158.954,120.027 163.012,120.027 163.012,132.343 166.237,132.343 
				166.237,120.027 170.295,120.027 			"/>
		</g>
		<g>
			<path style="fill:#B2B2B2;" d="M158.734,97.693c0-4.188-3.395-7.582-7.582-7.582c-0.039,0-0.077,0.005-0.117,0.006
				c-0.769-5.761-5.69-10.209-11.661-10.209c-5.978,0-10.904,4.458-11.664,10.229c-0.171-0.009-0.34-0.026-0.514-0.026
				c-5.141,0-9.309,4.168-9.309,9.309h40.641C158.659,98.864,158.734,98.288,158.734,97.693z"/>
			<path style="fill:#FDFDFD;" d="M176.869,103.392c0-4.775-3.871-8.646-8.646-8.646c-0.045,0-0.088,0.006-0.133,0.007
				c-0.877-6.569-6.488-11.641-13.297-11.641c-6.817,0-12.434,5.084-13.301,11.664c-0.195-0.011-0.388-0.03-0.586-0.03
				c-5.863,0-10.615,4.753-10.615,10.615h46.344C176.783,104.728,176.869,104.071,176.869,103.392z"/>
			<g>
				<polygon style="fill:#21C1D6;" points="159.238,113.905 164.908,109.133 160.85,109.133 160.85,96.817 157.625,96.817 
					157.625,109.133 153.567,109.133 				"/>
			</g>
			<g>
				<polygon style="fill:#EC478E;" points="149.507,96.817 143.837,101.59 147.895,101.59 147.895,113.905 151.119,113.905 
					151.119,101.59 155.177,101.59 				"/>
			</g>
		</g>
		<g>
			<polygon style="fill:#666666;" points="113.269,99.42 80.851,99.42 80.851,73.957 100.342,73.957 103.986,68.53 113.269,68.53 
							"/>
			<polygon style="fill:#21C1D6;" points="109.698,99.42 77.281,99.42 77.281,73.957 96.772,73.957 100.416,68.53 109.698,68.53 			
				"/>
			<polygon style="fill:#FDFDFD;" points="106.523,95.965 79.763,95.965 79.763,76.467 106.523,76.58 			"/>
		</g>
		<polygon style="fill:#7EE0ED;" points="109.698,99.42 77.281,99.42 71.637,78.795 104.055,78.914 		"/>
		<g>
			<polygon style="fill:#FDFDFD;" points="131.083,110.311 125.967,113.315 124.452,111.182 124.452,109.237 126.067,107.307 			"/>
			<polygon style="fill:#E0E0E0;" points="131.083,110.311 125.967,113.315 124.452,111.182 124.452,110.3 			"/>
			<polygon style="fill:#FCDB1A;" points="126.067,113.315 96.869,113.315 96.869,107.307 126.067,107.307 125.128,108.993 
				125.128,111.628 			"/>
			<polygon style="fill:#323535;" points="125.128,111.628 96.869,111.628 96.869,108.993 125.128,108.993 126.067,110.311 			"/>
			<rect x="94.881" y="107.307" style="fill:#FDFDFD;" width="3.27" height="6.008"/>
			<rect x="94.881" y="110.311" style="fill:#E0E0E0;" width="3.27" height="3.004"/>
			<path style="fill:#FF6CB2;" d="M91.476,108.858v2.905c0,0.857,0.695,1.551,1.551,1.551h1.854v-6.008h-1.854
				C92.171,107.307,91.476,108.001,91.476,108.858z"/>
			<path style="fill:#EC478E;" d="M91.476,110.311v1.452c0,0.857,0.695,1.551,1.551,1.551h1.854v-3.004H91.476z"/>
			<path style="fill:#666666;" d="M128.653,111.737l2.43-1.427l-2.417-1.448c-0.254,0.424-0.403,0.918-0.403,1.448
				C128.263,110.832,128.407,111.318,128.653,111.737z"/>
			<path style="fill:#323535;" d="M128.653,111.737l2.43-1.427h-2.82C128.263,110.832,128.407,111.318,128.653,111.737z"/>
			
				<line style="fill:none;stroke:#323535;stroke-width:2.8002;stroke-miterlimit:10;" x1="94.881" y1="113.315" x2="94.881" y2="107.307"/>
		</g>
	</g>
	<text transform="matrix(1 0 0 1 217.3448 134.8723)"><tspan x="0" y="0" style="fill:#000; font-family:'Montserrat-Black'; font-size:42px; letter-spacing:3;">BIG</tspan><tspan x="-10.295" y="26.485" style="fill:#323535; font-family:'Montserrat-Black'; font-size:24px; letter-spacing:2;"> DATA</tspan></text>
</g>

</svg>
